<svg width="512" height="512" viewBox="0 0 512 512" fill="none" xmlns="http://www.w3.org/2000/svg">
<g clip-path="url(#clip0)">
<path d="M41.0423 216.613C60.4238 223.32 81.8396 220.415 98.7337 208.786C120.174 194.87 136.532 174.387 145.362 150.4C165.239 99.264 150.848 45.7691 113.216 31.1314C106.791 28.6561 99.96 27.4003 93.0743 27.4286C60.224 27.4286 25.3623 55.0674 8.95999 97.3623C-10.9714 148.48 3.44684 201.984 41.0423 216.613V216.613ZM24.4754 95.5337C30.7977 80.5786 42.1498 68.3047 56.5668 60.8366C70.1292 53.6147 86.2248 52.8925 100.379 58.8708C114.397 65.1899 124.812 77.4999 128.722 92.3703C133.03 108.021 131.736 124.685 125.065 139.483C115.761 162.965 93.6049 178.854 68.3794 180.133C61.773 180.151 55.2348 178.797 49.1794 176.155C21.3943 164.032 10.3406 127.863 24.4754 95.5337Z" fill="white"/>
<path d="M455.57 159.406C474.048 151.323 480.869 125.952 470.775 102.857C466.16 91.8248 457.84 82.7485 447.25 77.1931C442.215 74.5937 436.642 73.2067 430.976 73.1428C426.837 73.1291 422.741 73.9727 418.944 75.6205C409.947 79.8163 403.316 87.8376 400.887 97.4628C397.773 109.009 398.785 121.28 403.749 132.16C413.842 155.237 437.083 167.461 455.57 159.406V159.406ZM431.543 98.8434C433.712 97.7578 436.223 97.5785 438.524 98.345C440.826 99.1115 442.728 100.761 443.813 102.93L452.955 121.216C454.446 124.142 454.253 127.642 452.451 130.386C450.648 133.13 447.512 134.697 444.235 134.491C440.959 134.285 438.044 132.338 436.599 129.39L427.456 111.104C425.202 106.59 427.031 101.102 431.543 98.8434Z" fill="white"/>
<path d="M192.622 292.571C189.878 292.545 187.269 293.761 185.527 295.881L165.687 319.909C180.735 319.424 195.541 315.985 209.262 309.787L199.57 296.338C197.982 294.052 195.404 292.654 192.622 292.571V292.571Z" fill="white"/>
<path d="M366.674 150.903C375.506 174.891 391.864 195.377 413.303 209.298C430.199 220.922 451.614 223.824 470.994 217.115C489.811 208.97 503.632 192.362 508.224 172.379C514.615 147.639 512.826 121.495 503.122 97.856C494.297 73.867 477.941 53.3803 456.503 39.4606C445.273 32.2112 432.252 28.2201 418.889 27.9314C412.012 27.9033 405.189 29.1623 398.775 31.6434C379.953 39.7838 366.127 56.3934 361.536 76.3794C355.161 101.124 356.964 127.267 366.674 150.903V150.903ZM383.323 92.3886C387.052 77.4375 397.506 65.0626 411.624 58.8888C425.742 52.715 441.925 53.4413 455.433 60.8548C469.858 68.3344 481.211 80.6256 487.525 95.5977C501.659 127.927 490.606 164.096 462.894 176.219C456.839 178.862 450.3 180.216 443.694 180.197C418.467 178.92 396.31 163.031 387.008 139.547C380.306 124.725 379.002 108.025 383.323 92.3428V92.3886Z" fill="white"/>
<path d="M56.4297 159.406C74.9166 167.461 98.1394 155.246 108.251 132.16C113.215 121.28 114.227 109.009 111.113 97.4628C108.684 87.8376 102.053 79.8163 93.056 75.6206C89.2577 73.9783 85.1621 73.1349 81.024 73.1428C75.3578 73.2067 69.7849 74.5937 64.7497 77.1931C54.1597 82.7485 45.84 91.8248 41.2251 102.857C31.1314 125.952 37.952 151.323 56.4297 159.406V159.406ZM59.008 121.216L68.1508 102.93C70.4305 98.4559 75.8923 96.6576 80.3843 98.9023C84.8763 101.147 86.7171 106.595 84.5074 111.104L75.3646 129.39C73.9198 132.338 71.0049 134.285 67.728 134.491C64.451 134.697 61.3153 133.13 59.5127 130.386C57.71 127.642 57.5174 124.142 59.008 121.216V121.216Z" fill="white"/>
<path d="M256 182.857C210.9 183.096 169.637 208.276 148.8 248.274C140.086 263.187 136.229 280.442 137.765 297.646C138.469 303.011 140.787 308.037 144.411 312.055C145.172 312.764 145.985 313.415 146.843 314.002L171.41 284.251C176.732 277.708 184.803 274.025 193.233 274.292C201.663 274.559 209.485 278.747 214.382 285.614L226.962 303.077C236.416 300.47 246.195 299.229 256 299.392C265.803 299.243 275.578 300.492 285.029 303.104L297.591 285.669C302.488 278.802 310.309 274.614 318.739 274.347C327.169 274.08 335.24 277.763 340.562 284.306L365.12 314.039C365.979 313.452 366.792 312.801 367.552 312.091C371.177 308.069 373.498 303.042 374.208 297.673C375.733 280.469 371.874 263.216 363.163 248.302C342.34 208.304 301.092 183.115 256 182.857V182.857Z" fill="white"/>
<path d="M477.577 234.149C469.056 237.47 459.989 239.166 450.843 239.15C434.108 238.871 417.779 233.942 403.685 224.914C378.864 208.897 359.903 185.268 349.641 157.568C338.5 130.218 336.517 99.9949 343.991 71.424C347.73 57.6217 354.615 44.8727 364.105 34.176C294.135 -10.88 218.203 -10.9714 148.05 34.0023C173.358 62.3451 180.37 110.72 162.359 157.029C152.092 184.723 133.131 208.348 108.315 224.366C94.2211 233.398 77.8941 238.336 61.1566 238.629C52.0116 238.641 42.9448 236.945 34.4228 233.627C26.1077 230.374 18.4665 225.61 11.8857 219.575C4.35531 243.19 0.35028 267.787 -1.52588e-05 292.571C-1.52588e-05 413.559 114.843 512 256 512C397.157 512 512 413.559 512 292.571C511.634 267.962 507.682 243.538 500.27 220.069C493.63 226.109 485.938 230.881 477.577 234.149ZM265.143 356.571H246.857C241.808 356.571 237.714 352.478 237.714 347.429C237.714 342.379 241.808 338.286 246.857 338.286H265.143C270.192 338.286 274.286 342.379 274.286 347.429C274.286 352.478 270.192 356.571 265.143 356.571ZM392.302 300.517C391.046 309.62 386.999 318.11 380.718 324.818C371.857 333.354 360.052 338.153 347.749 338.222C346.725 338.222 345.701 338.286 344.677 338.286C324.068 336.961 303.923 331.586 285.394 322.469C276.031 318.863 266.024 317.232 256 317.678C245.979 317.231 235.975 318.862 226.615 322.469C208.951 329.883 186.935 339.237 164.251 338.222C151.948 338.153 140.143 333.354 131.282 324.818C125.003 318.114 120.959 309.626 119.707 300.526C117.419 279.476 121.903 258.245 132.507 239.918C156.298 193.656 203.953 164.576 255.973 164.576C307.992 164.576 355.648 193.656 379.438 239.918C390.058 258.236 394.564 279.463 392.302 300.517V300.517Z" fill="white"/>
<path d="M319.378 292.571C316.587 292.657 314.002 294.061 312.411 296.357L302.738 309.797C316.451 316.008 331.257 319.445 346.304 319.909L326.482 295.899C324.741 293.771 322.128 292.548 319.378 292.571V292.571Z" fill="white"/>
</g>
<defs>
<clipPath id="clip0">
<rect width="512" height="512" fill="white"/>
</clipPath>
</defs>
</svg>
