<svg width="512" height="512" viewBox="0 0 512 512" fill="none" xmlns="http://www.w3.org/2000/svg">
<g clip-path="url(#clip0)">
<path d="M366.674 150.903C375.506 174.891 391.864 195.377 413.303 209.298C430.199 220.922 451.614 223.824 470.994 217.115C489.811 208.97 503.632 192.362 508.224 172.379C514.615 147.639 512.826 121.495 503.122 97.856C494.297 73.867 477.941 53.3803 456.503 39.4606C445.273 32.2112 432.252 28.2201 418.889 27.9314C412.012 27.9033 405.189 29.1623 398.775 31.6434C379.953 39.7838 366.127 56.3934 361.536 76.3794C355.161 101.124 356.964 127.267 366.674 150.903V150.903ZM383.323 92.3886C387.052 77.4375 397.506 65.0626 411.624 58.8888C425.742 52.715 441.925 53.4413 455.433 60.8548C469.858 68.3344 481.211 80.6256 487.525 95.5977C501.659 127.927 490.606 164.096 462.894 176.219C456.839 178.862 450.3 180.216 443.694 180.197C418.467 178.92 396.31 163.031 387.008 139.547C380.306 124.725 379.002 108.025 383.323 92.3428V92.3886Z" fill="white"/>
<path d="M292.571 210.286C297.621 210.286 301.714 206.192 301.714 201.143C301.714 196.093 297.621 192 292.571 192C287.522 192 283.429 196.093 283.429 201.143C283.429 206.192 287.522 210.286 292.571 210.286Z" fill="white"/>
<path d="M219.429 210.286C224.478 210.286 228.571 206.192 228.571 201.143C228.571 196.093 224.478 192 219.429 192C214.379 192 210.286 196.093 210.286 201.143C210.286 206.192 214.379 210.286 219.429 210.286Z" fill="white"/>
<path d="M41.0423 216.613C60.4238 223.32 81.8396 220.415 98.7337 208.786C120.174 194.87 136.532 174.387 145.362 150.4C165.239 99.264 150.848 45.7691 113.216 31.1314C106.791 28.6561 99.96 27.4003 93.0743 27.4286C60.224 27.4286 25.3623 55.0674 8.96 97.3623C-10.9714 148.48 3.44685 201.984 41.0423 216.613V216.613ZM24.4754 95.5337C30.7977 80.5786 42.1498 68.3047 56.5669 60.8366C70.1292 53.6147 86.2248 52.8925 100.379 58.8708C114.397 65.1899 124.812 77.4999 128.722 92.3703C133.03 108.021 131.736 124.685 125.065 139.483C115.761 162.965 93.6049 178.854 68.3794 180.133C61.773 180.151 55.2348 178.797 49.1794 176.155C21.3943 164.032 10.3406 127.863 24.4754 95.5337Z" fill="white"/>
<path d="M500.69 311.653C502.19 312.905 503.552 314.286 504.951 315.63C513.135 281.625 514.206 246.296 508.096 211.858C500.011 221.791 489.499 229.469 477.577 234.149C469.056 237.47 459.989 239.167 450.843 239.15C434.108 238.871 417.779 233.942 403.685 224.914C378.864 208.897 359.903 185.268 349.641 157.568C338.5 130.218 336.517 99.9949 343.991 71.424C347.73 57.6217 354.615 44.8727 364.105 34.176C294.135 -10.88 218.203 -10.9714 148.05 34.0023C173.358 62.3451 180.37 110.72 162.359 157.029C152.092 184.723 133.131 208.348 108.315 224.366C94.2211 233.398 77.8941 238.336 61.1566 238.629C38.947 238.685 17.9209 228.622 4.032 211.291C-2.21977 245.894 -1.19221 281.419 7.04914 315.602C8.448 314.258 9.792 312.859 11.3097 311.625C13.8133 309.5 17.264 308.881 20.35 310.003C23.4361 311.125 25.6834 313.816 26.2376 317.053C26.7918 320.289 25.5678 323.575 23.0309 325.659C5.0514 340.774 -3.20377 364.523 1.5243 387.531C6.25237 410.539 23.2039 429.108 45.6867 435.908C68.1696 442.708 92.5707 436.645 109.257 420.114C111.553 417.738 114.952 416.784 118.149 417.621C121.345 418.458 123.842 420.954 124.678 424.151C125.515 427.347 124.562 430.747 122.185 433.042C113.605 441.613 103.228 448.171 91.8034 452.242C186.769 531.919 325.231 531.919 420.197 452.242C408.772 448.171 398.395 441.613 389.815 433.042C386.35 429.455 386.4 423.752 389.926 420.226C393.453 416.699 399.155 416.649 402.743 420.114C419.406 436.75 443.857 442.892 466.404 436.107C488.95 429.322 505.95 410.705 510.665 387.637C515.379 364.568 507.046 340.774 488.969 325.687C486.432 323.602 485.208 320.317 485.762 317.08C486.317 313.844 488.564 311.153 491.65 310.031C494.736 308.909 498.187 309.528 500.69 311.653V311.653ZM292.571 173.714C307.72 173.714 320 185.994 320 201.143C320 216.291 307.72 228.571 292.571 228.571C277.423 228.571 265.143 216.291 265.143 201.143C265.143 185.994 277.423 173.714 292.571 173.714ZM219.429 173.714C234.577 173.714 246.857 185.994 246.857 201.143C246.857 216.291 234.577 228.571 219.429 228.571C204.28 228.571 192 216.291 192 201.143C192 185.994 204.28 173.714 219.429 173.714ZM283.429 411.429H228.571C223.522 411.429 219.429 407.335 219.429 402.286C219.429 397.236 223.522 393.143 228.571 393.143H283.429C288.478 393.143 292.571 397.236 292.571 402.286C292.571 407.335 288.478 411.429 283.429 411.429ZM469.175 383.525C464.399 385.113 459.238 382.542 457.627 377.774C456.96 375.835 440.969 330.414 394.642 338.158C380.438 340.43 366.577 344.488 353.39 350.235C333.714 358.199 315.136 365.714 256 365.714C196.864 365.714 178.286 358.199 158.61 350.235C145.423 344.488 131.562 340.43 117.358 338.158C71.0126 330.359 55.04 375.835 54.3726 377.774C53.3355 380.877 50.7217 383.191 47.5158 383.844C44.3098 384.498 40.9989 383.391 38.83 380.941C36.6612 378.492 35.964 375.071 37.0011 371.968C44.1783 350.427 70.8754 311.909 120.311 320.128C135.858 322.612 151.034 327.029 165.486 333.275C183.442 340.553 200.43 347.429 256 347.429C311.57 347.429 328.558 340.553 346.514 333.275C360.949 327.033 376.106 322.617 391.634 320.128C441.006 311.845 467.767 350.427 474.944 371.968C476.537 376.752 473.956 381.922 469.175 383.525Z" fill="white"/>
<path d="M56.4297 159.406C74.9074 167.461 98.1486 155.246 108.251 132.16C113.215 121.28 114.227 109.009 111.113 97.4628C108.684 87.8376 102.053 79.8163 93.056 75.6206C89.2577 73.9783 85.1621 73.1349 81.024 73.1428C75.3578 73.2067 69.7849 74.5937 64.7497 77.1931C54.1597 82.7485 45.84 91.8248 41.2251 102.857C31.1314 125.952 37.952 151.323 56.4297 159.406V159.406ZM59.008 121.216L68.1508 102.93C70.4305 98.4559 75.8923 96.6576 80.3843 98.9023C84.8763 101.147 86.7171 106.595 84.5074 111.104L75.3646 129.39C73.9198 132.338 71.0049 134.285 67.728 134.491C64.451 134.697 61.3153 133.13 59.5127 130.386C57.71 127.642 57.5174 124.142 59.008 121.216V121.216Z" fill="white"/>
<path d="M455.57 159.406C474.048 151.323 480.869 125.952 470.775 102.857C466.16 91.8248 457.84 82.7485 447.25 77.1931C442.215 74.5937 436.642 73.2067 430.976 73.1428C426.837 73.1291 422.741 73.9727 418.944 75.6205C409.947 79.8163 403.316 87.8376 400.887 97.4628C397.773 109.009 398.785 121.28 403.749 132.16C413.842 155.237 437.083 167.461 455.57 159.406V159.406ZM431.543 98.8434C433.712 97.7578 436.223 97.5785 438.524 98.345C440.825 99.1115 442.728 100.761 443.813 102.93L452.955 121.216C454.446 124.142 454.253 127.642 452.451 130.386C450.648 133.13 447.512 134.697 444.235 134.491C440.959 134.285 438.044 132.338 436.599 129.39L427.456 111.104C425.201 106.59 427.031 101.102 431.543 98.8434Z" fill="white"/>
</g>
<defs>
<clipPath id="clip0">
<rect width="512" height="512" fill="white"/>
</clipPath>
</defs>
</svg>
