<svg width="512" height="512" viewBox="0 0 512 512" fill="none" xmlns="http://www.w3.org/2000/svg">
<path d="M303.616 365.714C299.984 365.863 296.8 368.188 295.552 371.602L291.026 383.689C299.573 383.207 307.969 381.24 315.84 377.874L312.274 370.743C310.685 367.456 307.258 365.466 303.616 365.714Z" fill="white"/>
<path d="M208.384 365.714C204.74 365.456 201.307 367.449 199.726 370.743L196.16 377.874C204.031 381.24 212.427 383.207 220.974 383.689L216.402 371.602C215.161 368.203 211.999 365.882 208.384 365.714Z" fill="white"/>
<path d="M173.714 246.857C183.813 246.857 192 238.67 192 228.571C192 218.473 183.813 210.286 173.714 210.286C163.615 210.286 155.429 218.473 155.429 228.571C155.429 238.67 163.615 246.857 173.714 246.857Z" fill="white"/>
<path d="M180.809 367.689L183.369 362.578C188.247 352.827 198.438 346.89 209.326 347.458C220.215 348.025 229.734 354.988 233.573 365.193L240.613 384H271.387L278.427 365.193C282.266 354.988 291.785 348.025 302.673 347.458C313.562 346.89 323.753 352.827 328.631 362.578L331.191 367.689C339.175 359.686 344.505 349.421 346.459 338.286H165.541C167.494 349.421 172.825 359.686 180.809 367.689V367.689Z" fill="white"/>
<path d="M486.208 144.119C480.311 151.253 473.488 157.569 465.92 162.898C461.795 165.812 456.088 164.829 453.175 160.704C450.261 156.579 451.244 150.872 455.369 147.959C496.247 119.077 497.07 69.7966 490.167 32.64C489.488 29.0697 486.759 26.2405 483.215 25.4334C479.672 24.6264 475.987 25.9947 473.829 28.9189C458.057 51.2823 432.046 75.1451 393.143 75.1451C388.093 75.1451 384 71.0518 384 66.0023C384 60.9528 388.093 56.8594 393.143 56.8594C399.866 56.8569 406.554 55.8712 412.992 53.9337C320.654 -17.9991 191.24 -17.969 98.9348 54.0069C105.28 55.8917 111.863 56.8524 118.482 56.8594C123.532 56.8594 127.625 60.9528 127.625 66.0023C127.625 71.0518 123.532 75.1451 118.482 75.1451C84.2423 75.1451 57.3806 56.576 37.8331 28.9646C35.6872 26.0294 32.0059 24.6448 28.4575 25.4382C24.9091 26.2315 22.1681 29.0521 21.4766 32.6217C14.5646 69.8332 15.4057 119.077 56.2194 147.95C60.1151 150.93 60.9644 156.454 58.144 160.468C55.3236 164.481 49.8387 165.554 45.7143 162.898C38.2251 157.645 31.4619 151.426 25.6 144.402C11.582 173.156 3.1641 204.314 0.79541 236.215C22.4183 218.843 42.0206 241.198 31.3966 257.902C18.3472 279.581 12.5622 304.861 14.8846 330.057C17.4051 327.148 20.1904 324.479 23.2046 322.085C28.9786 317.612 36.8601 317.005 43.2514 320.539C49.6426 324.074 53.3176 331.073 52.5988 338.341C50.9548 375.991 63.9871 412.81 88.9508 441.042C94.5554 431.744 102.793 422.427 113.637 423.671C121.295 424.468 127.634 429.977 129.49 437.449C134.062 456.832 152.64 501.019 226.706 510.272C226.405 484.571 249.792 468.59 250.944 467.822C254.021 465.764 258.034 465.764 261.111 467.822C262.263 468.59 285.65 484.571 285.349 510.272C359.406 501.019 377.957 456.832 382.537 437.568C384.179 430.935 389.356 425.755 395.988 424.109C402.619 422.462 409.618 424.62 414.171 429.714C417.656 433.135 420.663 437.01 423.113 441.234C448.006 412.913 461.005 376.076 459.401 338.405C458.66 331.122 462.333 324.098 468.738 320.553C475.143 317.008 483.045 317.625 488.823 322.121C491.727 324.444 494.444 326.99 496.951 329.737C499.339 304.659 493.608 279.477 480.603 257.902C476.008 250.707 477.003 241.29 483 235.214C488.997 229.138 498.401 228.02 505.655 232.521C507.547 233.655 509.394 234.917 511.141 236.069C508.786 204.106 500.322 172.892 486.208 144.119V144.119ZM272.073 73.4171C290.221 68.8906 309.301 69.8096 326.93 76.0594C324.18 66.3608 317.223 58.4076 307.977 54.3909C303.18 52.7952 300.585 47.613 302.181 42.816C303.776 38.019 308.958 35.4238 313.755 37.0194C315.127 37.4857 347.429 48.7589 347.429 91.4286C347.429 94.8013 345.573 97.9003 342.599 99.4914C339.625 101.083 336.017 100.907 333.211 99.0354C316.023 89.2458 295.733 86.4249 276.526 91.1543C273.327 92.0315 269.904 91.1074 267.581 88.7397C265.258 86.3719 264.4 82.9318 265.338 79.7504C266.277 76.569 268.865 74.1453 272.101 73.4171H272.073ZM198.254 37.0377C203.038 35.4219 208.226 37.9905 209.842 42.7749C211.458 47.5592 208.889 52.7476 204.105 54.3634C194.851 58.3945 187.88 66.3475 185.097 76.0503C202.729 69.8099 221.806 68.8942 239.954 73.4171C243.19 74.1453 245.778 76.569 246.716 79.7504C247.655 82.9318 246.797 86.3719 244.474 88.7397C242.151 91.1074 238.728 92.0315 235.529 91.1543C216.299 86.4219 195.986 89.2494 178.779 99.0537C175.971 100.922 172.363 101.093 169.391 99.4981C166.419 97.9032 164.566 94.8015 164.571 91.4286C164.571 48.7589 196.873 37.4857 198.254 37.0377V37.0377ZM100.571 228.571C100.707 201.98 115.22 177.543 138.505 164.699C133.845 160.201 130.336 154.647 128.274 148.507C126.994 143.622 129.917 138.624 134.802 137.344C139.688 136.064 144.686 138.987 145.966 143.872C146.286 144.832 156.773 173.714 228.571 173.714C232.191 173.744 235.453 175.906 236.889 179.228C238.326 182.551 237.667 186.408 235.209 189.065C252.099 215.292 250.496 249.345 231.217 273.869C211.938 298.394 179.227 307.992 149.753 297.773C120.28 287.554 100.531 259.766 100.571 228.571V228.571ZM299.035 436.178C283.255 451.959 228.745 451.968 212.965 436.178C209.386 432.655 209.319 426.905 212.814 423.299C216.309 419.694 222.059 419.582 225.691 423.049C236.489 431.899 275.611 431.963 286.336 423.049C290.072 419.792 295.708 420.046 299.136 423.625C302.51 427.145 302.465 432.713 299.035 436.178V436.178ZM283.429 402.286H228.571C147.2 402.286 146.286 329.874 146.286 329.143C146.286 324.093 150.379 320 155.429 320H356.571C361.621 320 365.714 324.093 365.714 329.143C365.714 329.874 364.8 402.286 283.429 402.286ZM338.286 301.714C311.569 301.649 287.009 287.035 274.208 263.585C261.406 240.135 262.396 211.573 276.791 189.065C274.333 186.408 273.674 182.551 275.111 179.228C276.547 175.906 279.809 173.744 283.429 173.714C356.069 173.714 365.952 144.146 366.043 143.845C367.499 139.083 372.456 136.322 377.271 137.591C382.038 138.862 384.909 143.717 383.726 148.507C381.664 154.647 378.155 160.201 373.495 164.699C402.759 180.732 417.426 214.568 409.121 246.886C400.816 279.204 371.654 301.776 338.286 301.714V301.714Z" fill="white"/>
<path d="M338.286 246.857C348.385 246.857 356.571 238.67 356.571 228.571C356.571 218.473 348.385 210.286 338.286 210.286C328.187 210.286 320 218.473 320 228.571C320 238.67 328.187 246.857 338.286 246.857Z" fill="white"/>
</svg>
