<svg width="512" height="512" viewBox="0 0 512 512" fill="none" xmlns="http://www.w3.org/2000/svg">
<g clip-path="url(#clip0)">
<path d="M82.2856 164.571C126.197 164.033 161.948 129.108 163.511 85.2209C165.074 41.3339 131.899 3.9533 88.1371 0.292542C110.804 14.0712 122.608 40.415 117.806 66.5027C113.003 92.5904 92.5903 113.003 66.5026 117.806C40.4149 122.609 14.0711 110.804 0.29248 88.1371C3.38625 131.158 39.154 164.501 82.2856 164.571Z" fill="white"/>
<path d="M54.8571 100.571C80.1044 100.571 100.571 80.1044 100.571 54.8571C100.571 29.6098 80.1044 9.14284 54.8571 9.14284C29.6098 9.14284 9.14282 29.6098 9.14282 54.8571C9.17305 80.0919 29.6223 100.541 54.8571 100.571ZM45.7143 27.4286C50.7637 27.4286 54.8571 31.5219 54.8571 36.5714C54.8571 41.6209 50.7637 45.7143 45.7143 45.7143C40.6648 45.7143 36.5714 41.6209 36.5714 36.5714C36.5714 31.5219 40.6648 27.4286 45.7143 27.4286Z" fill="white"/>
<path d="M292.571 283.429C297.621 283.429 301.714 279.335 301.714 274.286C301.714 269.236 297.621 265.143 292.571 265.143C287.522 265.143 283.428 269.236 283.428 274.286C283.428 279.335 287.522 283.429 292.571 283.429Z" fill="white"/>
<path d="M429.714 164.571C472.846 164.501 508.614 131.158 511.707 88.1371C497.929 110.804 471.585 122.609 445.497 117.806C419.41 113.003 398.997 92.5904 394.194 66.5027C389.391 40.415 401.196 14.0712 423.863 0.292542C380.101 3.9533 346.925 41.3339 348.489 85.2209C350.052 129.108 385.803 164.033 429.714 164.571Z" fill="white"/>
<path d="M457.143 100.571C482.39 100.571 502.857 80.1044 502.857 54.8571C502.857 29.6098 482.39 9.14284 457.143 9.14284C431.896 9.14284 411.429 29.6098 411.429 54.8571C411.459 80.0919 431.908 100.541 457.143 100.571ZM466.286 27.4286C471.335 27.4286 475.429 31.5219 475.429 36.5714C475.429 41.6209 471.335 45.7143 466.286 45.7143C461.236 45.7143 457.143 41.6209 457.143 36.5714C457.143 31.5219 461.236 27.4286 466.286 27.4286Z" fill="white"/>
<path d="M488.969 325.687C485.091 322.453 484.569 316.687 487.803 312.809C491.038 308.931 496.803 308.409 500.681 311.643C502.19 312.896 503.552 314.277 504.96 315.63C509.611 296.093 511.974 276.082 512 256C512.073 223.123 505.731 190.549 493.33 160.101C471.899 177.897 443.943 185.804 416.366 181.87C395.474 186.249 378.021 200.384 364.507 223.973C361.998 228.355 356.41 229.874 352.027 227.365C347.644 224.855 346.126 219.267 348.635 214.885C357.777 197.88 371.288 183.62 387.776 173.577C376.297 168.289 365.914 160.892 357.166 151.771C350.501 169.415 340.017 185.366 326.464 198.482C322.877 201.947 317.174 201.898 313.647 198.371C310.121 194.844 310.071 189.142 313.536 185.554C328.388 171.538 338.754 153.435 343.323 133.531C321.641 97.2807 325.074 51.3163 351.899 18.688C290.39 -6.20503 221.61 -6.20503 160.101 18.688C186.905 51.3072 190.337 97.2459 168.677 133.486C173.246 153.39 183.612 171.493 198.464 185.509C200.841 187.804 201.794 191.203 200.957 194.4C200.12 197.597 197.624 200.093 194.427 200.93C191.231 201.767 187.831 200.813 185.536 198.437C171.989 185.334 161.505 169.399 154.834 151.771C146.087 160.899 135.704 168.302 124.224 173.595C140.706 183.626 154.217 197.869 163.365 214.857C165.874 219.24 164.355 224.828 159.973 227.337C155.59 229.847 150.002 228.328 147.493 223.945C133.97 200.338 116.498 186.213 95.5885 181.842C68.0249 185.777 40.0829 177.869 18.6697 160.073C6.26496 190.53 -0.0768066 223.114 -4.38089e-05 256C0.0259033 276.082 2.38846 296.093 7.03996 315.63C8.44796 314.277 9.78281 312.887 11.3188 311.643C15.1968 308.409 20.9623 308.931 24.1965 312.809C27.4307 316.687 26.9088 322.453 23.0308 325.687C4.95405 340.774 -3.37891 364.568 1.33541 387.637C6.04973 410.705 23.0499 429.322 45.5965 436.107C68.143 442.892 92.5943 436.75 109.257 420.114C111.553 417.738 114.952 416.784 118.149 417.621C121.345 418.458 123.842 420.954 124.678 424.151C125.515 427.347 124.562 430.747 122.185 433.042C113.605 441.614 103.228 448.172 91.8034 452.242C186.769 531.919 325.231 531.919 420.197 452.242C408.772 448.172 398.395 441.614 389.815 433.042C386.35 429.455 386.4 423.752 389.926 420.226C393.453 416.699 399.155 416.649 402.743 420.114C419.406 436.75 443.857 442.892 466.403 436.107C488.95 429.322 505.95 410.705 510.665 387.637C515.379 364.568 507.046 340.774 488.969 325.687V325.687ZM292.571 246.857C307.72 246.857 320 259.137 320 274.286C320 289.434 307.72 301.714 292.571 301.714C277.423 301.714 265.143 289.434 265.143 274.286C265.143 259.137 277.423 246.857 292.571 246.857ZM219.429 246.857C234.577 246.857 246.857 259.137 246.857 274.286C246.857 289.434 234.577 301.714 219.429 301.714C204.28 301.714 192 289.434 192 274.286C192 259.137 204.28 246.857 219.429 246.857ZM283.429 411.429H228.571C223.522 411.429 219.429 407.335 219.429 402.286C219.429 397.236 223.522 393.143 228.571 393.143H283.429C288.478 393.143 292.571 397.236 292.571 402.286C292.571 407.335 288.478 411.429 283.429 411.429ZM469.175 383.534C464.394 385.127 459.224 382.551 457.618 377.774C456.96 375.835 440.914 330.441 394.651 338.158C380.445 340.43 366.582 344.485 353.39 350.226C333.714 358.19 315.136 365.714 256 365.714C196.864 365.714 178.286 358.19 158.61 350.226C145.418 344.485 131.555 340.43 117.349 338.158C71.0217 330.405 55.04 375.835 54.3817 377.774C52.7785 382.571 47.5901 385.16 42.7931 383.557C37.9961 381.953 35.407 376.765 37.0102 371.968C44.1874 350.427 70.784 311.845 120.338 320.128C135.879 322.607 151.046 327.027 165.486 333.285C183.442 340.562 200.421 347.429 256 347.429C311.579 347.429 328.558 340.562 346.514 333.285C360.942 327.03 376.097 322.61 391.625 320.128C441.152 311.899 467.776 350.427 474.953 371.968C476.551 376.757 473.964 381.935 469.175 383.534V383.534Z" fill="white"/>
<path d="M219.429 283.429C224.478 283.429 228.571 279.335 228.571 274.286C228.571 269.236 224.478 265.143 219.429 265.143C214.379 265.143 210.286 269.236 210.286 274.286C210.286 279.335 214.379 283.429 219.429 283.429Z" fill="white"/>
</g>
<defs>
<clipPath id="clip0">
<rect width="512" height="512" fill="white"/>
</clipPath>
</defs>
</svg>
