<svg width="512" height="512" viewBox="0 0 512 512" fill="none" xmlns="http://www.w3.org/2000/svg">
<g clip-path="url(#clip0)">
<path d="M256 192C271.148 192 283.429 179.72 283.429 164.571C283.429 149.423 271.148 137.143 256 137.143C240.852 137.143 228.572 149.423 228.572 164.571C228.572 179.72 240.852 192 256 192Z" fill="white"/>
<path d="M488.969 325.687C485.091 322.45 484.571 316.683 487.808 312.805C491.045 308.927 496.812 308.407 500.69 311.643C502.19 312.905 503.552 314.277 504.951 315.621C527.947 219.663 493.746 119.031 417.042 56.9579C340.337 -5.11528 234.786 -17.578 145.734 24.924C56.6815 67.4259 -0.0156903 157.325 3.25709e-06 256C0.0240126 276.08 2.38971 296.089 7.04915 315.621C8.448 314.277 9.792 312.878 11.3097 311.643C13.8183 309.55 17.2534 308.953 20.321 310.079C23.3886 311.205 25.6226 313.881 26.1816 317.101C26.7405 320.32 25.5395 323.593 23.0309 325.687C4.9541 340.774 -3.37886 364.568 1.33546 387.637C6.04977 410.705 23.0499 429.322 45.5965 436.107C68.1431 442.892 92.5944 436.75 109.257 420.114C111.553 417.738 114.952 416.784 118.149 417.621C121.345 418.458 123.842 420.954 124.678 424.151C125.515 427.347 124.562 430.747 122.185 433.042C113.605 441.614 103.228 448.172 91.8034 452.242C186.769 531.919 325.231 531.919 420.197 452.242C408.772 448.172 398.395 441.614 389.815 433.042C386.35 429.455 386.4 423.752 389.926 420.226C393.453 416.699 399.155 416.649 402.743 420.114C419.406 436.75 443.857 442.892 466.404 436.107C488.95 429.322 505.95 410.705 510.665 387.637C515.379 364.568 507.046 340.774 488.969 325.687V325.687ZM256 27.4285C331.742 27.4285 393.143 88.8295 393.143 164.571C393.143 240.313 331.742 301.714 256 301.714C180.258 301.714 118.857 240.313 118.857 164.571C118.943 88.865 180.294 27.5142 256 27.4285ZM283.429 411.429H228.571C223.522 411.429 219.429 407.335 219.429 402.286C219.429 397.236 223.522 393.143 228.571 393.143H283.429C288.478 393.143 292.571 397.236 292.571 402.286C292.571 407.335 288.478 411.429 283.429 411.429ZM469.175 383.534C464.396 385.121 459.234 382.546 457.627 377.774C456.96 375.835 440.951 330.45 394.642 338.158C380.439 340.432 366.579 344.487 353.39 350.226C333.714 358.19 315.136 365.714 256 365.714C196.864 365.714 178.286 358.19 158.61 350.226C145.421 344.487 131.561 340.432 117.358 338.158C70.976 330.441 55.04 375.835 54.3726 377.774C52.7694 382.571 47.581 385.16 42.784 383.557C37.987 381.953 35.3979 376.765 37.0011 371.968C44.1783 350.427 70.8297 311.927 120.311 320.128C135.86 322.606 151.037 327.026 165.486 333.285C183.442 340.562 200.43 347.429 256 347.429C311.57 347.429 328.558 340.562 346.514 333.285C360.945 327.03 376.103 322.61 391.634 320.128C441.006 311.899 467.767 350.427 474.944 371.968C476.542 376.755 473.96 381.931 469.175 383.534Z" fill="white"/>
</g>
<defs>
<clipPath id="clip0">
<rect width="512" height="512" fill="white"/>
</clipPath>
</defs>
</svg>
