<svg width="512" height="512" viewBox="0 0 512 512" fill="none" xmlns="http://www.w3.org/2000/svg">
<g clip-path="url(#clip0)">
<path d="M256 246.857C271.148 246.857 283.429 234.577 283.429 219.429C283.429 204.28 271.148 192 256 192C240.852 192 228.572 204.28 228.572 219.429C228.572 234.577 240.852 246.857 256 246.857Z" fill="white"/>
<path d="M411.429 128C426.577 128 438.857 115.72 438.857 100.571C438.857 85.423 426.577 73.1428 411.429 73.1428C396.28 73.1428 384 85.423 384 100.571C384 115.72 396.28 128 411.429 128Z" fill="white"/>
<path d="M100.571 128C115.72 128 128 115.72 128 100.571C128 85.423 115.72 73.1428 100.571 73.1428C85.423 73.1428 73.1428 85.423 73.1428 100.571C73.1428 115.72 85.423 128 100.571 128Z" fill="white"/>
<path d="M488.969 325.687C485.091 322.45 484.571 316.683 487.808 312.805C491.045 308.927 496.812 308.407 500.69 311.643C502.19 312.905 503.552 314.277 504.951 315.621C509.61 296.089 511.976 276.08 512 256C512.027 229.862 508.018 203.877 500.114 178.962C496.815 182.763 493.282 186.354 489.536 189.714C485.749 193.057 479.969 192.697 476.626 188.91C473.284 185.123 473.644 179.343 477.431 176C505.47 151.301 517.504 113.094 508.681 76.7849C499.858 40.4759 471.633 12.0514 435.386 2.97381C399.14 -6.10377 360.849 5.66211 335.954 33.5268C332.574 37.233 326.838 37.5232 323.101 34.1771C319.364 30.831 319.02 25.0985 322.331 21.3303C325.426 17.9052 328.717 14.6631 332.187 11.6205C282.47 -3.91423 229.191 -3.86637 179.502 11.7577C182.911 14.7596 186.143 17.9558 189.184 21.3303C192.552 25.0972 192.229 30.8811 188.462 34.2491C184.695 37.6171 178.911 37.2937 175.543 33.5268C150.643 5.6844 112.363 -6.06438 76.1305 3.0154C39.8982 12.0952 11.6827 40.5076 2.8551 76.8022C-5.97247 113.097 6.04225 151.294 34.0572 176C37.8443 179.345 38.2024 185.127 34.8572 188.914C31.5119 192.701 25.73 193.06 21.9429 189.714C18.3449 186.499 14.9466 183.067 11.7669 179.438C3.95427 204.207 -0.014134 230.028 3.7823e-05 256C0.0240471 276.08 2.38974 296.089 7.04918 315.621C8.44804 314.277 9.79204 312.878 11.3098 311.643C13.8184 309.55 17.2534 308.953 20.321 310.079C23.3886 311.205 25.6226 313.881 26.1816 317.101C26.7406 320.32 25.5395 323.593 23.0309 325.687C4.95413 340.774 -3.37883 364.568 1.33549 387.637C6.04981 410.705 23.05 429.322 45.5965 436.107C68.1431 442.892 92.5944 436.75 109.257 420.114C111.553 417.738 114.952 416.784 118.149 417.621C121.345 418.458 123.842 420.954 124.678 424.151C125.515 427.347 124.562 430.747 122.185 433.042C113.605 441.614 103.228 448.172 91.8035 452.242C186.769 531.919 325.231 531.919 420.197 452.242C408.772 448.172 398.395 441.614 389.815 433.042C386.35 429.455 386.4 423.752 389.926 420.226C393.453 416.699 399.155 416.649 402.743 420.114C419.406 436.75 443.857 442.892 466.404 436.107C488.95 429.322 505.95 410.705 510.665 387.637C515.379 364.568 507.046 340.774 488.969 325.687V325.687ZM411.429 18.2857C456.874 18.2857 493.714 55.1263 493.714 100.571C493.714 146.017 456.874 182.857 411.429 182.857C365.983 182.857 329.143 146.017 329.143 100.571C329.193 55.1471 366.004 18.3361 411.429 18.2857ZM256 128C306.495 128 347.429 168.934 347.429 219.429C347.429 269.923 306.495 310.857 256 310.857C205.505 310.857 164.571 269.923 164.571 219.429C164.627 168.957 205.528 128.055 256 128ZM18.2858 100.571C18.2858 55.1263 55.1263 18.2857 100.571 18.2857C146.017 18.2857 182.857 55.1263 182.857 100.571C182.857 146.017 146.017 182.857 100.571 182.857C55.1472 182.807 18.3361 145.996 18.2858 100.571ZM283.429 411.429H228.571C223.522 411.429 219.429 407.335 219.429 402.286C219.429 397.236 223.522 393.143 228.571 393.143H283.429C288.478 393.143 292.571 397.236 292.571 402.286C292.571 407.335 288.478 411.429 283.429 411.429ZM469.175 383.534C464.396 385.121 459.234 382.546 457.627 377.774C456.96 375.835 440.969 330.45 394.642 338.158C380.439 340.432 366.579 344.487 353.39 350.226C333.714 358.19 315.136 365.714 256 365.714C196.864 365.714 178.286 358.19 158.61 350.226C145.421 344.487 131.561 340.432 117.358 338.158C71.0126 330.441 55.04 375.835 54.3726 377.774C52.7694 382.571 47.581 385.16 42.784 383.557C37.9871 381.953 35.398 376.765 37.0012 371.968C44.1783 350.427 70.8755 311.927 120.311 320.128C135.86 322.606 151.037 327.026 165.486 333.285C183.442 340.562 200.43 347.429 256 347.429C311.57 347.429 328.558 340.562 346.514 333.285C360.945 327.03 376.104 322.61 391.634 320.128C441.006 311.899 467.767 350.427 474.944 371.968C476.543 376.755 473.96 381.931 469.175 383.534Z" fill="white"/>
</g>
<defs>
<clipPath id="clip0">
<rect width="512" height="512" fill="white"/>
</clipPath>
</defs>
</svg>
