<svg width="512" height="512" viewBox="0 0 512 512" fill="none" xmlns="http://www.w3.org/2000/svg">
<g clip-path="url(#clip0)">
<path d="M109.723 274.286C114.773 274.286 118.866 270.192 118.866 265.143C118.866 260.093 114.773 256 109.723 256C104.674 256 100.581 260.093 100.581 265.143C100.581 270.192 104.674 274.286 109.723 274.286Z" fill="white"/>
<path d="M192.622 429.714C189.855 429.575 187.198 430.814 185.527 433.024L165.687 457.061C180.746 456.648 195.568 453.209 209.271 446.949L199.57 433.481C197.981 431.196 195.404 429.798 192.622 429.714V429.714Z" fill="white"/>
<path d="M256.009 127.991C266.103 127.991 274.286 119.808 274.286 109.714C274.286 99.6204 266.103 91.4377 256.009 91.4377C245.915 91.4377 237.733 99.6204 237.733 109.714C237.733 119.808 245.915 127.991 256.009 127.991Z" fill="white"/>
<path d="M319.378 429.714C316.588 429.803 314.004 431.207 312.412 433.499L302.729 446.939C316.434 453.193 331.255 456.635 346.313 457.061L326.482 433.042C324.797 430.843 322.147 429.601 319.378 429.714V429.714Z" fill="white"/>
<path d="M45.7234 256C50.7729 256 54.8663 251.907 54.8663 246.857C54.8663 241.808 50.7729 237.714 45.7234 237.714C40.674 237.714 36.5806 241.808 36.5806 246.857C36.5806 251.907 40.674 256 45.7234 256Z" fill="white"/>
<path d="M488.055 110.016L511.707 11.4011C512.506 8.29794 511.622 5.00323 509.376 2.71698C507.131 0.430737 503.853 -0.513351 500.736 0.22857L398.857 21.9429C434.941 44.0841 465.458 74.2162 488.055 110.016V110.016Z" fill="white"/>
<path d="M23.9633 110.025C46.5569 74.22 77.0744 44.0841 113.161 21.9429L11.3645 0.256007C8.20832 -0.520762 4.87706 0.436495 2.61475 2.77029C0.384409 5.00926 -0.5015 8.25758 0.283324 11.3189L23.9633 110.025Z" fill="white"/>
<path d="M402.295 274.286C407.344 274.286 411.438 270.192 411.438 265.143C411.438 260.093 407.344 256 402.295 256C397.245 256 393.152 260.093 393.152 265.143C393.152 270.192 397.245 274.286 402.295 274.286Z" fill="white"/>
<path d="M466.295 256C471.344 256 475.438 251.907 475.438 246.857C475.438 241.808 471.344 237.714 466.295 237.714C461.245 237.714 457.152 241.808 457.152 246.857C457.152 251.907 461.245 256 466.295 256Z" fill="white"/>
<path d="M256 0C114.615 0 0 114.615 0 256C0 397.385 114.615 512 256 512C397.385 512 512 397.385 512 256C511.839 114.682 397.318 0.16123 256 0ZM45.7143 274.286C30.5659 274.286 18.2857 262.006 18.2857 246.857C18.2857 231.709 30.5659 219.429 45.7143 219.429C60.8627 219.429 73.1429 231.709 73.1429 246.857C73.1429 262.006 60.8627 274.286 45.7143 274.286ZM256 18.2857C331.706 18.3714 393.057 79.7222 393.143 155.429C393.207 176.167 388.516 196.645 379.429 215.287C378.433 217.337 376.708 218.941 374.592 219.785C344.686 231.68 304.823 237.714 256 237.714C207.177 237.714 167.314 231.68 137.417 219.785C135.301 218.941 133.576 217.337 132.581 215.287C123.49 196.646 118.796 176.168 118.857 155.429C118.943 79.7222 180.294 18.3714 256 18.2857V18.2857ZM82.2857 265.143C82.2857 249.994 94.5659 237.714 109.714 237.714C124.863 237.714 137.143 249.994 137.143 265.143C137.143 280.291 124.863 292.571 109.714 292.571C94.5659 292.571 82.2857 280.291 82.2857 265.143ZM392.302 437.669C391.043 446.769 386.996 455.255 380.718 461.961C371.854 470.493 360.051 475.291 347.749 475.365C326.071 474.673 304.799 469.299 285.394 459.611C276.022 456.039 266.022 454.409 256 454.821C245.978 454.409 235.978 456.039 226.606 459.611C208.074 468.731 187.926 474.106 167.314 475.429C166.281 475.429 165.266 475.429 164.242 475.365C151.94 475.291 140.137 470.493 131.273 461.961C124.994 455.257 120.949 446.769 119.698 437.669C117.41 416.616 121.894 395.382 132.498 377.051C156.288 330.79 203.944 301.71 255.963 301.71C307.983 301.71 355.638 330.79 379.429 377.051C390.056 395.374 394.565 416.608 392.302 437.669ZM402.286 292.571C387.137 292.571 374.857 280.291 374.857 265.143C374.857 249.994 387.137 237.714 402.286 237.714C417.434 237.714 429.714 249.994 429.714 265.143C429.714 280.291 417.434 292.571 402.286 292.571ZM466.286 274.286C451.137 274.286 438.857 262.006 438.857 246.857C438.857 231.709 451.137 219.429 466.286 219.429C481.434 219.429 493.714 231.709 493.714 246.857C493.714 262.006 481.434 274.286 466.286 274.286Z" fill="white"/>
<path d="M256 320C210.9 320.239 169.637 345.419 148.8 385.417C140.09 400.331 136.233 417.585 137.765 434.789C138.468 440.152 140.786 445.174 144.411 449.189C145.174 449.898 145.987 450.552 146.843 451.145L171.41 421.385C176.682 414.814 184.751 411.122 193.17 411.429C201.624 411.688 209.472 415.877 214.391 422.757L226.972 440.219C236.423 437.614 246.198 436.373 256 436.535C265.804 436.385 275.579 437.638 285.029 440.256L297.591 422.821C302.501 415.913 310.359 411.698 318.83 411.429C327.271 411.137 335.349 414.869 340.599 421.486L365.157 451.227C366.015 450.637 366.828 449.983 367.589 449.271C371.213 445.255 373.534 440.234 374.245 434.871C375.768 417.667 371.909 400.415 363.2 385.499C342.385 345.469 301.118 320.255 256 320V320Z" fill="white"/>
</g>
<defs>
<clipPath id="clip0">
<rect width="512" height="512" fill="white"/>
</clipPath>
</defs>
</svg>
