<svg width="512" height="512" viewBox="0 0 512 512" fill="none" xmlns="http://www.w3.org/2000/svg">
<g clip-path="url(#clip0)">
<path d="M137.143 301.714H182.857V347.429H137.143V301.714Z" fill="white"/>
<path d="M246.857 328.814C225.673 327.314 210.341 320.411 201.143 308.279V347.429H246.857V328.814Z" fill="white"/>
<path d="M310.857 308.279C301.659 320.411 286.327 327.314 265.143 328.814V347.429H310.857V308.279Z" fill="white"/>
<path d="M512 91.4286C511.965 71.535 499.068 53.948 480.105 47.934C461.143 41.92 440.468 48.8599 428.974 65.0971C449.221 86.0563 466.992 109.273 481.938 134.29C499.922 127.677 511.907 110.59 512 91.4286V91.4286ZM464 73.1429C464 68.0934 468.093 64 473.143 64C478.192 64 482.286 68.0934 482.286 73.1429C481.411 80.4931 484.09 87.8204 489.499 92.8731C493.603 95.6778 494.764 101.219 492.133 105.435C490.467 108.073 487.572 109.679 484.452 109.696C482.84 109.691 481.259 109.246 479.881 108.407C468.785 100.238 462.763 86.8659 464 73.1429V73.1429Z" fill="white"/>
<path d="M30.0616 134.29C45.0074 109.273 62.7789 86.0563 83.0262 65.0971C71.7249 48.9235 51.3219 41.8257 32.4225 47.4932C13.5231 53.1607 0.392631 70.3145 -0.143852 90.0381C-0.680335 109.762 11.4983 127.604 30.0616 134.29ZM22.5279 92.8549C27.8991 87.7859 30.5629 80.4793 29.7142 73.1429C29.7142 68.0934 33.8076 64 38.8571 64C43.9065 64 47.9999 68.0934 47.9999 73.1429C49.2413 86.8625 43.2263 100.234 32.1371 108.407C27.8611 110.838 22.4281 109.45 19.8415 105.267C17.255 101.083 18.442 95.6025 22.5279 92.864V92.8549Z" fill="white"/>
<path d="M256 173.714C266.099 173.714 274.286 165.528 274.286 155.429C274.286 145.33 266.099 137.143 256 137.143C245.901 137.143 237.714 145.33 237.714 155.429C237.714 165.528 245.901 173.714 256 173.714Z" fill="white"/>
<path d="M118.857 301.714H86.1257C83.3378 301.683 80.6968 302.962 78.9943 305.17C77.2303 307.442 76.6222 310.405 77.3486 313.189C80.3067 324.883 84.1674 336.331 88.896 347.429H118.857V301.714Z" fill="white"/>
<path d="M329.143 301.714H374.857V347.429H329.143V301.714Z" fill="white"/>
<path d="M410.578 71.2137C368.21 29.0377 315.063 0 256 0C196.937 0 143.79 29.0377 101.422 71.2137C101.124 71.5406 100.803 71.8461 100.462 72.128C38.6103 134.272 0 224.375 0 292.571C0 413.559 114.843 512 256 512C397.157 512 512 413.559 512 292.571C512 224.375 473.39 134.272 411.538 72.1646C411.196 71.871 410.875 71.5532 410.578 71.2137V71.2137ZM207.909 58.7886C236.601 54.0908 265.826 53.6164 294.656 57.3806C297.965 57.7255 300.825 59.8403 302.124 62.9024C303.424 65.9645 302.958 69.4908 300.907 72.1101C298.856 74.7294 295.545 76.0283 292.261 75.5017C265.217 71.9769 237.804 72.4204 210.889 76.8183C210.391 76.9063 209.886 76.9491 209.381 76.9463C204.637 76.9195 200.703 73.27 200.319 68.5423C199.936 63.8147 203.232 59.579 207.909 58.7886V58.7886ZM132.434 120.165C170.552 100.35 213.051 90.4669 256 91.4286C298.949 90.4669 341.448 100.35 379.566 120.165C383.77 122.814 385.088 128.337 382.533 132.6C379.978 136.863 374.486 138.304 370.167 135.845C363.349 132.135 356.269 128.929 348.983 126.254C361.371 156.242 358.468 190.373 341.193 217.838C346.341 218.871 349.33 219.666 349.723 219.721C354.179 220.876 357.081 225.163 356.498 229.728C355.916 234.294 352.031 237.715 347.429 237.714C346.654 237.716 345.883 237.617 345.134 237.422C315.853 231.108 285.95 228.139 256 228.571C226.05 228.139 196.147 231.108 166.866 237.422C163.676 238.32 160.25 237.422 157.911 235.075C155.572 232.727 154.686 229.298 155.596 226.111C156.506 222.924 159.069 220.48 162.295 219.721C162.688 219.621 165.678 218.871 170.825 217.838C153.551 190.373 150.648 156.242 163.035 126.254C155.749 128.929 148.669 132.135 141.851 135.845C137.533 138.304 132.04 136.863 129.485 132.6C126.93 128.337 128.248 122.814 132.453 120.165H132.434ZM447.424 293.934C452.684 300.655 454.516 309.442 452.379 317.705C440.43 365.102 397.376 475.429 256 475.429C114.624 475.429 71.5703 365.102 59.6206 317.659C57.4964 309.412 59.324 300.645 64.5669 293.934C69.7337 287.276 77.6987 283.395 86.1257 283.429H192.183C191.699 276.323 192.448 269.187 194.395 262.336C195.941 257.526 201.092 254.88 205.902 256.425C210.711 257.97 213.358 263.122 211.813 267.931C208.926 277.7 210.252 288.23 215.47 296.978C222.235 306.185 235.886 310.857 256 310.857C276.114 310.857 289.765 306.194 296.539 296.987C301.76 288.227 303.086 277.684 300.197 267.904C298.662 263.092 301.318 257.946 306.13 256.411C310.942 254.876 316.088 257.533 317.623 262.345C319.563 269.194 320.306 276.327 319.817 283.429H425.874C434.299 283.394 442.262 287.276 447.424 293.934V293.934Z" fill="white"/>
<path d="M164.846 435.328C181.029 409.774 216.183 393.143 256 393.143C295.817 393.143 330.971 409.774 347.154 435.328C375.746 419.039 399.053 394.875 414.299 365.714H97.7097C112.95 394.877 136.254 419.042 164.846 435.328V435.328Z" fill="white"/>
<path d="M256 411.429C223.863 411.429 194.798 424.229 181.431 443.319C205.129 452.809 230.474 457.508 256 457.143C281.525 457.508 306.87 452.809 330.569 443.319C317.202 424.229 288.137 411.429 256 411.429Z" fill="white"/>
<path d="M434.651 313.198C435.378 310.412 434.77 307.446 433.006 305.17C431.303 302.962 428.662 301.683 425.874 301.714H393.143V347.429H423.104C427.832 336.334 431.693 324.889 434.651 313.198Z" fill="white"/>
</g>
<defs>
<clipPath id="clip0">
<rect width="512" height="512" fill="white"/>
</clipPath>
</defs>
</svg>
