<svg width="512" height="512" viewBox="0 0 512 512" fill="none" xmlns="http://www.w3.org/2000/svg">
<g clip-path="url(#clip0)">
<path d="M138.432 356.571H164.572V330.441C151.633 333.533 141.529 343.634 138.432 356.571Z" fill="white"/>
<path d="M164.571 400.987V374.857H138.441C141.786 387.651 151.777 397.642 164.571 400.987Z" fill="white"/>
<path d="M182.857 374.857H219.428V402.286H182.857V374.857Z" fill="white"/>
<path d="M182.857 329.143V356.571H219.428V331.566C217.764 330.807 216.128 330.021 214.61 329.143H182.857Z" fill="white"/>
<path d="M512 91.4286C511.965 71.535 499.068 53.948 480.105 47.934C461.143 41.92 440.468 48.8599 428.974 65.0971C449.221 86.0563 466.992 109.273 481.938 134.29C499.922 127.677 511.907 110.59 512 91.4286V91.4286ZM464 73.1429C464 68.0934 468.093 64 473.143 64C478.192 64 482.286 68.0934 482.286 73.1429C481.411 80.4931 484.09 87.8204 489.499 92.8731C493.603 95.6778 494.764 101.219 492.133 105.435C490.467 108.073 487.572 109.679 484.452 109.696C482.84 109.691 481.259 109.246 479.881 108.407C468.785 100.238 462.763 86.8659 464 73.1429V73.1429Z" fill="white"/>
<path d="M237.714 374.857H274.286V402.286H237.714V374.857Z" fill="white"/>
<path d="M256 182.857C266.099 182.857 274.286 174.67 274.286 164.571C274.286 154.473 266.099 146.286 256 146.286C245.901 146.286 237.714 154.473 237.714 164.571C237.714 174.67 245.901 182.857 256 182.857Z" fill="white"/>
<path d="M30.0616 134.29C45.0074 109.273 62.7789 86.0563 83.0262 65.0971C71.7249 48.9235 51.3219 41.8257 32.4225 47.4932C13.5231 53.1607 0.392631 70.3145 -0.143852 90.0381C-0.680335 109.762 11.4983 127.604 30.0616 134.29ZM22.5279 92.8549C27.8991 87.7859 30.5629 80.4793 29.7142 73.1429C29.7142 68.0934 33.8076 64 38.8571 64C43.9065 64 47.9999 68.0934 47.9999 73.1429C49.2413 86.8625 43.2263 100.234 32.1371 108.407C27.8611 110.838 22.4281 109.45 19.8415 105.267C17.255 101.083 18.442 95.6025 22.5279 92.864V92.8549Z" fill="white"/>
<path d="M347.429 400.987C360.368 397.895 370.472 387.795 373.568 374.857H347.429V400.987Z" fill="white"/>
<path d="M237.714 336.942V356.571H274.286V336.942C262.161 338.734 249.839 338.734 237.714 336.942Z" fill="white"/>
<path d="M410.578 71.2137C368.21 29.0377 315.063 0 256 0C196.937 0 143.79 29.0377 101.422 71.2137C101.124 71.5406 100.803 71.8461 100.462 72.128C38.6103 134.272 0 224.375 0 292.571C0 413.559 114.843 512 256 512C397.157 512 512 413.559 512 292.571C512 224.375 473.39 134.272 411.538 72.1646C411.196 71.871 410.875 71.5532 410.578 71.2137V71.2137ZM207.909 58.7886C236.601 54.0916 265.826 53.6172 294.656 57.3806C297.965 57.7255 300.825 59.8403 302.124 62.9024C303.424 65.9645 302.958 69.4908 300.907 72.1101C298.856 74.7294 295.545 76.0283 292.261 75.5017C265.217 71.9769 237.804 72.4204 210.889 76.8183C210.391 76.9063 209.886 76.9491 209.381 76.9463C204.637 76.9195 200.703 73.27 200.319 68.5423C199.936 63.8147 203.232 59.579 207.909 58.7886V58.7886ZM155.429 164.571C155.409 151.424 157.988 138.402 163.017 126.254C155.731 128.929 148.651 132.135 141.833 135.845C137.514 138.304 132.022 136.863 129.467 132.6C126.912 128.337 128.23 122.814 132.434 120.165C170.552 100.35 213.051 90.4669 256 91.4286C298.949 90.4669 341.448 100.35 379.566 120.165C383.77 122.814 385.088 128.337 382.533 132.6C379.978 136.863 374.486 138.304 370.167 135.845C363.349 132.135 356.269 128.929 348.983 126.254C360.749 154.789 358.76 187.146 343.589 214.025C352.763 210.942 361.655 207.076 370.167 202.469C374.486 200.009 379.978 201.45 382.533 205.713C385.088 209.976 383.77 215.499 379.566 218.149C341.445 237.953 298.947 247.827 256 246.857C213.051 247.819 170.552 237.936 132.434 218.121C128.23 215.471 126.912 209.948 129.467 205.685C132.022 201.423 137.514 199.982 141.833 202.441C150.347 207.047 159.238 210.917 168.411 214.007C159.862 198.936 155.387 181.898 155.429 164.571V164.571ZM91.4286 365.714C91.4286 370.764 87.3352 374.857 82.2857 374.857C77.2363 374.857 73.1429 370.764 73.1429 365.714C72.4882 325.598 96.8667 289.311 134.254 274.752C137.357 273.713 140.778 274.409 143.229 276.577C145.681 278.745 146.789 282.056 146.137 285.263C145.485 288.469 143.172 291.085 140.069 292.123C109.886 303.852 90.3896 333.35 91.4286 365.714V365.714ZM283.429 466.286H228.571C223.522 466.286 219.429 462.192 219.429 457.143C219.429 452.093 223.522 448 228.571 448H283.429C288.478 448 292.571 452.093 292.571 457.143C292.571 462.192 288.478 466.286 283.429 466.286ZM377.152 404.507C366.842 414.808 352.86 420.588 338.286 420.571H173.714C143.418 420.571 118.857 396.011 118.857 365.714C118.857 335.418 143.418 310.857 173.714 310.857H197.038C191.522 298.461 190.586 284.51 194.395 271.488C195.395 268.377 197.978 266.035 201.173 265.345C204.367 264.655 207.687 265.721 209.881 268.143C212.076 270.564 212.812 273.972 211.813 277.083C208.926 286.852 210.252 297.382 215.47 306.13C222.235 315.337 235.886 320 256 320C276.114 320 289.765 315.337 296.539 306.13C301.76 297.37 303.086 286.827 300.197 277.047C298.662 272.235 301.318 267.089 306.13 265.554C310.942 264.019 316.088 266.676 317.623 271.488C321.427 284.512 320.484 298.463 314.962 310.857H338.286C360.463 310.878 380.45 324.237 388.951 344.721C397.452 365.204 392.797 388.789 377.152 404.507V404.507ZM438.857 365.714C438.857 370.764 434.764 374.857 429.714 374.857C424.665 374.857 420.571 370.764 420.571 365.714C421.626 333.336 402.127 303.82 371.931 292.087C367.134 290.481 364.547 285.291 366.153 280.494C367.759 275.697 372.949 273.11 377.746 274.715C415.146 289.279 439.527 325.585 438.857 365.714Z" fill="white"/>
<path d="M347.429 330.441V356.571H373.559C370.214 343.778 360.222 333.786 347.429 330.441Z" fill="white"/>
<path d="M292.571 374.857H329.143V402.286H292.571V374.857Z" fill="white"/>
<path d="M292.571 331.566V356.571H329.143V329.143H297.39C295.872 330.057 294.235 330.807 292.571 331.566Z" fill="white"/>
</g>
<defs>
<clipPath id="clip0">
<rect width="512" height="512" fill="white"/>
</clipPath>
</defs>
</svg>
