<svg width="512" height="512" viewBox="0 0 512 512" fill="none" xmlns="http://www.w3.org/2000/svg">
<g clip-path="url(#clip0)">
<path d="M488.045 110.025L511.689 11.4011C512.487 8.29794 511.603 5.00323 509.358 2.71698C507.113 0.430737 503.835 -0.513351 500.717 0.22857L398.848 21.9429C434.934 44.0849 465.451 74.2206 488.045 110.025V110.025Z" fill="white"/>
<path d="M45.7141 256C50.7636 256 54.857 251.907 54.857 246.857C54.857 241.808 50.7636 237.714 45.7141 237.714C40.6647 237.714 36.5713 241.808 36.5713 246.857C36.5713 251.907 40.6647 256 45.7141 256Z" fill="white"/>
<path d="M73.1429 192C78.1923 192 82.2857 187.907 82.2857 182.857C82.2857 177.808 78.1923 173.714 73.1429 173.714C68.0934 173.714 64 177.808 64 182.857C64 187.907 68.0934 192 73.1429 192Z" fill="white"/>
<path d="M109.714 274.286C114.764 274.286 118.857 270.192 118.857 265.143C118.857 260.093 114.764 256 109.714 256C104.665 256 100.571 260.093 100.571 265.143C100.571 270.192 104.665 274.286 109.714 274.286Z" fill="white"/>
<path d="M23.945 110.034C46.5391 74.224 77.0601 44.0846 113.152 21.9429L11.3553 0.256007C8.19916 -0.520762 4.8679 0.436495 2.60559 2.77029C0.376821 5.0064 -0.509093 8.25128 0.274164 11.3097L23.945 110.034Z" fill="white"/>
<path d="M438.857 192C443.907 192 448 187.907 448 182.857C448 177.808 443.907 173.714 438.857 173.714C433.808 173.714 429.714 177.808 429.714 182.857C429.714 187.907 433.808 192 438.857 192Z" fill="white"/>
<path d="M402.285 274.286C407.335 274.286 411.428 270.192 411.428 265.143C411.428 260.093 407.335 256 402.285 256C397.236 256 393.143 260.093 393.143 265.143C393.143 270.192 397.236 274.286 402.285 274.286Z" fill="white"/>
<path d="M256 182.857C271.148 182.857 283.428 170.577 283.428 155.429C283.428 140.28 271.148 128 256 128C240.851 128 228.571 140.28 228.571 155.429C228.571 170.577 240.851 182.857 256 182.857Z" fill="white"/>
<path d="M249.6 439.927L225.426 464.101C245.723 467.014 266.332 467.014 286.629 464.101L262.4 439.927C258.845 436.442 253.155 436.442 249.6 439.927V439.927Z" fill="white"/>
<path d="M416.347 329.143H389.486L360.037 363.52C354.84 369.625 347.217 373.13 339.2 373.102H338.341C330.017 372.856 322.257 368.835 317.257 362.176L292.571 329.143H219.429L194.743 362.139C189.737 368.822 181.96 372.86 173.614 373.111H172.754C164.749 373.121 157.144 369.615 151.954 363.52L122.514 329.143H95.6526C92.7748 329.143 90.0649 330.498 88.3383 332.8C86.6264 335.031 86.0672 337.938 86.8297 340.645C97.7097 379.694 126.967 440.603 203.666 460.014L236.645 426.971C247.347 416.312 264.653 416.312 275.355 426.971L308.352 459.968C385.051 440.558 414.309 379.648 425.189 340.599C425.951 337.892 425.392 334.985 423.68 332.754C421.94 330.464 419.224 329.126 416.347 329.143V329.143Z" fill="white"/>
<path d="M256 0C114.615 0 0 114.615 0 256C0 397.385 114.615 512 256 512C397.385 512 512 397.385 512 256C511.839 114.682 397.318 0.16123 256 0ZM438.857 155.429C454.006 155.429 466.286 167.709 466.286 182.857C466.286 198.006 454.006 210.286 438.857 210.286C423.709 210.286 411.429 198.006 411.429 182.857C411.429 167.709 423.709 155.429 438.857 155.429ZM429.714 265.143C429.714 280.291 417.434 292.571 402.286 292.571C387.137 292.571 374.857 280.291 374.857 265.143C374.857 249.994 387.137 237.714 402.286 237.714C417.434 237.714 429.714 249.994 429.714 265.143ZM256 18.2857C331.742 18.2857 393.143 79.6867 393.143 155.429C393.143 231.17 331.742 292.571 256 292.571C180.258 292.571 118.857 231.17 118.857 155.429C118.943 79.7222 180.294 18.3714 256 18.2857ZM137.143 265.143C137.143 280.291 124.863 292.571 109.714 292.571C94.5659 292.571 82.2857 280.291 82.2857 265.143C82.2857 249.994 94.5659 237.714 109.714 237.714C124.863 237.714 137.143 249.994 137.143 265.143ZM73.1429 155.429C88.2912 155.429 100.571 167.709 100.571 182.857C100.571 198.006 88.2912 210.286 73.1429 210.286C57.9945 210.286 45.7143 198.006 45.7143 182.857C45.7143 167.709 57.9945 155.429 73.1429 155.429ZM45.7143 274.286C30.5659 274.286 18.2857 262.006 18.2857 246.857C18.2857 231.709 30.5659 219.429 45.7143 219.429C60.8627 219.429 73.1429 231.709 73.1429 246.857C73.1429 262.006 60.8627 274.286 45.7143 274.286ZM442.807 345.536C431.159 387.346 389.641 484.571 256 484.571C122.359 484.571 80.8411 387.346 69.1931 345.536C66.9315 337.284 68.65 328.45 73.8399 321.648C79.0298 314.846 87.0966 310.855 95.6526 310.857H416.347C424.903 310.855 432.97 314.846 438.16 321.648C443.35 328.45 445.068 337.284 442.807 345.536ZM466.286 274.286C451.137 274.286 438.857 262.006 438.857 246.857C438.857 231.709 451.137 219.429 466.286 219.429C481.434 219.429 493.714 231.709 493.714 246.857C493.714 262.006 481.434 274.286 466.286 274.286Z" fill="white"/>
<path d="M173.065 354.807C175.856 354.731 178.459 353.384 180.133 351.15L196.571 329.143H146.56L165.815 351.625C167.653 353.69 170.301 354.852 173.065 354.807V354.807Z" fill="white"/>
<path d="M466.285 256C471.335 256 475.428 251.907 475.428 246.857C475.428 241.808 471.335 237.714 466.285 237.714C461.236 237.714 457.143 241.808 457.143 246.857C457.143 251.907 461.236 256 466.285 256Z" fill="white"/>
<path d="M338.935 354.807C341.681 354.822 344.304 353.669 346.149 351.634L365.413 329.143H315.429L331.886 351.186C333.563 353.402 336.157 354.734 338.935 354.807Z" fill="white"/>
</g>
<defs>
<clipPath id="clip0">
<rect width="512" height="512" fill="white"/>
</clipPath>
</defs>
</svg>
