<svg width="512" height="512" viewBox="0 0 512 512" fill="none" xmlns="http://www.w3.org/2000/svg">
<g clip-path="url(#clip0)">
<path d="M256 429.714C271.148 429.714 283.429 417.434 283.429 402.286C283.429 387.137 271.148 374.857 256 374.857C240.852 374.857 228.571 387.137 228.571 402.286C228.571 417.434 240.852 429.714 256 429.714Z" fill="white"/>
<path d="M256 228.105C330.167 203.675 356.571 150.83 356.571 112.622C356.571 84.224 339.474 54.8571 310.857 54.8571C292.73 54.8041 275.4 62.3046 263.031 75.5566C261.293 77.6377 258.721 78.8401 256.009 78.8388C253.299 78.8351 250.731 77.6295 248.997 75.5474C236.62 62.2909 219.279 54.793 201.143 54.8571C172.526 54.8571 155.429 84.224 155.429 112.622C155.429 150.857 181.833 203.675 256 228.105Z" fill="white"/>
<path d="M30.0617 134.29C45.0075 109.273 62.7789 86.0563 83.0263 65.0971C71.725 48.9234 51.322 41.8257 32.4226 47.4932C13.5232 53.1607 0.392715 70.3145 -0.143768 90.038C-0.680252 109.762 11.4984 127.604 30.0617 134.29ZM22.528 92.8548C27.8992 87.7859 30.5629 80.4793 29.7143 73.1428C29.7143 68.0934 33.8077 64 38.8571 64C43.9066 64 48 68.0934 48 73.1428C49.2413 86.8624 43.2264 100.234 32.1371 108.407C27.8612 110.838 22.4281 109.45 19.8416 105.267C17.255 101.083 18.4421 95.6025 22.528 92.864V92.8548Z" fill="white"/>
<path d="M512 91.4286C511.965 71.535 499.068 53.948 480.106 47.934C461.143 41.92 440.468 48.8599 428.974 65.0971C449.221 86.0563 466.993 109.273 481.938 134.29C499.92 127.675 511.904 110.589 512 91.4286V91.4286ZM464 73.1428C464 68.0934 468.093 64 473.143 64C478.192 64 482.286 68.0934 482.286 73.1428C481.411 80.4931 484.09 87.8204 489.499 92.8731C493.598 95.6806 494.759 101.218 492.133 105.435C490.467 108.073 487.572 109.679 484.453 109.696C482.84 109.692 481.258 109.246 479.881 108.407C468.785 100.238 462.763 86.8659 464 73.1428V73.1428Z" fill="white"/>
<path d="M410.578 71.2137C368.21 29.0377 315.063 -1.52588e-05 256 -1.52588e-05C196.937 -1.52588e-05 143.79 29.0377 101.422 71.2137C101.124 71.5406 100.803 71.8461 100.462 72.128C38.6103 134.272 -7.62939e-06 224.375 -7.62939e-06 292.571C-7.62939e-06 413.559 114.843 512 256 512C397.157 512 512 413.559 512 292.571C512 224.375 473.399 134.281 411.547 72.1737C411.2 71.8794 410.876 71.5585 410.578 71.2137V71.2137ZM201.143 36.5714C221.276 36.5934 240.736 43.8228 256 56.9508C271.264 43.8228 290.724 36.5934 310.857 36.5714C346.743 36.5714 374.857 69.9794 374.857 112.622C374.857 157.486 344.448 219.429 258.743 246.437C256.957 246.998 255.043 246.998 253.257 246.437C167.552 219.429 137.143 157.486 137.143 112.622C137.143 69.9794 165.257 36.5714 201.143 36.5714V36.5714ZM176.64 319.515C146.444 331.249 126.945 360.765 128 393.143C128 398.192 123.907 402.286 118.857 402.286C113.808 402.286 109.714 398.192 109.714 393.143C109.06 353.026 133.438 316.74 170.825 302.181C175.622 300.575 180.813 303.162 182.418 307.959C184.024 312.756 181.437 317.946 176.64 319.552V319.515ZM265.143 484.571H246.857C241.808 484.571 237.714 480.478 237.714 475.429C237.714 470.379 241.808 466.286 246.857 466.286H265.143C270.192 466.286 274.286 470.379 274.286 475.429C274.286 480.478 270.192 484.571 265.143 484.571ZM256 448C230.753 448 210.286 427.533 210.286 402.286C210.286 377.038 230.753 356.571 256 356.571C281.247 356.571 301.714 377.038 301.714 402.286C301.684 427.52 281.235 447.97 256 448V448ZM311.387 316.809C301.001 331.063 282.368 338.286 256 338.286C229.632 338.286 210.999 331.063 200.613 316.809C192.02 303.335 189.748 286.778 194.395 271.488C195.941 266.678 201.092 264.032 205.902 265.577C210.711 267.122 213.358 272.274 211.813 277.083C208.926 286.852 210.252 297.382 215.47 306.13C222.235 315.337 235.886 320 256 320C276.114 320 289.765 315.337 296.539 306.13C301.76 297.37 303.086 286.827 300.197 277.047C298.662 272.235 301.318 267.089 306.13 265.554C310.942 264.019 316.088 266.676 317.623 271.488C322.265 286.781 319.987 303.338 311.387 316.809V316.809ZM393.143 402.286C388.093 402.286 384 398.192 384 393.143C385.055 360.765 365.556 331.249 335.36 319.515C330.563 317.91 327.976 312.719 329.582 307.922C331.187 303.125 336.378 300.538 341.175 302.144C378.575 316.708 402.956 353.013 402.286 393.143C402.286 398.192 398.192 402.286 393.143 402.286Z" fill="white"/>
</g>
<defs>
<clipPath id="clip0">
<rect width="512" height="512" fill="white"/>
</clipPath>
</defs>
</svg>
