<svg width="512" height="512" viewBox="0 0 512 512" fill="none" xmlns="http://www.w3.org/2000/svg">
<g clip-path="url(#clip0)">
<path d="M109.714 256C119.813 256 128 247.813 128 237.714C128 227.615 119.813 219.429 109.714 219.429C99.6154 219.429 91.4286 227.615 91.4286 237.714C91.4286 247.813 99.6154 256 109.714 256Z" fill="white"/>
<path d="M171.493 202.986C164.071 174.957 138.709 155.437 109.714 155.437C80.7192 155.437 55.3573 174.957 47.9351 202.986C65.6636 189.491 87.4388 182.397 109.714 182.857C131.99 182.397 153.765 189.491 171.493 202.986Z" fill="white"/>
<path d="M317.779 93.2718C310.357 65.2428 284.995 45.7228 256 45.7228C227.005 45.7228 201.643 65.2428 194.221 93.2718C211.949 79.7771 233.725 72.6823 256 73.1429C278.275 72.6823 300.051 79.7771 317.779 93.2718Z" fill="white"/>
<path d="M256 146.286C266.099 146.286 274.286 138.099 274.286 128C274.286 117.901 266.099 109.714 256 109.714C245.901 109.714 237.714 117.901 237.714 128C237.714 138.099 245.901 146.286 256 146.286Z" fill="white"/>
<path d="M488.969 325.688C485.091 322.453 484.569 316.687 487.803 312.808C491.038 308.93 496.804 308.408 500.683 311.643C502.189 312.9 503.556 314.278 504.957 315.626C523.217 239.396 505.545 159.001 457 97.4551C408.454 35.9094 334.387 -0.00222892 256 -1.50641e-05C177.612 -0.00306878 103.544 35.9082 54.9981 97.454C6.45197 159 -11.2204 239.395 7.03998 315.626C8.44158 314.278 9.80843 312.9 11.3143 311.643C15.1928 308.407 20.9597 308.928 24.1952 312.807C27.4306 316.685 26.9093 322.452 23.0308 325.688C4.95097 340.774 -3.38447 364.569 1.32941 387.64C6.04329 410.71 23.045 429.329 45.5936 436.114C68.1422 442.898 92.5951 436.753 109.257 420.114C112.84 416.621 118.566 416.657 122.105 420.196C125.643 423.734 125.679 429.46 122.186 433.043C113.606 441.614 103.23 448.172 91.8071 452.243C186.773 531.918 325.233 531.918 420.198 452.243C408.775 448.172 398.399 441.614 389.819 433.043C386.395 429.451 386.462 423.782 389.971 420.271C393.48 416.761 399.149 416.691 402.743 420.114C419.405 436.753 443.858 442.898 466.406 436.114C488.955 429.329 505.957 410.71 510.671 387.64C515.384 364.569 507.049 340.774 488.969 325.688V325.688ZM256 27.4286C301.445 27.4286 338.286 64.2691 338.286 109.714C338.286 155.159 301.445 192 256 192C210.555 192 173.714 155.159 173.714 109.714C173.765 64.29 210.576 27.4789 256 27.4286ZM27.4285 219.429C27.4285 173.983 64.2691 137.143 109.714 137.143C155.159 137.143 192 173.983 192 219.429C192 264.874 155.159 301.714 109.714 301.714C64.29 301.664 27.4789 264.853 27.4285 219.429ZM283.429 411.429H228.571C223.522 411.429 219.429 407.335 219.429 402.286C219.429 397.236 223.522 393.143 228.571 393.143H283.429C288.478 393.143 292.571 397.236 292.571 402.286C292.571 407.335 288.478 411.429 283.429 411.429ZM469.179 383.531C466.883 384.301 464.375 384.127 462.207 383.048C460.04 381.969 458.39 380.072 457.62 377.776C456.96 375.839 440.915 330.416 394.648 338.16C380.442 340.431 366.579 344.486 353.389 350.229C333.714 358.192 315.134 365.714 256 365.714C196.866 365.714 178.286 358.192 158.611 350.228C145.421 344.485 131.558 340.43 117.352 338.16C71.0226 330.437 55.0354 375.838 54.3799 377.776C52.7749 382.564 47.5922 385.144 42.8041 383.539C38.0159 381.934 35.4355 376.752 37.0404 371.963C44.2185 350.427 70.8078 311.843 120.362 320.123C135.889 322.608 151.044 327.028 165.473 333.279C183.447 340.558 200.424 347.429 256 347.429C311.576 347.429 328.553 340.558 346.527 333.281C360.956 327.03 376.111 322.61 391.638 320.125C441.161 311.862 467.781 350.428 474.96 371.965C475.727 374.266 475.549 376.776 474.464 378.945C473.38 381.114 471.479 382.764 469.179 383.531V383.531ZM402.286 301.714C356.841 301.714 320 264.874 320 219.429C320 173.983 356.841 137.143 402.286 137.143C447.731 137.143 484.571 173.983 484.571 219.429C484.46 264.827 447.685 301.603 402.286 301.714Z" fill="white"/>
<path d="M402.286 256C412.385 256 420.571 247.813 420.571 237.714C420.571 227.615 412.385 219.429 402.286 219.429C392.187 219.429 384 227.615 384 237.714C384 247.813 392.187 256 402.286 256Z" fill="white"/>
<path d="M402.286 155.429C373.306 155.481 347.971 174.984 340.506 202.986C377.32 176.147 427.251 176.147 464.065 202.986C456.601 174.984 431.266 155.481 402.286 155.429Z" fill="white"/>
</g>
<defs>
<clipPath id="clip0">
<rect width="512" height="512" fill="white"/>
</clipPath>
</defs>
</svg>
