<svg width="512" height="512" viewBox="0 0 512 512" fill="none" xmlns="http://www.w3.org/2000/svg">
<g clip-path="url(#clip0)">
<path d="M436.882 403.986C427.923 377.605 417.596 351.707 405.943 326.4C405.138 324.571 404.352 322.743 403.547 320.914C393.362 315.429 375.982 306.642 354.962 297.993L338.505 330.907C335.434 337.12 329.097 341.046 322.167 341.029C321.637 341.029 321.097 341.029 320.567 340.955C313.086 340.339 306.751 335.195 304.613 328L289.554 277.778C278.499 275.594 267.268 274.425 256 274.286C244.732 274.425 233.501 275.594 222.446 277.778L207.387 327.973C205.252 335.171 198.916 340.32 191.433 340.937C190.903 340.983 190.363 341.01 189.833 341.01C182.909 341.023 176.58 337.097 173.513 330.889L157.056 297.975C136.027 306.624 118.656 315.438 108.471 320.896C107.666 322.725 106.88 324.553 106.075 326.382C94.4157 351.689 84.0825 377.586 75.1177 403.968C74.048 407.296 72.8228 410.725 71.5794 414.226C65.9474 430.007 60.1234 446.327 67.5017 459.456C68.2994 460.758 69.2177 461.983 70.2445 463.113C81.6121 445.569 95.4716 429.773 111.387 416.219L116.663 373.979C117.526 367.045 122.266 361.209 128.877 358.942C135.487 356.675 142.811 358.374 147.749 363.319L166.949 382.519C195.239 371.119 225.5 365.409 256 365.714C286.519 365.407 316.8 371.124 345.106 382.537L364.306 363.337C369.244 358.392 376.568 356.693 383.178 358.96C389.788 361.227 394.529 367.063 395.392 373.998L400.667 416.238C416.583 429.791 430.443 445.588 441.81 463.131C442.821 461.999 443.724 460.775 444.507 459.474C451.886 446.345 446.062 430.025 440.43 414.245C439.177 410.743 437.943 407.314 436.882 403.986V403.986Z" fill="white"/>
<path d="M394.277 438.784C393.901 438.835 393.522 438.859 393.143 438.857C388.536 438.851 384.653 435.419 384.082 430.848L377.253 376.256L344.759 408.75C341.189 412.319 335.401 412.319 331.831 408.75C328.601 405.474 328.345 400.296 331.237 396.718C307.104 388.073 281.633 383.767 256 384C230.37 383.768 204.902 388.074 180.773 396.718C183.664 400.296 183.408 405.474 180.178 408.75C176.608 412.319 170.821 412.319 167.25 408.75L134.757 376.256L127.927 430.848C127.355 435.423 123.467 438.856 118.857 438.857C118.475 438.86 118.093 438.835 117.714 438.784C116.666 438.628 115.654 438.288 114.725 437.778C103.701 448.326 93.938 460.117 85.632 472.914C86.464 473.179 87.232 473.545 88.1005 473.765C106.138 478.193 125.187 473.076 138.578 460.206C153.266 445.665 170.257 433.654 188.864 424.658C210.188 416.112 233.035 412.015 256 412.617C278.944 412.021 301.768 416.118 323.072 424.658C341.629 433.604 358.577 445.56 373.23 460.041C386.643 473.006 405.769 478.183 423.89 473.755C424.759 473.536 425.527 473.17 426.359 472.905C418.053 460.107 408.29 448.317 397.266 437.769C396.338 438.282 395.325 438.625 394.277 438.784V438.784Z" fill="white"/>
<path d="M423.314 182.235C427.438 219.941 431.89 228.242 432.741 229.531C436.312 235.067 442.586 238.254 449.163 237.873C455.741 237.492 461.604 233.602 464.513 227.691C467.422 221.779 466.925 214.76 463.214 209.317C462.382 208.037 456.466 200.713 423.314 182.235V182.235Z" fill="white"/>
<path d="M471.68 392.832C470.942 390.521 471.153 388.012 472.266 385.856C473.378 383.701 475.302 382.076 477.614 381.339C478.138 381.236 478.67 381.178 479.205 381.166C524.918 299.81 522.703 200.016 473.426 120.768C471.365 117.455 471.633 113.199 474.094 110.171C482.598 100.763 494.045 94.522 506.56 92.4709C473.518 39.3508 425.28 52.4983 423.104 53.1566C419.333 54.236 415.295 52.7903 413.065 49.5635C410.836 46.3366 410.913 42.0474 413.257 38.9029C422.669 25.5852 434.883 14.4909 449.042 6.39999C415.097 -4.0915 378.459 -1.54204 346.295 13.5497C344.078 14.5974 341.54 14.7417 339.218 13.952C285.292 -4.53574 226.744 -4.53574 172.818 13.952C170.497 14.7427 167.959 14.5984 165.742 13.5497C133.568 -1.55747 96.913 -4.10721 62.9577 6.39999C77.1165 14.4909 89.3312 25.5852 98.7428 38.9029C101.077 42.0535 101.142 46.3416 98.9049 49.5618C96.6678 52.7819 92.6264 54.2171 88.8594 53.1291C86.7108 52.5348 38.2994 39.7714 5.41253 92.4434C17.9234 94.4993 29.3663 100.74 37.8697 110.144C40.3304 113.172 40.5985 117.428 38.5371 120.741C-10.7393 200.002 -12.9398 299.809 32.7954 381.166C33.3297 381.178 33.8619 381.236 34.3862 381.339C36.6976 382.076 38.6214 383.701 39.7343 385.856C40.8472 388.012 41.0579 390.521 40.32 392.832C39.4057 395.721 38.3268 398.702 37.248 401.728C29.9337 422.135 20.1234 449.755 35.6662 477.413C45.2469 493.52 60.9847 505.021 79.2411 509.257C109.088 516.599 140.624 508.373 163.081 487.387C167.963 483.045 172.535 478.976 177.024 475.264C180.915 472.045 186.678 472.589 189.897 476.48C193.116 480.371 192.572 486.134 188.681 489.353C184.905 492.471 181.019 495.936 177.033 499.483C228.379 516.002 283.612 516.002 334.958 499.483C330.953 495.918 327.077 492.453 323.319 489.353C320.802 487.271 319.587 484.004 320.132 480.783C320.677 477.562 322.899 474.877 325.961 473.739C329.023 472.6 332.459 473.182 334.976 475.264C339.465 478.976 344.037 483.045 348.827 487.305C371.29 508.349 402.871 516.605 432.759 509.248C451.017 505.017 466.758 493.519 476.343 477.413C491.886 449.755 482.039 422.135 474.843 401.966C473.673 398.702 472.603 395.721 471.68 392.832V392.832ZM406.373 128.96C410.892 131.215 412.728 136.706 410.473 141.225C408.219 145.744 402.727 147.58 398.208 145.326C395.465 143.973 330.898 112.75 290.45 161.28C288.387 163.88 285.078 165.158 281.803 164.619C278.528 164.08 275.803 161.808 274.682 158.685C273.562 155.561 274.222 152.075 276.407 149.577C326.171 89.8377 405.577 128.567 406.373 128.96ZM266.057 90.688C268.2 86.1206 273.638 84.1526 278.208 86.2903C316.946 104.43 348.361 68.7177 349.678 67.1909C351.801 64.7084 355.087 63.5472 358.299 64.1446C361.51 64.7421 364.159 67.0075 365.247 70.0875C366.336 73.1675 365.698 76.5941 363.575 79.0766C347.547 97.5377 324.623 108.583 300.197 109.614C289.903 109.594 279.744 107.283 270.455 102.848C268.259 101.819 266.562 99.9594 265.737 97.6789C264.913 95.3984 265.028 92.8837 266.057 90.688ZM149.495 66.1851C153.333 62.9111 159.099 63.3653 162.377 67.2C163.776 68.8183 195.136 104.43 233.838 86.2903C238.391 84.2526 243.737 86.2408 245.852 90.7584C247.968 95.2761 246.072 100.655 241.591 102.848C232.3 107.278 222.142 109.589 211.849 109.614C187.423 108.583 164.499 97.5377 148.471 79.0766C146.897 77.2314 146.12 74.8365 146.312 72.4187C146.504 70.001 147.649 67.7586 149.495 66.1851ZM105.609 128.96C106.405 128.567 185.81 89.8377 235.575 149.577C237.76 152.075 238.42 155.561 237.299 158.685C236.179 161.808 233.453 164.08 230.179 164.619C226.904 165.158 223.594 163.88 221.531 161.28C181.083 112.75 116.498 143.982 113.774 145.326C109.254 147.58 103.763 145.744 101.509 141.225C99.2539 136.706 101.09 131.215 105.609 128.96V128.96ZM28.16 226.679C26.2213 217.186 28.1533 207.312 33.5268 199.25C35.3554 196.434 41.0697 187.877 79.7714 166.336C85.7457 163.006 93.0793 163.288 98.7799 167.068C104.481 170.848 107.595 177.493 106.853 184.293C102.025 228.334 96.3474 236.901 94.4822 239.707C89.1403 247.812 80.7779 253.441 71.2594 255.342C68.8519 255.831 66.4017 256.079 63.9451 256.082C46.5395 256.046 31.5714 243.747 28.16 226.679V226.679ZM460.434 468.443C456.64 474.865 451.336 480.263 444.983 484.169C444.717 484.438 444.432 484.688 444.133 484.919C443.655 485.166 443.156 485.371 442.642 485.531C438.171 488.164 433.36 490.169 428.343 491.493C422.605 492.951 416.709 493.697 410.789 493.714C392.39 493.489 374.735 486.423 361.262 473.893C348.016 460.681 332.689 449.734 315.895 441.49C296.856 433.931 276.477 430.329 256 430.903C235.525 430.323 215.145 433.919 196.105 441.472C179.38 449.672 164.116 460.563 150.921 473.71C133.01 490.739 107.644 497.445 83.6571 491.493C78.6403 490.169 73.8289 488.164 69.3577 485.531C68.8439 485.371 68.3452 485.166 67.8674 484.919C67.5675 484.688 67.2834 484.438 67.0171 484.169C60.6636 480.263 55.3596 474.865 51.5657 468.443C40.1005 448.046 48 425.902 54.3542 408.101C55.5337 404.791 56.6948 401.554 57.7005 398.409C66.852 371.418 77.4113 344.926 89.3348 319.04C92.3276 312.226 95.3021 305.417 98.2582 298.615C139.794 202.249 251.273 201.143 256 201.143C260.727 201.143 372.206 202.249 413.742 298.615C416.686 305.423 419.66 312.232 422.665 319.04C434.589 344.926 445.148 371.418 454.299 398.409C455.305 401.554 456.466 404.809 457.646 408.101C464 425.902 471.899 448.046 460.434 468.443V468.443ZM468.206 249.929C462.25 253.905 455.252 256.03 448.091 256.037C445.635 256.033 443.185 255.785 440.777 255.296C431.259 253.396 422.896 247.766 417.554 239.662C415.726 236.855 410.011 228.288 405.184 184.256C404.435 177.452 407.549 170.8 413.254 167.017C418.958 163.234 426.298 162.953 432.274 166.29C470.967 187.867 476.645 196.462 478.51 199.205C489.671 216.037 485.074 238.73 468.242 249.893L468.206 249.929Z" fill="white"/>
<path d="M67.6571 237.349C72.4164 236.398 76.5976 233.583 79.2686 229.531C80.1189 228.242 84.5714 219.941 88.6949 182.235C55.5611 200.713 49.6457 208.037 48.7954 209.317C44.7068 215.479 44.7329 223.498 48.8616 229.634C52.9902 235.77 60.4083 238.814 67.6571 237.349Z" fill="white"/>
<path d="M147.246 278.373C144.989 273.853 146.822 268.36 151.342 266.103C155.861 263.846 161.354 265.68 163.611 270.199L189.87 322.743L206.72 266.56L210.661 253.413C212.315 248.959 217.104 246.515 221.681 247.788C226.258 249.061 229.097 253.627 228.215 258.295C237.408 256.849 246.694 256.082 256 256C265.302 256.069 274.586 256.827 283.776 258.267C282.883 253.596 285.72 249.02 290.302 247.743C294.884 246.466 299.679 248.916 301.33 253.376L322.13 322.743L348.343 270.199C350.6 265.68 356.093 263.846 360.613 266.103C365.132 268.36 366.966 273.853 364.709 278.373L363.099 281.582C373.422 285.861 382.885 290.158 391.077 294.107C350.427 220.617 256.978 219.429 256 219.429C255.022 219.429 161.582 220.617 120.887 294.107C129.115 290.158 138.542 285.879 148.864 281.582L147.246 278.373Z" fill="white"/>
</g>
<defs>
<clipPath id="clip0">
<rect width="512" height="512" fill="white"/>
</clipPath>
</defs>
</svg>
