<svg width="512" height="512" viewBox="0 0 512 512" fill="none" xmlns="http://www.w3.org/2000/svg">
<g clip-path="url(#clip0)">
<path d="M303.616 402.286C299.984 402.426 296.797 404.749 295.552 408.165L292.123 417.307C299.689 415.947 307.146 414.034 314.432 411.584L312.274 407.278C310.682 403.998 307.252 402.021 303.616 402.286V402.286Z" fill="white"/>
<path d="M228.571 206.409C228.571 185.847 216.594 164.571 196.571 164.571C183.625 164.573 171.269 169.99 162.496 179.511C160.755 181.622 158.165 182.849 155.429 182.857C152.71 182.847 150.136 181.627 148.407 179.529C139.627 169.989 127.251 164.564 114.286 164.571C94.2628 164.571 82.2856 185.847 82.2856 206.409C82.2856 234.67 101.486 273.737 155.429 292.087C209.371 273.737 228.571 234.67 228.571 206.409Z" fill="white"/>
<path d="M208.384 402.286C204.741 402.02 201.306 404.011 199.726 407.305L197.568 411.611C204.854 414.062 212.311 415.975 219.877 417.335L216.448 408.192C215.212 404.766 212.023 402.43 208.384 402.286V402.286Z" fill="white"/>
<path d="M256 329.143C196.736 329.143 155.429 353.234 155.429 374.857C155.429 385.079 164.745 395.822 180.745 404.343L183.369 399.113C188.247 389.362 198.438 383.425 209.327 383.992C220.215 384.56 229.734 391.522 233.573 401.728L240.384 419.931C245.449 420.306 250.624 420.571 256 420.571C261.376 420.571 266.551 420.306 271.616 419.931L278.427 401.728C282.266 391.522 291.785 384.56 302.674 383.992C313.562 383.425 323.753 389.362 328.631 399.113L331.255 404.343C347.255 395.822 356.571 385.079 356.571 374.857C356.571 353.234 315.264 329.143 256 329.143V329.143Z" fill="white"/>
<path d="M486.208 144.119C480.311 151.253 473.488 157.569 465.92 162.898C461.795 165.812 456.088 164.829 453.175 160.704C450.261 156.579 451.244 150.872 455.369 147.959C496.247 119.077 497.07 69.7966 490.167 32.64C489.488 29.0697 486.759 26.2405 483.215 25.4334C479.672 24.6263 475.987 25.9947 473.829 28.9188C458.057 51.2823 432.046 75.1451 393.143 75.1451C388.093 75.1451 384 71.0517 384 66.0023C384 60.9528 388.093 56.8594 393.143 56.8594C399.866 56.8568 406.554 55.8712 412.992 53.9337C320.656 -18.0057 191.237 -17.9755 98.9348 54.0068C105.28 55.8917 111.863 56.8524 118.482 56.8594C123.532 56.8594 127.625 60.9528 127.625 66.0023C127.625 71.0517 123.532 75.1451 118.482 75.1451C104.22 75.2126 90.1593 71.7813 77.5314 65.152L77.376 65.0606C61.55 56.2915 48.0052 43.9274 37.8331 28.9646C35.6872 26.0294 32.0059 24.6448 28.4575 25.4381C24.9091 26.2315 22.1681 29.0521 21.4766 32.6217C14.5646 69.8331 15.4057 119.077 56.2194 147.95C60.1151 150.93 60.9644 156.454 58.144 160.468C55.3236 164.481 49.8387 165.554 45.7143 162.898C38.2251 157.645 31.4619 151.426 25.6 144.402C11.582 173.156 3.1641 204.314 0.79541 236.215L1.6457 235.538C2.99884 234.624 4.38855 233.71 5.87884 232.795C12.92 228.327 22.059 229.007 28.3611 234.469C35.0478 240.452 36.3395 250.432 31.3966 257.92C18.351 279.594 12.5661 304.867 14.8846 330.057C17.4051 327.148 20.1904 324.479 23.2046 322.085C29.5297 317.011 38.4712 316.809 45.0194 321.591C50.2519 325.504 53.113 331.827 52.5988 338.341C50.9548 375.991 63.9871 412.81 88.9508 441.042C91.3977 436.891 94.3828 433.082 97.8286 429.714C101.937 425.449 107.731 423.235 113.637 423.671C121.295 424.468 127.634 429.977 129.49 437.449C134.062 456.832 152.64 501.019 226.706 510.272C226.405 484.571 249.792 468.59 250.944 467.822C254.021 465.764 258.034 465.764 261.111 467.822C262.263 468.59 285.65 484.571 285.349 510.272C359.406 501.019 377.957 456.832 382.537 437.568C384.352 430.046 390.705 424.48 398.4 423.671C404.294 423.239 410.075 425.454 414.171 429.714C417.656 433.135 420.663 437.01 423.113 441.234C447.996 412.922 460.995 376.1 459.401 338.441C458.887 331.899 461.749 325.548 466.99 321.6C473.545 316.807 482.504 317.02 488.823 322.121C491.727 324.444 494.444 326.99 496.951 329.737C499.35 304.646 493.609 279.449 480.576 257.874C476.766 252.141 476.564 244.735 480.055 238.802C482.538 234.487 486.677 231.376 491.512 230.189C496.347 229.003 501.457 229.845 505.655 232.521C507.218 233.435 508.818 234.523 510.345 235.557L511.122 236.069C508.774 204.108 500.316 172.894 486.208 144.119V144.119ZM272.073 73.4171C290.221 68.8906 309.301 69.8096 326.93 76.0594C324.18 66.3607 317.223 58.4076 307.977 54.3908C303.18 52.7952 300.585 47.613 302.181 42.816C303.776 38.019 308.958 35.4238 313.755 37.0194C315.127 37.4857 347.429 48.7588 347.429 91.4286C347.429 94.8012 345.573 97.9003 342.599 99.4914C339.625 101.083 336.017 100.907 333.211 99.0354C316.023 89.244 295.733 86.423 276.526 91.1543C273.327 92.0315 269.904 91.1074 267.581 88.7396C265.258 86.3719 264.4 82.9318 265.338 79.7504C266.277 76.569 268.865 74.1453 272.101 73.4171H272.073ZM198.254 37.0377C203.038 35.4219 208.226 37.9905 209.842 42.7748C211.458 47.5592 208.889 52.7476 204.105 54.3634C194.851 58.3944 187.88 66.3475 185.097 76.0503C202.729 69.8099 221.806 68.8941 239.954 73.4171C243.19 74.1453 245.778 76.569 246.716 79.7504C247.655 82.9318 246.797 86.3719 244.474 88.7396C242.151 91.1074 238.728 92.0315 235.529 91.1543C216.299 86.4228 195.986 89.2503 178.779 99.0537C175.971 100.922 172.363 101.093 169.391 99.4981C166.419 97.9031 164.566 94.8015 164.571 91.4286C164.571 48.7588 196.873 37.4857 198.254 37.0377V37.0377ZM64 206.409C64 172.69 86.0891 146.286 114.286 146.286C129.3 146.316 143.84 151.55 155.429 161.097C167.017 151.55 181.557 146.316 196.571 146.286C224.768 146.286 246.857 172.69 246.857 206.409C246.857 241.307 223.643 289.481 158.217 310.427C156.402 311 154.455 311 152.64 310.427C87.2137 289.481 64 241.307 64 206.409V206.409ZM278.327 437.723C278.263 437.723 278.199 437.723 278.126 437.723H278.071C270.921 438.446 263.57 438.857 256 438.857C248.43 438.857 241.079 438.446 233.929 437.751H233.874C233.801 437.751 233.737 437.751 233.673 437.751C178.066 432.247 137.143 406.619 137.143 374.857C137.143 338.971 189.349 310.857 256 310.857C322.651 310.857 374.857 338.971 374.857 374.857C374.857 406.619 333.934 432.247 278.327 437.733V437.723ZM359.36 310.418C357.545 310.991 355.598 310.991 353.783 310.418C288.357 289.481 265.143 241.307 265.143 206.409C265.143 172.69 287.232 146.286 315.429 146.286C330.443 146.316 344.983 151.55 356.571 161.097C368.16 151.55 382.7 146.316 397.714 146.286C425.911 146.286 448 172.69 448 206.409C448 241.307 424.786 289.481 359.36 310.427V310.418Z" fill="white"/>
<path d="M397.714 164.571C384.768 164.573 372.412 169.99 363.639 179.511C361.898 181.622 359.308 182.849 356.571 182.857C353.852 182.847 351.279 181.627 349.55 179.529C340.77 169.989 328.394 164.564 315.429 164.571C295.406 164.571 283.429 185.847 283.429 206.409C283.429 234.67 302.629 273.737 356.571 292.087C410.514 273.737 429.714 234.67 429.714 206.409C429.714 185.847 417.737 164.571 397.714 164.571Z" fill="white"/>
</g>
<defs>
<clipPath id="clip0">
<rect width="512" height="512" fill="white"/>
</clipPath>
</defs>
</svg>
