<svg width="512" height="512" viewBox="0 0 512 512" fill="none" xmlns="http://www.w3.org/2000/svg">
<g clip-path="url(#clip0)">
<path d="M54.8571 100.571C80.1044 100.571 100.571 80.1044 100.571 54.8571C100.571 29.6098 80.1044 9.14285 54.8571 9.14285C29.6098 9.14285 9.14282 29.6098 9.14282 54.8571C9.17305 80.0919 29.6223 100.541 54.8571 100.571ZM45.7143 27.4286C50.7637 27.4286 54.8571 31.522 54.8571 36.5714C54.8571 41.6209 50.7637 45.7143 45.7143 45.7143C40.6648 45.7143 36.5714 41.6209 36.5714 36.5714C36.5714 31.522 40.6648 27.4286 45.7143 27.4286Z" fill="white"/>
<path d="M381.257 356.517C385.122 357.015 388.897 355.087 390.757 351.662C399.145 335.027 403.103 316.512 402.249 297.902C387.612 303.37 372.564 307.672 357.248 310.766C364.323 323.145 369.759 336.391 373.422 350.171C374.449 353.717 377.575 356.249 381.257 356.517Z" fill="white"/>
<path d="M82.2858 164.571C126.197 164.034 161.948 129.108 163.511 85.2209C165.075 41.3339 131.899 3.95332 88.1372 0.292557C110.804 14.0712 122.609 40.415 117.806 66.5027C113.003 92.5904 92.5904 113.003 66.5027 117.806C40.415 122.609 14.0712 110.804 0.292603 88.1371C3.38206 131.16 39.1524 164.505 82.2858 164.571V164.571Z" fill="white"/>
<path d="M429.714 164.571C472.848 164.505 508.618 131.16 511.707 88.1371C497.929 110.804 471.585 122.609 445.497 117.806C419.41 113.003 398.997 92.5904 394.194 66.5027C389.391 40.415 401.196 14.0712 423.863 0.292557C380.101 3.95332 346.925 41.3339 348.489 85.2209C350.052 129.108 385.803 164.034 429.714 164.571Z" fill="white"/>
<path d="M493.385 160.064C471.949 177.9 443.96 185.82 416.357 181.861C395.465 186.249 378.021 200.393 364.498 223.973C362.94 226.933 359.89 228.806 356.546 228.857C353.201 228.907 350.095 227.127 348.449 224.215C346.802 221.303 346.877 217.725 348.645 214.885C357.78 197.878 371.289 183.619 387.776 173.577C376.297 168.289 365.914 160.892 357.166 151.771C350.503 169.416 340.019 185.368 326.464 198.482C322.877 201.947 317.174 201.898 313.647 198.371C310.121 194.844 310.071 189.142 313.536 185.554C328.392 171.523 338.758 153.404 343.323 133.486C322.769 99.177 324.695 55.9085 348.215 23.5611C288.877 0.630589 223.123 0.630589 163.785 23.5611C187.305 55.9085 189.231 99.177 168.677 133.486C173.252 153.384 183.617 171.483 198.464 185.499C200.841 187.795 201.794 191.194 200.957 194.391C200.121 197.588 197.624 200.084 194.427 200.921C191.231 201.757 187.832 200.804 185.536 198.427C171.988 185.329 161.504 169.397 154.834 151.771C146.088 160.899 135.704 168.302 124.224 173.595C140.711 183.637 154.22 197.897 163.355 214.903C165.123 217.743 165.198 221.322 163.551 224.233C161.905 227.145 158.799 228.925 155.454 228.875C152.11 228.824 149.06 226.951 147.502 223.991C133.961 200.384 116.489 186.258 95.5703 181.934C67.9893 185.849 40.038 177.926 18.6148 160.119C-20.04 255.868 2.61264 365.466 76.0589 438.045C149.505 510.624 259.364 531.973 354.647 492.184C449.931 452.394 511.981 359.257 512 256C512.064 223.118 505.742 190.536 493.385 160.064V160.064ZM427.182 424.229C387.657 464.274 330.057 484.571 256 484.571C181.943 484.571 124.343 464.274 84.8183 424.229C32.1097 370.843 25.1246 295.717 25.6548 255.68C25.7689 248.189 30.4413 241.525 37.4452 238.864C44.4491 236.204 52.3674 238.085 57.4263 243.611C77.248 265.317 129.408 301.714 256 301.714C382.592 301.714 434.752 265.317 454.574 243.611C459.634 238.084 467.554 236.203 474.559 238.866C481.564 241.529 486.235 248.196 486.345 255.689C486.875 295.717 479.89 370.843 427.182 424.229Z" fill="white"/>
<path d="M130.743 356.517C134.412 356.239 137.524 353.714 138.551 350.181C142.221 336.396 147.667 323.147 154.752 310.766C139.436 307.671 124.389 303.369 109.751 297.902C108.897 316.512 112.855 335.027 121.243 351.662C123.103 355.087 126.878 357.015 130.743 356.517V356.517Z" fill="white"/>
<path d="M420.105 290.249C422.321 314.356 417.731 338.6 406.857 360.229C402.053 369.281 392.62 374.916 382.373 374.857C370.129 374.854 359.335 366.825 355.813 355.099C352.139 340.572 346.06 326.761 337.829 314.24C310.739 318.24 283.383 320.165 256 320C228.617 320.168 201.262 318.246 174.171 314.249C165.938 326.776 159.859 340.593 156.187 355.127C152.652 366.84 141.862 374.855 129.627 374.857C119.38 374.916 109.947 369.281 105.143 360.229C94.288 338.611 89.711 314.383 91.9314 290.295C73.896 282.03 57.6139 270.382 43.968 255.982C43.4834 293.138 49.8286 362.761 97.9109 411.41C108.95 422.425 121.524 431.787 135.241 439.205C152.914 395.438 200.859 365.714 256 365.714C311.141 365.714 359.086 395.438 376.832 439.205C390.552 431.793 403.128 422.438 414.171 411.429C462.217 362.743 468.562 293.12 468.114 255.945C454.46 270.353 438.16 282 420.105 290.249V290.249Z" fill="white"/>
<path d="M457.143 100.571C482.39 100.571 502.857 80.1044 502.857 54.8571C502.857 29.6098 482.39 9.14285 457.143 9.14285C431.896 9.14285 411.429 29.6098 411.429 54.8571C411.459 80.0919 431.908 100.541 457.143 100.571ZM466.286 27.4286C471.335 27.4286 475.429 31.522 475.429 36.5714C475.429 41.6209 471.335 45.7143 466.286 45.7143C461.236 45.7143 457.143 41.6209 457.143 36.5714C457.143 31.522 461.236 27.4286 466.286 27.4286Z" fill="white"/>
<path d="M256 384C207.799 384 166.126 409.646 151.579 447.25C184.738 460.601 220.263 467.077 256 466.286C291.737 467.077 327.262 460.601 360.421 447.25C345.874 409.646 304.201 384 256 384Z" fill="white"/>
</g>
<defs>
<clipPath id="clip0">
<rect width="512" height="512" fill="white"/>
</clipPath>
</defs>
</svg>
