<svg width="512" height="512" viewBox="0 0 512 512" fill="none" xmlns="http://www.w3.org/2000/svg">
<g clip-path="url(#clip0)">
<path d="M228.571 312.603C220.599 313.408 211.301 314.597 201.143 316.343V338.286H228.571V312.603Z" fill="white"/>
<path d="M147.73 354.13L138.112 333.486C129.589 336.833 121.281 340.701 113.234 345.07L122.843 365.714L147.73 354.13Z" fill="white"/>
<path d="M164.571 228.571C186.286 228.544 204.997 213.27 209.371 192H119.771C124.145 213.27 142.856 228.544 164.571 228.571Z" fill="white"/>
<path d="M512 91.4286C511.965 71.535 499.068 53.948 480.105 47.934C461.143 41.92 440.468 48.8599 428.974 65.0971C449.226 86.0554 466.998 109.276 481.938 134.299C499.918 127.676 511.9 110.589 512 91.4286V91.4286ZM464 73.1428C464 68.0934 468.093 64 473.143 64C478.192 64 482.286 68.0934 482.286 73.1428C481.411 80.4931 484.09 87.8204 489.499 92.8731C493.601 95.6744 494.763 101.213 492.133 105.426C490.469 108.067 487.573 109.677 484.452 109.696C482.84 109.687 481.261 109.241 479.881 108.407C468.785 100.238 462.763 86.8659 464 73.1428V73.1428Z" fill="white"/>
<path d="M30.0616 134.299C45.0021 109.276 62.7739 86.0554 83.0262 65.0971C71.7213 48.9296 51.3201 41.8379 32.4244 47.5074C13.5287 53.177 0.401593 70.3286 -0.135277 90.0492C-0.672148 109.77 11.5024 127.61 30.0616 134.299ZM22.5279 92.8457C27.9026 87.7829 30.5673 80.4771 29.7142 73.1429C29.7142 68.0934 33.8076 64 38.8571 64C43.9065 64 47.9999 68.0934 47.9999 73.1429C49.2413 86.8625 43.2263 100.234 32.1371 108.407C27.8611 110.838 22.4281 109.45 19.8415 105.267C17.255 101.083 18.442 95.6025 22.5279 92.864V92.8457Z" fill="white"/>
<path d="M398.784 345.088C390.751 340.711 382.455 336.836 373.943 333.486L364.315 354.194L389.23 365.714L398.784 345.088Z" fill="white"/>
<path d="M256 411.429C214.711 411.429 177.856 429.998 162.743 457.417C192.171 470.058 223.981 476.202 256 475.429C288.019 476.202 319.828 470.058 349.257 457.417C334.144 429.998 297.289 411.429 256 411.429V411.429Z" fill="white"/>
<path d="M410.569 71.2046C368.21 29.0286 315.063 -1.52588e-05 256 -1.52588e-05C196.937 -1.52588e-05 143.79 29.0286 101.431 71.2046C101.124 71.5585 100.791 71.8886 100.434 72.192C38.6011 134.299 0 224.384 0 292.571C0 413.559 114.843 512 256 512C397.157 512 512 413.559 512 292.571C512 224.384 473.399 134.299 411.566 72.2286C411.208 71.9135 410.874 71.5711 410.569 71.2046V71.2046ZM306.77 128.96C309.211 127.762 367.113 99.3737 407.771 129.829C410.385 131.788 411.754 134.993 411.363 138.236C410.972 141.479 408.881 144.268 405.877 145.551C402.873 146.834 399.413 146.417 396.8 144.457C365.257 120.814 315.429 145.079 314.935 145.371C310.413 147.626 304.92 145.788 302.665 141.266C300.411 136.744 302.249 131.251 306.77 128.997V128.96ZM301.714 265.143C301.714 270.192 297.621 274.286 292.571 274.286C287.522 274.286 283.429 270.192 283.429 265.143C283.823 257.754 281.06 250.546 275.828 245.315C270.597 240.083 263.388 237.32 256 237.714C248.603 237.324 241.389 240.096 236.157 245.339C230.924 250.582 228.167 257.802 228.571 265.198C228.541 270.226 224.457 274.286 219.429 274.286H219.374C214.346 274.256 210.286 270.171 210.286 265.143C209.821 252.882 214.488 240.983 223.164 232.307C231.84 223.631 243.739 218.964 256 219.429C268.261 218.964 280.16 223.631 288.836 232.307C297.512 240.983 302.179 252.882 301.714 265.143ZM104.229 129.829C144.85 99.3737 202.789 127.753 205.23 128.96C209.752 131.215 211.589 136.708 209.335 141.23C207.08 145.751 201.587 147.589 197.065 145.335C196.571 145.07 146.779 120.814 115.2 144.421C111.16 147.45 105.43 146.632 102.4 142.592C99.3703 138.552 100.189 132.822 104.229 129.792V129.829ZM100.571 173.714H210.286C220.385 173.714 228.571 165.527 228.571 155.429V137.143C228.571 132.093 232.665 128 237.714 128C242.764 128 246.857 132.093 246.857 137.143V155.429C246.816 168.519 239.755 180.581 228.361 187.026C226.265 219.711 199.802 245.523 167.075 246.804C134.348 248.085 105.948 224.421 101.303 192H100.571C95.522 192 91.4286 187.907 91.4286 182.857C91.4286 177.808 95.522 173.714 100.571 173.714ZM438.281 393.92C421.486 431.186 375.534 493.714 256 493.714C136.466 493.714 90.5143 431.186 73.7097 393.92C64.7967 373.882 71.4843 350.336 89.6 337.975C157.001 293.093 251.995 292.571 256 292.571C260.005 292.571 354.999 293.093 422.4 337.984C440.517 350.34 447.203 373.887 438.281 393.92ZM420.571 182.857C420.571 187.907 416.478 192 411.429 192H410.697C406.113 224.482 377.685 248.22 344.907 246.937C312.129 245.655 285.643 219.767 283.611 187.026C272.228 180.574 265.178 168.513 265.143 155.429V137.143C265.143 132.093 269.236 128 274.286 128C279.335 128 283.429 132.093 283.429 137.143V155.429C283.429 165.527 291.615 173.714 301.714 173.714H411.429C416.478 173.714 420.571 177.808 420.571 182.857Z" fill="white"/>
<path d="M310.857 316.343C300.699 314.597 291.401 313.408 283.428 312.603V338.286H310.857V316.343Z" fill="white"/>
<path d="M347.428 228.571C369.144 228.544 387.854 213.27 392.228 192H302.628C307.012 213.264 325.717 228.533 347.428 228.571V228.571Z" fill="white"/>
<path d="M256 310.857C255.826 310.857 252.516 310.857 246.857 311.177V338.286C246.857 348.385 238.67 356.571 228.571 356.571H201.143C191.044 356.571 182.857 348.385 182.857 338.286V319.954C173.961 321.947 164.708 324.398 155.428 327.36L164.306 346.514C166.333 350.889 166.55 355.887 164.91 360.421C163.275 365 159.854 368.721 155.428 370.734L130.514 382.318C121.351 386.531 110.508 382.53 106.276 373.376L97.6639 354.889C88.5082 362.622 85.5576 375.471 90.4227 386.423C102.29 412.541 121.9 434.38 146.596 448.978C164.818 415.68 208.027 393.143 256 393.143C303.972 393.143 347.182 415.68 365.431 448.978C390.127 434.38 409.737 412.541 421.604 386.423C426.47 375.471 423.519 362.622 414.363 354.889L405.723 373.422C401.508 382.552 390.696 386.544 381.559 382.345L356.571 370.706C352.164 368.696 348.76 364.985 347.136 360.421C345.498 355.893 345.712 350.903 347.73 346.533L356.571 327.314C347.264 324.352 338.02 321.902 329.143 319.909V338.286C329.143 348.385 320.956 356.571 310.857 356.571H283.428C273.33 356.571 265.143 348.385 265.143 338.286V311.168C259.483 310.857 256.174 310.857 256 310.857Z" fill="white"/>
</g>
<defs>
<clipPath id="clip0">
<rect width="512" height="512" fill="white"/>
</clipPath>
</defs>
</svg>
