<svg width="512" height="512" viewBox="0 0 512 512" fill="none" xmlns="http://www.w3.org/2000/svg">
<path d="M73.143 283.429C93.3408 283.429 109.714 275.242 109.714 265.143C109.714 255.044 93.3408 246.857 73.143 246.857C52.9451 246.857 36.5715 255.044 36.5715 265.143C36.5715 275.242 52.9451 283.429 73.143 283.429Z" fill="white"/>
<path d="M346.395 352.914C350.072 354.047 354.049 353.662 357.44 351.845C364.35 348.01 369.597 341.754 372.169 334.281C361.223 328.941 349.767 324.714 337.975 321.664C333.44 335.451 337.207 349.714 346.395 352.914V352.914Z" fill="white"/>
<path d="M154.56 352.841C157.928 354.648 161.878 355.033 165.531 353.911C174.884 350.674 178.66 336.073 173.815 322.002C173.815 321.911 173.723 321.829 173.687 321.737C161.866 324.806 150.388 329.067 139.428 334.455C141.951 342.285 147.362 348.859 154.56 352.841V352.841Z" fill="white"/>
<path d="M256 118.857C261.049 118.857 265.143 114.764 265.143 109.714C265.143 104.665 261.049 100.571 256 100.571C250.951 100.571 246.857 104.665 246.857 109.714C246.857 114.764 250.951 118.857 256 118.857Z" fill="white"/>
<path d="M256 155.429C270.427 155.478 284.025 148.69 292.658 137.131C301.29 125.571 303.937 110.606 299.794 96.7863C293.769 97.8377 287.625 98.7154 281.353 99.328C282.721 102.62 283.426 106.149 283.429 109.714C283.429 124.863 271.148 137.143 256 137.143C240.852 137.143 228.571 124.863 228.571 109.714C228.574 106.149 229.279 102.62 230.647 99.328C224.366 98.7154 218.222 97.8377 212.206 96.7863C208.062 110.606 210.71 125.571 219.342 137.131C227.975 148.69 241.573 155.478 256 155.429Z" fill="white"/>
<path d="M387.858 343.771C383.462 354.314 375.519 362.988 365.403 368.293C360.738 370.594 355.612 371.81 350.409 371.849C346.985 371.856 343.585 371.284 340.352 370.158C322.066 363.822 313.399 340.544 320.238 317.504C299.062 313.371 277.57 311.068 256 310.619C234.345 311.072 212.77 313.394 191.515 317.559C198.83 340.965 190.153 364.754 171.584 371.182C168.375 372.303 164.999 372.872 161.6 372.864C156.395 372.824 151.266 371.608 146.597 369.307C136.235 363.859 128.154 354.896 123.803 344.027C112.36 351.864 104.039 363.477 100.297 376.832C94.5689 394.452 100.469 413.774 115.063 425.189C126.036 432.184 140.338 430.943 149.943 422.162C154.761 418.505 158.738 414.985 162.578 411.547C181.778 394.313 196.617 383.762 256 383.762C315.383 383.762 330.185 394.313 349.422 411.547C353.262 414.985 357.239 418.542 362.057 422.162C371.664 430.937 385.962 432.177 396.937 425.189C411.531 413.774 417.431 394.452 411.703 376.832C407.917 363.338 399.468 351.623 387.858 343.771V343.771Z" fill="white"/>
<path d="M256 0C114.615 0 0 114.615 0 256C0 397.385 114.615 512 256 512C397.385 512 512 397.385 512 256C511.839 114.682 397.318 0.16123 256 0ZM151.589 72.3291C156.755 65.3168 166.151 62.922 174.043 66.6057C199.993 77.4129 227.894 82.7508 256 82.2857C284.106 82.7508 312.007 77.4129 337.957 66.6057C345.849 62.922 355.245 65.3168 360.411 72.3291C388.046 111.367 391.612 162.554 369.655 205.046C347.699 247.537 303.884 274.243 256.055 274.286C254.327 274.286 252.59 274.286 250.853 274.185C185.713 271.064 133.127 219.859 128.274 154.825C126.209 125.451 134.454 96.2771 151.589 72.3291V72.3291ZM73.1429 301.714C42.3863 301.714 18.2857 285.65 18.2857 265.143C18.2857 244.635 42.3863 228.571 73.1429 228.571C103.899 228.571 128 244.635 128 265.143C128 285.65 103.899 301.714 73.1429 301.714ZM407.049 440.421C399.758 445.347 391.163 447.986 382.363 448C370.994 447.766 360.012 443.827 351.086 436.782C345.6 432.695 341.166 428.699 337.225 425.17C321.682 411.246 311.406 402.048 256 402.048C200.594 402.048 190.327 411.246 174.775 425.143C170.834 428.672 166.373 432.667 160.914 436.754C145.108 450.182 122.37 451.668 104.951 440.411C83.9493 424.685 75.006 397.515 82.56 372.389C102.345 293.23 249.737 292.325 256 292.325C260.48 292.325 337.042 292.809 387.584 321.975C387.758 322.075 387.931 322.149 388.087 322.249C408.194 332.546 423.158 350.689 429.44 372.389C436.998 397.518 428.055 424.692 407.049 440.421V440.421ZM438.857 301.714C408.101 301.714 384 285.65 384 265.143C384 244.635 408.101 228.571 438.857 228.571C469.614 228.571 493.714 244.635 493.714 265.143C493.714 285.65 469.614 301.714 438.857 301.714Z" fill="white"/>
<path d="M438.857 283.429C459.055 283.429 475.429 275.242 475.429 265.143C475.429 255.044 459.055 246.857 438.857 246.857C418.659 246.857 402.286 255.044 402.286 265.143C402.286 275.242 418.659 283.429 438.857 283.429Z" fill="white"/>
</svg>
