<svg width="512" height="512" viewBox="0 0 512 512" fill="none" xmlns="http://www.w3.org/2000/svg">
<g clip-path="url(#clip0)">
<path d="M335.589 265.143H304.393L319.982 292.425L335.589 265.143Z" fill="white"/>
<path d="M256 365.714C234.441 365.332 214.006 375.311 201.052 392.549C218.577 399.276 237.23 402.581 256 402.286C274.77 402.581 293.423 399.276 310.949 392.549C297.994 375.311 277.559 365.332 256 365.714Z" fill="white"/>
<path d="M109.714 411.429C114.764 411.429 118.857 407.335 118.857 402.286C118.857 397.236 114.764 393.143 109.714 393.143C104.665 393.143 100.572 397.236 100.572 402.286C100.572 407.335 104.665 411.429 109.714 411.429Z" fill="white"/>
<path d="M207.589 265.143H176.393L191.982 292.425L207.589 265.143Z" fill="white"/>
<path d="M45.7144 256C50.7639 256 54.8572 251.907 54.8572 246.857C54.8572 241.808 50.7639 237.714 45.7144 237.714C40.6649 237.714 36.5715 241.808 36.5715 246.857C36.5715 251.907 40.6649 256 45.7144 256Z" fill="white"/>
<path d="M54.8572 347.429C54.827 322.194 34.3777 301.745 9.1429 301.714C6.17322 301.732 3.2123 302.039 0.301758 302.629C2.01336 333.296 10.9984 363.115 26.5143 389.623C43.6823 382.654 54.8978 365.957 54.8572 347.429Z" fill="white"/>
<path d="M466.286 256C471.335 256 475.429 251.907 475.429 246.857C475.429 241.808 471.335 237.714 466.286 237.714C461.236 237.714 457.143 241.808 457.143 246.857C457.143 251.907 461.236 256 466.286 256Z" fill="white"/>
<path d="M402.286 411.429C407.335 411.429 411.429 407.335 411.429 402.286C411.429 397.236 407.335 393.143 402.286 393.143C397.236 393.143 393.143 397.236 393.143 402.286C393.143 407.335 397.236 411.429 402.286 411.429Z" fill="white"/>
<path d="M438.857 347.429C438.605 328.842 446.555 311.089 460.588 298.899C474.621 286.709 493.311 281.32 511.68 284.169C509.216 245.872 499.276 208.429 482.423 173.952C480.466 176.155 478.427 178.295 476.288 180.352C473.937 182.684 470.51 183.562 467.328 182.649C464.145 181.736 461.705 179.174 460.949 175.951C460.192 172.728 461.237 169.347 463.68 167.113C498.066 134.363 496.695 82.1943 489.481 44.1966C488.647 40.4405 485.635 37.5551 481.847 36.8823C477.75 35.878 473.453 37.4538 470.976 40.8686C454.322 63.0727 431.734 80.1205 405.815 90.048C401.147 92.0072 395.774 89.8111 393.815 85.1428C391.856 80.4746 394.052 75.102 398.72 73.1428C401.902 71.8019 404.983 70.403 407.963 68.9463C361.829 24.4114 308.261 -1.52588e-05 256 -1.52588e-05C203.739 -1.52588e-05 150.171 24.4114 104.037 68.9646C107.017 70.4213 110.098 71.8202 113.28 73.1611C117.931 75.1304 120.104 80.4969 118.135 85.1474C116.166 89.798 110.799 91.9716 106.149 90.0023C80.229 80.0748 57.6413 63.027 40.9874 40.8228C38.5108 37.4081 34.2136 35.8323 30.1166 36.8366C26.3283 37.5094 23.3166 40.3948 22.4823 44.1508C15.2686 82.1486 13.8971 134.318 48.2834 167.067C51.9468 170.554 52.0901 176.35 48.6034 180.014C45.1168 183.677 39.3205 183.82 35.6571 180.334C33.5177 178.295 31.4789 176.155 29.5223 173.934C12.6687 208.411 2.72929 245.854 0.265137 284.151C3.20416 283.706 6.17049 283.464 9.14285 283.429C44.4724 283.469 73.1025 312.099 73.1429 347.429C73.1726 372.194 58.8395 394.729 36.3977 405.202C81.1886 469.12 162.853 512 256 512C349.147 512 430.811 469.12 475.602 405.202C453.161 394.729 438.827 372.194 438.857 347.429V347.429ZM466.286 219.429C481.434 219.429 493.714 231.709 493.714 246.857C493.714 262.006 481.434 274.286 466.286 274.286C451.137 274.286 438.857 262.006 438.857 246.857C438.857 231.709 451.137 219.429 466.286 219.429ZM285.175 168.421C322.661 116.974 386.295 128.997 388.983 129.536C393.936 130.523 397.152 135.339 396.165 140.293C395.177 145.246 390.362 148.461 385.408 147.474C361.784 143.498 337.53 148.585 317.495 161.719C343.543 161.39 382.053 168.119 405.449 206.738C408.065 211.058 406.683 216.68 402.363 219.296C398.044 221.912 392.421 220.53 389.806 216.21C359.25 165.778 295.634 182.446 294.985 182.629C291.236 183.661 287.244 182.209 285.034 179.009C282.824 175.809 282.881 171.561 285.175 168.421V168.421ZM106.551 206.738C129.947 168.137 168.494 161.399 194.505 161.719C174.468 148.583 150.21 143.495 126.583 147.474C121.629 148.459 116.815 145.242 115.831 140.288C114.846 135.334 118.064 130.521 123.017 129.536C125.705 128.997 189.321 116.955 226.825 168.421C229.119 171.561 229.176 175.809 226.966 179.009C224.756 182.209 220.764 183.661 217.015 182.629C214.418 181.925 152.613 166.016 122.194 216.21C119.579 220.53 113.956 221.912 109.637 219.296C105.317 216.68 103.935 211.058 106.551 206.738V206.738ZM45.7143 274.286C30.5659 274.286 18.2857 262.006 18.2857 246.857C18.2857 231.709 30.5659 219.429 45.7143 219.429C60.8627 219.429 73.1429 231.709 73.1429 246.857C73.1429 262.006 60.8627 274.286 45.7143 274.286ZM109.714 429.714C94.5659 429.714 82.2857 417.434 82.2857 402.286C82.2857 387.137 94.5659 374.857 109.714 374.857C124.863 374.857 137.143 387.137 137.143 402.286C137.143 417.434 124.863 429.714 109.714 429.714ZM256 420.571C124.571 420.571 104.229 302.821 101.138 266.725C100.695 261.617 102.416 256.557 105.883 252.78C109.349 249.002 114.242 246.853 119.369 246.857H392.631C397.755 246.856 402.644 249.005 406.108 252.78C409.572 256.555 411.293 261.611 410.853 266.715C407.771 302.821 387.429 420.571 256 420.571V420.571ZM402.286 429.714C387.137 429.714 374.857 417.434 374.857 402.286C374.857 387.137 387.137 374.857 402.286 374.857C417.434 374.857 429.714 387.137 429.714 402.286C429.714 417.434 417.434 429.714 402.286 429.714Z" fill="white"/>
<path d="M356.663 265.143L335.89 301.495C332.645 307.194 326.596 310.719 320.037 310.733C313.478 310.746 307.415 307.245 304.146 301.559L283.337 265.143H228.663L207.89 301.495C204.645 307.194 198.596 310.719 192.037 310.733C185.478 310.746 179.415 307.245 176.146 301.559L155.337 265.143H119.369C121.417 289.033 131.913 352.978 184.53 384.375C200.526 360.713 227.446 346.796 256 347.429C284.554 346.796 311.474 360.713 327.47 384.375C380.096 352.978 390.555 289.042 392.64 265.161L356.663 265.143Z" fill="white"/>
<path d="M502.857 301.714C481.018 301.665 462.203 317.09 457.969 338.515C453.735 359.94 465.269 381.362 485.486 389.623C501.002 363.115 509.987 333.296 511.698 302.629C508.788 302.039 505.827 301.732 502.857 301.714Z" fill="white"/>
</g>
<defs>
<clipPath id="clip0">
<rect width="512" height="512" fill="white"/>
</clipPath>
</defs>
</svg>
