<svg width="512" height="512" viewBox="0 0 512 512" fill="none" xmlns="http://www.w3.org/2000/svg">
<path d="M168.86 440.832L180.608 346.377C164.897 349.889 149.643 355.203 135.15 362.213L168.86 440.832Z" fill="white"/>
<path d="M100.571 219.429C110.67 219.429 118.857 211.242 118.857 201.143C118.857 191.044 110.67 182.857 100.571 182.857C90.4724 182.857 82.2856 191.044 82.2856 201.143C82.2856 211.242 90.4724 219.429 100.571 219.429Z" fill="white"/>
<path d="M98.7886 387.383C106.103 388.846 116.16 390.693 128.274 392.558L119.077 371.118C111.754 375.802 104.953 381.254 98.7886 387.383V387.383Z" fill="white"/>
<path d="M411.429 219.429C421.528 219.429 429.714 211.242 429.714 201.143C429.714 191.044 421.528 182.857 411.429 182.857C401.33 182.857 393.143 191.044 393.143 201.143C393.143 211.242 401.33 219.429 411.429 219.429Z" fill="white"/>
<path d="M256 146.286C266.099 146.286 274.286 138.099 274.286 128C274.286 117.901 266.099 109.714 256 109.714C245.901 109.714 237.714 117.901 237.714 128C237.714 138.099 245.901 146.286 256 146.286Z" fill="white"/>
<path d="M256 0C114.615 0 0 114.615 0 256C0 397.385 114.615 512 256 512C397.385 512 512 397.385 512 256C511.839 114.682 397.318 0.16123 256 0ZM411.429 118.857C446.711 118.857 475.429 157.824 475.429 205.714C475.429 253.605 446.711 292.571 411.429 292.571C376.146 292.571 347.429 253.605 347.429 205.714C347.429 157.824 376.137 118.857 411.429 118.857ZM256 27.4286C296.329 27.4286 329.143 72.5486 329.143 128C329.143 183.451 296.329 228.571 256 228.571C215.671 228.571 182.857 183.451 182.857 128C182.857 72.5486 215.671 27.4286 256 27.4286ZM325.385 235.017C307.427 254.234 282.302 265.143 256 265.143C229.698 265.143 204.573 254.234 186.615 235.017C184.246 232.715 183.303 229.313 184.148 226.119C184.994 222.926 187.497 220.437 190.696 219.609C193.894 218.781 197.29 219.743 199.579 222.126C214.106 237.888 234.564 246.855 256 246.855C277.436 246.855 297.894 237.888 312.421 222.126C314.71 219.743 318.106 218.781 321.304 219.609C324.503 220.437 327.006 222.926 327.852 226.119C328.697 229.313 327.755 232.715 325.385 235.017V235.017ZM100.571 118.857C135.863 118.857 164.571 157.824 164.571 205.714C164.571 253.605 135.863 292.571 100.571 292.571C65.28 292.571 36.5714 253.605 36.5714 205.714C36.5714 157.824 65.28 118.857 100.571 118.857V118.857ZM34.3863 285.861C38.0928 282.433 43.8763 282.658 47.3051 286.363C60.8254 301.656 80.1613 310.548 100.571 310.857C120.982 310.548 140.317 301.656 153.838 286.363C157.284 282.743 162.999 282.561 166.669 285.956C170.338 289.35 170.601 295.062 167.259 298.779C150.296 317.838 126.084 328.862 100.571 329.143C75.0587 328.862 50.8468 317.838 33.8834 298.779C30.4554 295.073 30.6805 289.289 34.3863 285.861V285.861ZM438.126 396.727C437.004 399.36 434.713 401.316 431.936 402.011C431.022 402.24 409.993 407.424 375.25 412.27L359.945 448C357.141 454.73 350.559 459.107 343.269 459.09C342.4 459.088 341.532 459.027 340.672 458.907C332.45 457.834 326.002 451.323 325.01 443.09L321.883 417.911C308.809 418.88 295.936 419.584 283.383 419.986L273.582 455.314C271.416 463.242 264.214 468.74 255.995 468.74C247.777 468.74 240.575 463.242 238.409 455.314L228.617 420.023C216.064 419.621 203.191 418.917 190.117 417.947L186.99 443.09C186.025 451.347 179.571 457.892 171.328 458.971C170.468 459.091 169.6 459.152 168.731 459.154C161.423 459.162 154.833 454.756 152.046 448L136.722 412.251C101.979 407.406 80.9509 402.194 80.0366 401.993C77.2606 401.296 74.9714 399.338 73.851 396.705C72.7307 394.071 72.9085 391.064 74.3314 388.581C85.6767 372.133 100.992 358.818 118.857 349.87C140.972 338.016 164.876 329.856 189.623 325.714C196.681 324.334 204.425 323.182 212.48 322.331C241.399 319.237 270.565 319.237 299.483 322.331C307.493 323.173 315.237 324.325 322.441 325.742C347.128 329.876 370.973 338.017 393.033 349.842C410.932 358.786 426.279 372.108 437.65 388.571C439.082 391.064 439.258 394.085 438.126 396.727V396.727ZM411.429 329.143C385.916 328.862 361.704 317.838 344.741 298.779C341.399 295.062 341.662 289.35 345.331 285.956C349.001 282.561 354.716 282.743 358.162 286.363C371.49 301.911 390.946 310.859 411.424 310.859C431.902 310.859 451.358 301.911 464.686 286.363C468.114 282.655 473.9 282.427 477.609 285.856C481.318 289.285 481.545 295.071 478.117 298.779C461.154 317.839 436.942 328.863 411.429 329.143V329.143Z" fill="white"/>
<path d="M199.497 342.574L192.384 399.771C202.916 400.552 213.278 401.137 223.47 401.527L206.793 341.486C204.306 341.815 201.883 342.181 199.497 342.574Z" fill="white"/>
<path d="M305.207 341.486L288.521 401.527C298.724 401.137 309.086 400.552 319.607 399.771L312.503 342.583C310.107 342.181 307.684 341.815 305.207 341.486Z" fill="white"/>
<path d="M225.252 339.639L256 450.386L286.72 339.639C266.262 338.031 245.71 338.031 225.252 339.639Z" fill="white"/>
<path d="M383.726 392.558C395.84 390.729 405.897 388.846 413.211 387.383C407.045 381.257 400.244 375.804 392.923 371.118L383.726 392.558Z" fill="white"/>
<path d="M343.15 440.832L376.85 362.203C362.358 355.193 347.104 349.879 331.392 346.368L343.15 440.832Z" fill="white"/>
</svg>
