<svg width="512" height="512" viewBox="0 0 512 512" fill="none" xmlns="http://www.w3.org/2000/svg">
<path d="M256 158.897C270.626 158.897 282.483 147.04 282.483 132.414C282.483 117.788 270.626 105.931 256 105.931C241.374 105.931 229.517 117.788 229.517 132.414C229.517 147.04 241.374 158.897 256 158.897Z" fill="white"/>
<path d="M105.931 229.517C120.557 229.517 132.414 217.661 132.414 203.034C132.414 188.408 120.557 176.552 105.931 176.552C91.305 176.552 79.4482 188.408 79.4482 203.034C79.4482 217.661 91.305 229.517 105.931 229.517Z" fill="white"/>
<path d="M256 308.966C212.456 309.196 172.615 333.508 152.497 372.127C144.091 386.529 140.368 403.186 141.842 419.796C142.52 424.973 144.755 429.821 148.251 433.699C148.988 434.387 149.776 435.019 150.608 435.588L174.336 406.855C179.476 400.54 187.269 396.986 195.406 397.244C203.544 397.502 211.096 401.543 215.826 408.17L227.972 425.039C237.097 422.523 246.536 421.325 256 421.482C265.466 421.336 274.904 422.546 284.028 425.075L296.148 408.241C300.894 401.572 308.482 397.503 316.663 397.241C324.769 397.077 332.507 400.624 337.673 406.872L361.393 435.597C362.225 435.025 363.013 434.39 363.75 433.699C367.246 429.821 369.481 424.973 370.158 419.796C371.632 403.186 367.909 386.529 359.503 372.127C339.385 333.508 299.545 309.196 256 308.966V308.966Z" fill="white"/>
<path d="M194.807 414.897C192.145 414.808 189.6 415.995 187.957 418.092L168.801 441.3C183.339 440.878 197.646 437.555 210.882 431.528L201.525 418.534C199.99 416.323 197.497 414.974 194.807 414.897Z" fill="white"/>
<path d="M256 0C114.615 0 0 114.615 0 256C0 397.385 114.615 512 256 512C397.385 512 512 397.385 512 256C512 114.615 397.385 0 256 0ZM406.069 123.586C440.143 123.586 467.862 161.209 467.862 207.448C467.862 253.687 440.143 291.31 406.069 291.31C371.994 291.31 344.276 253.687 344.276 207.448C344.276 161.209 371.994 123.586 406.069 123.586ZM256 35.3103C294.938 35.3103 326.621 78.8745 326.621 132.414C326.621 185.953 294.938 229.517 256 229.517C217.062 229.517 185.379 185.953 185.379 132.414C185.379 78.8745 217.062 35.3103 256 35.3103ZM322.993 235.741C305.653 254.295 281.395 264.827 256 264.827C230.605 264.827 206.347 254.295 189.007 235.741C186.72 233.518 185.809 230.233 186.626 227.15C187.443 224.066 189.86 221.663 192.948 220.864C196.036 220.065 199.315 220.994 201.525 223.294C215.551 238.513 235.304 247.171 256 247.171C276.696 247.171 296.449 238.513 310.475 223.294C312.685 220.994 315.964 220.065 319.052 220.864C322.14 221.663 324.557 224.066 325.374 227.15C326.191 230.233 325.28 233.518 322.993 235.741V235.741ZM105.931 123.586C140.006 123.586 167.724 161.209 167.724 207.448C167.724 253.687 140.006 291.31 105.931 291.31C71.8566 291.31 44.1379 253.687 44.1379 207.448C44.1379 161.209 71.8566 123.586 105.931 123.586V123.586ZM41.5426 297.304C38.316 293.715 38.5701 288.2 42.1129 284.923C45.6558 281.645 51.174 281.821 54.5015 285.316C67.5555 300.082 86.2247 308.667 105.931 308.966C125.637 308.667 144.307 300.082 157.361 285.316C160.688 281.821 166.206 281.645 169.749 284.923C173.292 288.2 173.546 293.715 170.319 297.304C153.941 315.705 130.564 326.349 105.931 326.621C81.2981 326.349 57.921 315.705 41.5426 297.304ZM387.584 422.577C386.373 431.364 382.465 439.559 376.399 446.031C367.856 454.258 356.48 458.891 344.62 458.973C323.68 458.338 303.129 453.148 284.398 443.763C275.344 440.309 265.682 438.735 256 439.137C246.327 438.738 236.674 440.312 227.628 443.763C209.732 452.566 190.276 457.755 170.372 459.034C169.384 459.034 168.404 459.034 167.415 458.973C155.537 458.902 144.141 454.269 135.583 446.031C129.517 439.559 125.609 431.364 124.398 422.577C122.197 402.253 126.526 381.756 136.757 364.058C159.721 319.391 205.731 291.311 255.956 291.311C306.181 291.311 352.191 319.391 375.155 364.058C385.417 381.746 389.776 402.243 387.602 422.577H387.584ZM406.069 326.621C381.436 326.349 358.059 315.705 341.681 297.304C338.454 293.715 338.708 288.2 342.251 284.923C345.794 281.645 351.312 281.821 354.639 285.316C367.509 300.328 386.296 308.967 406.069 308.967C425.842 308.967 444.629 300.328 457.498 285.316C459.627 282.949 462.865 281.911 465.974 282.6C469.082 283.289 471.579 285.598 472.507 288.643C473.436 291.689 472.652 294.998 470.457 297.304C454.079 315.705 430.702 326.349 406.069 326.621V326.621Z" fill="white"/>
<path d="M406.069 229.517C420.695 229.517 432.552 217.661 432.552 203.034C432.552 188.408 420.695 176.552 406.069 176.552C391.443 176.552 379.586 188.408 379.586 203.034C379.586 217.661 391.443 229.517 406.069 229.517Z" fill="white"/>
<path d="M317.193 414.897C314.493 414.977 311.992 416.337 310.457 418.56L301.118 431.537C314.347 437.584 328.658 440.905 343.199 441.3L324.052 418.11C322.419 415.993 319.864 414.796 317.193 414.897V414.897Z" fill="white"/>
</svg>
