<svg width="512" height="512" viewBox="0 0 512 512" fill="none" xmlns="http://www.w3.org/2000/svg">
<g clip-path="url(#clip0)">
<path d="M192 310.857V281.134C176.933 289.02 163.078 299.03 150.857 310.857H192Z" fill="white"/>
<path d="M146.286 219.429C156.385 219.429 164.571 211.242 164.571 201.143C164.571 191.044 156.385 182.857 146.286 182.857C136.187 182.857 128 191.044 128 201.143C128 211.242 136.187 219.429 146.286 219.429Z" fill="white"/>
<path d="M413.303 74.0571C413.102 73.8834 412.837 73.8102 412.645 73.6182C412.447 73.354 412.264 73.0794 412.096 72.7954C369.481 29.7417 315.776 -6.10352e-05 256 -6.10352e-05C120.027 -6.10352e-05 -1.52588e-05 164.517 -1.52588e-05 292.571C0.134213 330.142 11.1678 366.867 31.7623 398.29C55.2726 386.743 83.4509 390.729 102.836 408.345C122.22 425.961 128.877 453.63 119.625 478.135C204.935 523.289 307.065 523.289 392.375 478.135C383.123 453.63 389.78 425.961 409.164 408.345C428.549 390.729 456.727 386.743 480.238 398.29C500.832 366.867 511.866 330.142 512 292.571C512 225.033 474.112 136.046 413.303 74.0571V74.0571ZM201.143 45.7142C201.143 40.6648 205.236 36.5714 210.286 36.5714H301.714C306.764 36.5714 310.857 40.6648 310.857 45.7142C310.822 48.6021 309.4 51.2968 307.035 52.9554C326.993 79.3297 323.567 116.566 299.132 138.856C274.697 161.146 237.303 161.146 212.868 138.856C188.433 116.566 185.007 79.3297 204.965 52.9554C202.6 51.2968 201.178 48.6021 201.143 45.7142V45.7142ZM82.2857 192C82.3417 178.147 86.9017 164.689 95.2777 153.655C92.4172 151.615 90.9924 148.106 91.6206 144.649C92.5239 139.684 97.2789 136.39 102.245 137.289L194.587 154.085H194.743L202.789 155.547C206.306 156.198 209.121 158.841 209.993 162.311C210.864 165.78 209.632 169.44 206.839 171.675C209.092 178.216 210.257 185.082 210.286 192C210.286 227.346 181.632 256 146.286 256C110.939 256 82.2857 227.346 82.2857 192V192ZM201.143 484.571C180.945 484.571 164.571 468.198 164.571 448C164.571 427.802 180.945 411.429 201.143 411.429C221.341 411.429 237.714 427.802 237.714 448C237.714 468.198 221.341 484.571 201.143 484.571ZM310.857 484.571C290.659 484.571 274.286 468.198 274.286 448C274.286 427.802 290.659 411.429 310.857 411.429C331.055 411.429 347.429 427.802 347.429 448C347.429 468.198 331.055 484.571 310.857 484.571ZM256 402.286C122.45 402.286 110.29 338.578 109.842 335.872C109.47 333.674 109.919 331.415 111.104 329.527C113.216 326.144 163.831 246.857 256 246.857C348.169 246.857 398.784 326.144 400.896 329.527C402.081 331.415 402.53 333.674 402.158 335.872C401.71 338.578 389.55 402.286 256 402.286V402.286ZM365.714 256C330.385 255.96 301.755 227.329 301.714 192C301.749 185.091 302.917 178.234 305.17 171.703C302.377 169.467 301.145 165.808 302.016 162.338C302.888 158.868 305.703 156.226 309.221 155.575L317.248 154.121H317.422L409.765 137.326C413.93 136.64 418.022 138.895 419.668 142.782C421.314 146.669 420.085 151.177 416.695 153.691C431.348 173.011 433.777 198.968 422.962 220.671C412.148 242.373 389.962 256.065 365.714 256V256Z" fill="white"/>
<path d="M310.857 466.286C320.956 466.286 329.143 458.099 329.143 448C329.143 437.901 320.956 429.714 310.857 429.714C300.758 429.714 292.571 437.901 292.571 448C292.571 458.099 300.758 466.286 310.857 466.286Z" fill="white"/>
<path d="M201.143 466.286C211.242 466.286 219.429 458.099 219.429 448C219.429 437.901 211.242 429.714 201.143 429.714C191.044 429.714 182.857 437.901 182.857 448C182.857 458.099 191.044 466.286 201.143 466.286Z" fill="white"/>
<path d="M457.655 67.2091C465.43 59.7008 475.676 55.2835 486.473 54.784C491.912 54.3558 497.098 52.3117 501.367 48.9143C506.749 44.8144 510.401 38.8492 511.607 32.192C513.152 23.3321 510.265 14.2766 503.877 7.94629C497.488 1.61603 488.407 -1.18794 479.561 0.43882C472.916 1.68686 466.983 5.3877 462.939 10.8068C459.638 15.0335 457.648 20.1353 457.216 25.4811C456.705 36.292 452.29 46.5506 444.791 54.3543L431.433 67.712C435.602 72.1005 439.671 76.6019 443.639 81.216L457.655 67.2091Z" fill="white"/>
<path d="M10.6331 48.9143C14.9016 52.3117 20.0882 54.3558 25.5268 54.784C36.3243 55.2835 46.5696 59.7008 54.3451 67.2091L67.9589 80.8137C72.0305 76.0838 76.0929 71.5733 80.1463 67.2823L67.2091 54.3543C59.7098 46.5506 55.2952 36.292 54.784 25.4811C54.3478 20.1335 52.3585 15.0299 49.0606 10.7977C45.0137 5.38401 39.0817 1.6871 32.4388 0.438842C23.6006 -1.17067 14.5335 1.64101 8.15659 7.96877C1.77964 14.2965 -1.10217 23.3415 0.438845 32.192C1.63267 38.8423 5.26857 44.8065 10.6331 48.9143V48.9143Z" fill="white"/>
<path d="M422.866 420.645C408.907 432.366 403.245 451.26 408.457 468.727C431.813 453.969 452.449 435.294 469.458 413.522C453.806 407.09 435.882 409.83 422.866 420.645V420.645Z" fill="white"/>
<path d="M256 118.857C266.099 118.857 274.286 110.67 274.286 100.571C274.286 90.4725 266.099 82.2857 256 82.2857C245.901 82.2857 237.714 90.4725 237.714 100.571C237.714 110.67 245.901 118.857 256 118.857Z" fill="white"/>
<path d="M89.1337 420.645C76.1122 409.813 58.1689 407.068 42.5051 413.513C59.5115 435.29 80.148 453.968 103.506 468.727C108.727 451.267 103.08 432.375 89.1337 420.645V420.645Z" fill="white"/>
<path d="M128.914 335.872C132.261 343.945 145.591 366.126 192 377.326V329.143H134.043C131.867 331.886 130.121 334.171 128.914 335.872Z" fill="white"/>
<path d="M210.286 380.846C222.404 382.574 234.618 383.554 246.857 383.781V329.143H210.286V380.846Z" fill="white"/>
<path d="M265.143 310.857H301.714V273.179C289.93 268.98 277.624 266.424 265.143 265.582V310.857Z" fill="white"/>
<path d="M365.714 219.429C375.813 219.429 384 211.242 384 201.143C384 191.044 375.813 182.857 365.714 182.857C355.615 182.857 347.429 191.044 347.429 201.143C347.429 211.242 355.615 219.429 365.714 219.429Z" fill="white"/>
<path d="M265.143 383.781C277.382 383.554 289.596 382.574 301.714 380.846V329.143H265.143V383.781Z" fill="white"/>
<path d="M320 329.143V377.317C366.29 366.144 379.685 344.046 383.086 335.854C381.87 334.153 380.133 331.84 377.966 329.143H320Z" fill="white"/>
<path d="M320 281.134V310.857H361.143C348.927 299.026 335.07 289.015 320 281.134Z" fill="white"/>
<path d="M210.286 310.857H246.857V265.582C234.376 266.424 222.07 268.98 210.286 273.179V310.857Z" fill="white"/>
</g>
<defs>
<clipPath id="clip0">
<rect width="512" height="512" fill="white"/>
</clipPath>
</defs>
</svg>
