<svg width="512" height="512" viewBox="0 0 512 512" fill="none" xmlns="http://www.w3.org/2000/svg">
<g clip-path="url(#clip0)">
<path d="M45.7143 256C50.7637 256 54.8571 251.907 54.8571 246.857C54.8571 241.808 50.7637 237.714 45.7143 237.714C40.6648 237.714 36.5714 241.808 36.5714 246.857C36.5714 251.907 40.6648 256 45.7143 256Z" fill="white"/>
<path d="M208.384 356.571C204.737 356.3 201.297 358.297 199.726 361.6L196.16 368.732C204.031 372.097 212.427 374.064 220.974 374.546L216.402 362.46C215.161 359.06 211.999 356.739 208.384 356.571Z" fill="white"/>
<path d="M180.809 358.546L183.369 353.435C188.247 343.684 198.438 337.748 209.327 338.315C220.215 338.882 229.734 345.845 233.573 356.05L240.613 374.857H271.387L278.427 356.05C282.266 345.845 291.785 338.882 302.673 338.315C313.562 337.748 323.753 343.684 328.631 353.435L331.191 358.546C339.175 350.543 344.506 340.278 346.459 329.143H165.541C167.493 340.278 172.823 350.544 180.809 358.546V358.546Z" fill="white"/>
<path d="M303.616 356.571C299.984 356.721 296.8 359.045 295.552 362.459L291.026 374.546C299.573 374.064 307.969 372.097 315.84 368.731L312.274 361.6C310.697 358.303 307.262 356.308 303.616 356.571Z" fill="white"/>
<path d="M109.714 411.429C114.764 411.429 118.857 407.335 118.857 402.286C118.857 397.236 114.764 393.143 109.714 393.143C104.665 393.143 100.571 397.236 100.571 402.286C100.571 407.335 104.665 411.429 109.714 411.429Z" fill="white"/>
<path d="M466.286 256C471.335 256 475.429 251.907 475.429 246.857C475.429 241.808 471.335 237.714 466.286 237.714C461.236 237.714 457.143 241.808 457.143 246.857C457.143 251.907 461.236 256 466.286 256Z" fill="white"/>
<path d="M54.8571 347.429C54.8269 322.194 34.3776 301.745 9.14284 301.714C6.17316 301.732 3.21224 302.039 0.301697 302.629C2.0133 333.296 10.9983 363.115 26.5143 389.623C43.6822 382.654 54.8977 365.957 54.8571 347.429Z" fill="white"/>
<path d="M155.429 237.714C165.527 237.714 173.714 229.528 173.714 219.429C173.714 209.33 165.527 201.143 155.429 201.143C145.33 201.143 137.143 209.33 137.143 219.429C137.143 229.528 145.33 237.714 155.429 237.714Z" fill="white"/>
<path d="M402.286 411.429C407.335 411.429 411.429 407.335 411.429 402.286C411.429 397.236 407.335 393.143 402.286 393.143C397.236 393.143 393.143 397.236 393.143 402.286C393.143 407.335 397.236 411.429 402.286 411.429Z" fill="white"/>
<path d="M502.857 301.714C481.018 301.665 462.203 317.09 457.969 338.515C453.735 359.939 465.269 381.362 485.486 389.623C501.002 363.115 509.987 333.296 511.698 302.629C508.788 302.039 505.827 301.732 502.857 301.714Z" fill="white"/>
<path d="M356.571 237.714C366.67 237.714 374.857 229.528 374.857 219.429C374.857 209.33 366.67 201.143 356.571 201.143C346.472 201.143 338.286 209.33 338.286 219.429C338.286 229.528 346.472 237.714 356.571 237.714Z" fill="white"/>
<path d="M438.857 347.429C438.605 328.842 446.555 311.089 460.588 298.899C474.621 286.709 493.311 281.32 511.68 284.169C509.22 245.872 499.281 208.427 482.423 173.952C480.466 176.155 478.427 178.295 476.288 180.352C473.937 182.684 470.51 183.562 467.328 182.649C464.145 181.736 461.705 179.174 460.949 175.951C460.192 172.728 461.237 169.347 463.68 167.113C498.066 134.363 496.695 82.1943 489.481 44.1966C488.647 40.4406 485.635 37.5551 481.847 36.8823C477.75 35.8832 473.456 37.458 470.976 40.8686C454.322 63.0728 431.734 80.1205 405.815 90.048C401.147 92.0072 395.774 89.8111 393.815 85.1429C391.856 80.4746 394.052 75.1021 398.72 73.1429C401.902 71.8019 404.983 70.403 407.963 68.9463C361.829 24.4114 308.261 0 256 0C203.739 0 150.171 24.4114 104.037 68.9646C107.017 70.4213 110.098 71.8202 113.28 73.1611C117.931 75.1304 120.104 80.4969 118.135 85.1474C116.166 89.798 110.799 91.9716 106.149 90.0023C80.229 80.0748 57.6413 63.027 40.9874 40.8229C38.5077 37.4123 34.2133 35.8375 30.1166 36.8366C26.3283 37.5094 23.3166 40.3948 22.4823 44.1509C15.2686 82.1486 13.8971 134.318 48.2834 167.067C51.9468 170.554 52.0901 176.35 48.6034 180.014C45.1168 183.677 39.3205 183.82 35.6571 180.334C33.5177 178.295 31.4789 176.155 29.5223 173.934C12.6645 208.409 2.72484 245.854 0.265137 284.151C3.2042 283.706 6.17051 283.465 9.14285 283.429C44.4724 283.469 73.1025 312.099 73.1429 347.429C73.1726 372.194 58.8395 394.729 36.3977 405.202C81.1886 469.12 162.853 512 256 512C349.147 512 430.811 469.12 475.602 405.202C453.161 394.729 438.827 372.194 438.857 347.429V347.429ZM466.286 219.429C481.434 219.429 493.714 231.709 493.714 246.857C493.714 262.006 481.434 274.286 466.286 274.286C451.137 274.286 438.857 262.006 438.857 246.857C438.857 231.709 451.137 219.429 466.286 219.429ZM274.606 146.569C310.93 105.614 371.913 97.7633 417.426 128.183C420.248 129.952 421.885 133.115 421.699 136.44C421.513 139.765 419.533 142.726 416.532 144.169C413.531 145.612 409.982 145.309 407.269 143.378C369.339 118.041 318.528 124.591 288.265 158.72C286.537 160.68 284.048 161.8 281.435 161.792C277.833 161.793 274.567 159.678 273.092 156.392C271.618 153.105 272.21 149.259 274.606 146.569V146.569ZM94.5737 128.183C140.087 97.7633 201.07 105.614 237.394 146.569C239.646 148.997 240.409 152.453 239.389 155.604C238.368 158.754 235.724 161.107 232.476 161.753C229.228 162.4 225.884 161.24 223.735 158.72C193.472 124.591 142.661 118.041 104.731 143.378C102.018 145.309 98.4694 145.612 95.468 144.169C92.4666 142.726 90.4873 139.765 90.3012 136.44C90.1152 133.115 91.752 129.952 94.5737 128.183V128.183ZM155.429 146.286C195.824 146.286 228.571 179.033 228.571 219.429C228.571 259.824 195.824 292.571 155.429 292.571C115.033 292.571 82.2857 259.824 82.2857 219.429C82.3311 179.052 115.052 146.331 155.429 146.286ZM45.7143 274.286C30.5659 274.286 18.2857 262.006 18.2857 246.857C18.2857 231.709 30.5659 219.429 45.7143 219.429C60.8627 219.429 73.1429 231.709 73.1429 246.857C73.1429 262.006 60.8627 274.286 45.7143 274.286ZM109.714 429.714C94.5659 429.714 82.2857 417.434 82.2857 402.286C82.2857 387.137 94.5659 374.857 109.714 374.857C124.863 374.857 137.143 387.137 137.143 402.286C137.143 417.434 124.863 429.714 109.714 429.714ZM299.035 436.178C297.061 438.153 285.714 448 256 448C226.286 448 214.939 438.153 212.965 436.178C209.5 432.591 209.549 426.888 213.076 423.362C216.603 419.835 222.305 419.785 225.893 423.25C235.02 428.464 245.537 430.722 256 429.714C278.345 429.714 286.263 423.095 286.336 423.031C290.074 419.779 295.706 420.032 299.136 423.607C302.522 427.129 302.477 432.71 299.035 436.178V436.178ZM283.429 393.143H228.571C147.2 393.143 146.286 320.731 146.286 320C146.286 314.951 150.379 310.857 155.429 310.857H356.571C361.621 310.857 365.714 314.951 365.714 320C365.714 320.731 364.8 393.143 283.429 393.143ZM402.286 429.714C387.137 429.714 374.857 417.434 374.857 402.286C374.857 387.137 387.137 374.857 402.286 374.857C417.434 374.857 429.714 387.137 429.714 402.286C429.714 417.434 417.434 429.714 402.286 429.714ZM356.571 292.571C316.176 292.571 283.429 259.824 283.429 219.429C283.429 179.033 316.176 146.286 356.571 146.286C396.967 146.286 429.714 179.033 429.714 219.429C429.669 259.805 396.948 292.526 356.571 292.571Z" fill="white"/>
</g>
<defs>
<clipPath id="clip0">
<rect width="512" height="512" fill="white"/>
</clipPath>
</defs>
</svg>
