<svg width="512" height="512" viewBox="0 0 512 512" fill="none" xmlns="http://www.w3.org/2000/svg">
<g clip-path="url(#clip0)">
<path d="M240.21 146.871C238.541 152.622 237.7 158.583 237.714 164.571C237.714 185.509 247.369 201.143 256 201.143C264.631 201.143 274.286 185.509 274.286 164.571C274.298 158.586 273.461 152.63 271.799 146.88C266.688 146.533 261.486 146.286 256 146.286C250.514 146.286 245.312 146.533 240.21 146.871Z" fill="white"/>
<path d="M303.616 347.429C307.26 347.697 310.696 345.705 312.274 342.409L314.432 338.094C307.144 335.651 299.688 333.741 292.124 332.379L295.561 341.522C296.792 344.948 299.978 347.285 303.616 347.429Z" fill="white"/>
<path d="M208.384 347.429C212.015 347.29 215.199 344.965 216.439 341.55L219.877 332.407C212.312 333.769 204.856 335.678 197.568 338.121L199.726 342.437C201.316 345.718 204.748 347.696 208.384 347.429Z" fill="white"/>
<path d="M331.255 345.371L328.631 350.601C324.06 359.915 314.558 365.789 304.183 365.714C303.671 365.714 303.168 365.714 302.656 365.714C291.741 365.245 282.183 358.249 278.437 347.986L271.616 329.783C266.551 329.408 261.376 329.143 256 329.143C250.624 329.143 245.449 329.408 240.384 329.783L233.563 347.986C229.821 358.24 220.276 365.234 209.371 365.714C208.859 365.714 208.357 365.714 207.845 365.714C197.461 365.782 187.957 359.893 183.397 350.565L180.773 345.335C164.745 353.893 155.429 364.635 155.429 374.857C155.429 396.48 196.736 420.571 256 420.571C315.264 420.571 356.571 396.48 356.571 374.857C356.571 364.635 347.255 353.893 331.255 345.371V345.371Z" fill="white"/>
<path d="M109.714 329.143C114.764 329.143 118.857 325.049 118.857 320C118.857 314.951 114.764 310.857 109.714 310.857C104.665 310.857 100.571 314.951 100.571 320C100.571 325.049 104.665 329.143 109.714 329.143Z" fill="white"/>
<path d="M82.2857 265.143C92.3846 265.143 100.571 256.956 100.571 246.857C100.571 236.758 92.3846 228.571 82.2857 228.571C72.1868 228.571 64 236.758 64 246.857C64 256.956 72.1868 265.143 82.2857 265.143Z" fill="white"/>
<path d="M429.714 265.143C439.813 265.143 448 256.956 448 246.857C448 236.758 439.813 228.571 429.714 228.571C419.615 228.571 411.429 236.758 411.429 246.857C411.429 256.956 419.615 265.143 429.714 265.143Z" fill="white"/>
<path d="M54.8571 347.429C54.8269 322.194 34.3776 301.745 9.14284 301.714C6.17316 301.732 3.21224 302.039 0.301697 302.629C2.01191 333.296 10.997 363.116 26.5143 389.623C43.6839 382.656 54.9002 365.958 54.8571 347.429Z" fill="white"/>
<path d="M438.857 347.429C438.605 328.842 446.555 311.089 460.588 298.899C474.621 286.709 493.311 281.32 511.68 284.169C509.22 245.875 499.28 208.434 482.423 173.961C480.475 176.155 478.446 178.295 476.297 180.361C472.624 183.719 466.939 183.523 463.507 179.919C460.075 176.315 460.156 170.627 463.689 167.122C498.075 134.373 496.704 82.2034 489.499 44.2057C488.663 40.451 485.652 37.5665 481.865 36.8914C477.766 35.8909 473.468 37.4656 470.985 40.8777C454.331 63.0812 431.743 80.1288 405.824 90.0572C401.153 92.0189 395.777 89.8228 393.815 85.152C391.853 80.4813 394.049 75.1046 398.72 73.1429C401.902 71.8019 404.98 70.403 407.954 68.9463C361.829 24.4023 308.261 0 256 0C203.739 0 150.171 24.4023 104.046 68.9646C107.026 70.4213 110.104 71.8202 113.28 73.1611C116.288 74.4351 118.389 77.2171 118.79 80.4594C119.191 83.7017 117.831 86.9116 115.224 88.88C112.616 90.8484 109.157 91.2762 106.149 90.0023C80.2295 80.0739 57.642 63.0263 40.9874 40.8229C38.5078 37.4066 34.2072 35.8309 30.1074 36.8366C26.3203 37.5117 23.3097 40.3961 22.4731 44.1509C15.2686 82.1486 13.8971 134.318 48.2834 167.067C51.9468 170.554 52.0901 176.35 48.6034 180.014C45.1168 183.677 39.3205 183.82 35.6572 180.334C33.5086 178.295 31.4789 176.155 29.5314 173.934C12.6743 208.406 2.73471 245.847 0.274292 284.142C3.21051 283.7 6.17377 283.462 9.14286 283.429C44.4724 283.469 73.1026 312.099 73.1429 347.429C73.1726 372.194 58.8395 394.729 36.3977 405.202C81.1886 469.12 162.853 512 256 512C349.147 512 430.811 469.12 475.602 405.202C453.161 394.729 438.827 372.194 438.857 347.429V347.429ZM141.303 156.91C146.111 153.965 151.105 151.332 156.251 149.029C162.322 85.7417 204.699 36.5714 256 36.5714C307.301 36.5714 349.678 85.7417 355.749 149.029C360.897 151.347 365.89 153.995 370.697 156.955C374.812 159.752 375.936 165.325 373.226 169.497C370.517 173.669 364.969 174.91 360.741 172.288C360.613 172.206 359.104 171.264 356.361 169.792C354.213 237.915 310.08 292.571 256 292.571C201.92 292.571 157.778 237.906 155.63 169.728C152.887 171.237 151.342 172.187 151.269 172.233C147.045 174.82 141.529 173.574 138.828 169.421C136.128 165.269 137.225 159.721 141.303 156.91ZM45.7143 246.857C45.7143 226.659 62.0879 210.286 82.2857 210.286C102.484 210.286 118.857 226.659 118.857 246.857C118.857 267.055 102.484 283.429 82.2857 283.429C72.5864 283.429 63.2843 279.576 56.4258 272.717C49.5673 265.859 45.7143 256.557 45.7143 246.857V246.857ZM109.714 347.429C94.5659 347.429 82.2857 335.148 82.2857 320C82.2857 304.852 94.5659 292.571 109.714 292.571C124.863 292.571 137.143 304.852 137.143 320C137.143 335.148 124.863 347.429 109.714 347.429ZM299.035 472.75C297.061 474.725 285.714 484.571 256 484.571C226.286 484.571 214.939 474.725 212.965 472.75C209.5 469.162 209.549 463.46 213.076 459.933C216.603 456.406 222.305 456.357 225.893 459.822C235.019 465.037 245.537 467.295 256 466.286C278.354 466.286 286.263 459.666 286.336 459.602C290.07 456.341 295.71 456.594 299.136 460.178C302.527 463.699 302.482 469.284 299.035 472.75V472.75ZM256 438.857C189.349 438.857 137.143 410.743 137.143 374.857C137.143 343.168 177.865 317.577 233.271 312.018H233.664C240.887 311.269 248.338 310.857 256 310.857C263.662 310.857 271.113 311.269 278.336 311.982H278.747C334.135 317.586 374.857 343.177 374.857 374.857C374.857 410.743 322.651 438.857 256 438.857ZM402.286 347.429C387.137 347.429 374.857 335.148 374.857 320C374.857 304.852 387.137 292.571 402.286 292.571C417.434 292.571 429.714 304.852 429.714 320C429.714 335.148 417.434 347.429 402.286 347.429ZM393.143 246.857C393.143 226.659 409.516 210.286 429.714 210.286C449.912 210.286 466.286 226.659 466.286 246.857C466.286 267.055 449.912 283.429 429.714 283.429C409.516 283.429 393.143 267.055 393.143 246.857Z" fill="white"/>
<path d="M502.857 301.714C481.018 301.665 462.203 317.09 457.969 338.515C453.735 359.939 465.269 381.362 485.486 389.623C501.003 363.116 509.988 333.296 511.698 302.629C508.788 302.039 505.827 301.732 502.857 301.714Z" fill="white"/>
<path d="M402.286 329.143C407.335 329.143 411.429 325.049 411.429 320C411.429 314.951 407.335 310.857 402.286 310.857C397.236 310.857 393.143 314.951 393.143 320C393.143 325.049 397.236 329.143 402.286 329.143Z" fill="white"/>
<path d="M336.366 141.221C328.311 91.9131 295.36 54.8571 256 54.8571C216.64 54.8571 183.689 91.9131 175.634 141.221C227.761 123.593 284.239 123.593 336.366 141.221Z" fill="white"/>
</g>
<defs>
<clipPath id="clip0">
<rect width="512" height="512" fill="white"/>
</clipPath>
</defs>
</svg>
