<svg width="512" height="512" viewBox="0 0 512 512" fill="none" xmlns="http://www.w3.org/2000/svg">
<g clip-path="url(#clip0)">
<path d="M228.571 419.959C237.138 420.325 246.144 420.571 256 420.571C265.856 420.571 274.862 420.325 283.429 419.959V347.429H228.571V419.959Z" fill="white"/>
<path d="M155.429 409.938C173.383 414.68 191.754 417.672 210.286 418.871V347.429H155.429V409.938Z" fill="white"/>
<path d="M155.429 284.663V329.143H210.286V278.446C202.758 273.477 195.907 267.552 189.906 260.818C177.182 266.819 165.534 274.875 155.429 284.663V284.663Z" fill="white"/>
<path d="M228.571 287.607V329.143H283.429V287.607C265.742 294.226 246.258 294.226 228.571 287.607Z" fill="white"/>
<path d="M256 173.714C266.099 173.714 274.286 165.528 274.286 155.429C274.286 145.33 266.099 137.143 256 137.143C245.901 137.143 237.714 145.33 237.714 155.429C237.714 165.528 245.901 173.714 256 173.714Z" fill="white"/>
<path d="M137.143 329.143V306.149C132.135 313.443 127.729 321.134 123.968 329.143H137.143Z" fill="white"/>
<path d="M82.2857 265.143C92.3846 265.143 100.571 256.956 100.571 246.857C100.571 236.758 92.3846 228.571 82.2857 228.571C72.1868 228.571 64 236.758 64 246.857C64 256.956 72.1868 265.143 82.2857 265.143Z" fill="white"/>
<path d="M54.8572 347.429C54.827 322.194 34.3777 301.745 9.1429 301.714C6.17322 301.732 3.2123 302.039 0.301758 302.629C2.01197 333.296 10.9971 363.116 26.5143 389.623C43.6839 382.656 54.9003 365.958 54.8572 347.429Z" fill="white"/>
<path d="M110.254 370.432C110.182 370.925 110.069 371.412 109.915 371.886C109.139 377.577 110.893 383.324 114.715 387.611C120.762 394.683 128.468 400.146 137.143 403.511V347.429H116.453C113.778 354.919 111.705 362.612 110.254 370.432V370.432Z" fill="white"/>
<path d="M301.714 418.871C317.093 417.791 332.372 415.587 347.429 412.279V347.429H301.714V418.871Z" fill="white"/>
<path d="M429.714 265.143C439.813 265.143 448 256.956 448 246.857C448 236.758 439.813 228.571 429.714 228.571C419.615 228.571 411.429 236.758 411.429 246.857C411.429 256.956 419.615 265.143 429.714 265.143Z" fill="white"/>
<path d="M401.746 370.45C400.274 362.623 398.183 354.925 395.493 347.429H365.714V407.086C378.146 403.717 389.289 396.713 397.714 386.971C401.219 382.766 402.795 377.282 402.057 371.858C401.915 371.398 401.811 370.927 401.746 370.45V370.45Z" fill="white"/>
<path d="M438.857 347.429C438.605 328.842 446.555 311.089 460.588 298.899C474.621 286.709 493.311 281.32 511.68 284.169C509.22 245.875 499.28 208.434 482.423 173.961C480.475 176.155 478.446 178.295 476.297 180.361C472.624 183.719 466.939 183.523 463.507 179.919C460.075 176.315 460.156 170.627 463.689 167.122C498.075 134.373 496.704 82.2034 489.499 44.2057C488.663 40.451 485.652 37.5665 481.865 36.8914C477.766 35.8909 473.468 37.4656 470.985 40.8777C454.331 63.0812 431.743 80.1288 405.824 90.0572C401.153 92.0189 395.777 89.8228 393.815 85.152C391.853 80.4813 394.049 75.1046 398.72 73.1429C401.902 71.8019 404.98 70.403 407.954 68.9463C361.829 24.4023 308.261 0 256 0C203.739 0 150.171 24.4023 104.046 68.9646C107.026 70.4213 110.104 71.8202 113.28 73.1611C116.288 74.4351 118.389 77.2171 118.79 80.4594C119.191 83.7017 117.831 86.9116 115.224 88.88C112.616 90.8484 109.157 91.2762 106.149 90.0023C80.2295 80.0739 57.642 63.0263 40.9874 40.8229C38.5062 37.4087 34.2071 35.8335 30.1074 36.8366C26.3203 37.5117 23.3097 40.3961 22.4731 44.1509C15.2686 82.1486 13.8971 134.318 48.2834 167.067C51.9468 170.554 52.0901 176.35 48.6034 180.014C45.1168 183.677 39.3205 183.82 35.6572 180.334C33.5086 178.295 31.4789 176.155 29.5314 173.934C12.6743 208.406 2.73471 245.847 0.274292 284.142C3.21051 283.7 6.17377 283.462 9.14286 283.429C44.4724 283.469 73.1026 312.099 73.1429 347.429C73.1726 372.194 58.8395 394.729 36.3977 405.202C81.1886 469.12 162.853 512 256 512C349.147 512 430.811 469.12 475.602 405.202C453.161 394.729 438.827 372.194 438.857 347.429V347.429ZM45.7143 246.857C45.7143 226.659 62.0879 210.286 82.2857 210.286C102.484 210.286 118.857 226.659 118.857 246.857C118.857 267.055 102.484 283.429 82.2857 283.429C72.5864 283.429 63.2843 279.576 56.4258 272.717C49.5673 265.859 45.7143 256.557 45.7143 246.857V246.857ZM283.429 475.429H228.571C223.522 475.429 219.429 471.335 219.429 466.286C219.429 461.236 223.522 457.143 228.571 457.143H283.429C288.478 457.143 292.571 461.236 292.571 466.286C292.571 471.335 288.478 475.429 283.429 475.429ZM412.517 397.778C395.703 420.809 355.419 434.203 292.745 437.815C292.69 437.82 292.635 437.82 292.581 437.815H292.489C281.033 438.491 268.937 438.857 256 438.857C243.063 438.857 230.967 438.491 219.52 437.833H219.429C219.374 437.838 219.319 437.838 219.264 437.833C156.581 434.176 116.297 420.827 99.4926 397.797C92.6477 389.184 89.9966 377.97 92.2606 367.205C94.2969 356.144 97.386 345.303 101.486 334.83V334.629C115.187 296.508 142.632 264.879 178.441 245.943C163.122 221.589 155.134 193.341 155.429 164.571C155.18 135.17 163.521 106.337 179.429 81.6091C171.605 79.4643 164.334 75.6635 158.107 70.464C154.643 66.8765 154.692 61.1741 158.219 57.6474C161.746 54.1207 167.448 54.0711 171.035 57.536C171.035 57.536 189.431 73.1429 256 73.1429C322.569 73.1429 340.974 57.5086 341.157 57.344C344.863 54.051 350.505 54.2606 353.957 57.8194C357.373 61.3565 357.332 66.9767 353.865 70.464C347.639 75.6635 340.367 79.4643 332.544 81.6091C348.461 106.334 356.812 135.168 356.571 164.571C356.87 193.366 348.872 221.637 333.531 246.007C344.065 251.289 353.927 257.815 362.907 265.445L363.09 265.618C384.343 284.362 400.634 308.069 410.514 334.629L410.578 334.793C414.668 345.261 417.747 356.096 419.776 367.15C422.044 377.931 419.382 389.162 412.517 397.778V397.778ZM393.143 246.857C393.143 226.659 409.516 210.286 429.714 210.286C449.912 210.286 466.286 226.659 466.286 246.857C466.286 267.055 449.912 283.429 429.714 283.429C409.516 283.429 393.143 267.055 393.143 246.857Z" fill="white"/>
<path d="M502.857 301.714C481.018 301.665 462.203 317.09 457.969 338.515C453.735 359.939 465.269 381.362 485.486 389.623C501.003 363.116 509.988 333.296 511.698 302.629C508.788 302.039 505.827 301.732 502.857 301.714Z" fill="white"/>
<path d="M365.714 294.464V329.143H387.959C382.073 316.671 374.596 305.014 365.714 294.464Z" fill="white"/>
<path d="M301.714 278.446V329.143H347.429V276.645C339.634 270.388 331.127 265.076 322.085 260.818C316.091 267.556 309.243 273.482 301.714 278.446Z" fill="white"/>
</g>
<defs>
<clipPath id="clip0">
<rect width="512" height="512" fill="white"/>
</clipPath>
</defs>
</svg>
