<svg width="512" height="512" viewBox="0 0 512 512" fill="none" xmlns="http://www.w3.org/2000/svg">
<g clip-path="url(#clip0)">
<path d="M256.009 165.044C272.747 165.044 286.316 151.475 286.316 134.737C286.316 117.999 272.747 104.43 256.009 104.43C239.271 104.43 225.702 117.999 225.702 134.737C225.702 151.475 239.271 165.044 256.009 165.044Z" fill="white"/>
<path d="M132.572 288.166C130.403 287.215 127.943 287.177 125.745 288.058L109.011 294.634C106.777 295.516 104.987 297.252 104.035 299.457C103.077 301.63 103.035 304.097 103.918 306.302L107.709 315.967C118.463 310.646 129.628 306.2 141.096 302.673L137.342 293.151C136.479 290.921 134.762 289.127 132.572 288.166V288.166Z" fill="white"/>
<path d="M402.953 294.625L386.246 288.067C384.039 287.182 381.569 287.218 379.388 288.166C377.207 289.115 375.497 290.897 374.64 293.116L370.868 302.673C382.338 306.202 393.507 310.647 404.264 315.967L408.028 306.347C409.851 301.708 407.582 296.47 402.953 294.625Z" fill="white"/>
<path d="M451.162 131.683C441.513 117.42 443.297 98.326 455.419 86.0969L459.156 82.3602C465.475 76.1055 474.797 73.9812 483.202 76.8809C489.937 80.1706 497.914 79.6265 504.14 75.4527C511.65 67.9433 506.961 46.5381 488.25 27.8456C480.155 19.414 470.042 13.1874 458.869 9.75497C452.811 7.3162 445.926 8.15012 440.625 11.9647C436.454 18.2081 435.927 26.2015 439.242 32.9387C442.129 41.3117 440.043 50.597 433.853 56.9308C420.728 70.0168 399.813 71.0002 385.518 59.2034C344.845 26.3545 300.068 8.98248 256 8.98248C211.932 8.98248 167.154 26.3545 126.509 59.2034C112.209 71.0186 91.2715 70.0308 78.1473 56.9218C71.9621 50.5888 69.8768 41.3091 72.7579 32.9387C76.0691 26.2059 75.549 18.2201 71.3925 11.9736C66.0901 8.16398 59.2078 7.33038 53.1492 9.76395C41.967 13.1897 31.8445 19.4134 23.7406 27.8456C5.03014 46.5741 0.359262 67.9792 7.85961 75.4527C13.8462 79.502 21.5187 80.1124 28.0701 77.0605C30.4877 76.312 33.0038 75.9305 35.5346 75.9287C42.6768 76.0039 49.4971 78.9117 54.4965 84.0129L56.5805 86.0969C68.7031 98.326 70.4865 117.42 60.8381 131.683C25.555 183.997 4.49119 245.589 4.49119 296.421C4.49119 415.286 117.32 512 256 512C394.68 512 507.509 415.286 507.509 296.421C507.509 245.58 486.445 183.997 451.162 131.683V131.683ZM256 44.9123C330.378 44.9965 390.653 105.271 390.737 179.649C390.794 200.026 386.185 220.146 377.263 238.466C376.281 240.478 374.584 242.051 372.502 242.877C343.13 254.572 303.966 260.491 256 260.491C208.034 260.491 168.87 254.572 139.498 242.877C137.416 242.051 135.719 240.478 134.737 238.466C125.815 220.146 121.206 200.026 121.263 179.649C121.347 105.271 181.622 44.9965 256 44.9123V44.9123ZM273.965 350.316H238.035C233.074 350.316 229.053 346.294 229.053 341.333C229.053 336.372 233.074 332.351 238.035 332.351H273.965C278.926 332.351 282.947 336.372 282.947 341.333C282.947 346.294 278.926 350.316 273.965 350.316ZM449.123 367.095C447.758 367.882 446.207 368.291 444.632 368.281C441.426 368.277 438.465 366.566 436.862 363.79C436.296 362.891 399.962 305.404 256 305.404C178.868 305.404 132.842 321.572 106.541 336.887C106.451 336.887 106.397 337.004 106.307 337.031H106.253C93.9498 343.41 83.3048 352.573 75.1652 363.79C72.6847 368.096 67.1832 369.575 62.8772 367.095C58.5711 364.615 57.0912 359.113 59.5716 354.807C67.9562 342.511 79.0103 332.267 91.9085 324.842L87.2196 312.859C84.5542 306.205 84.6838 298.757 87.5789 292.199C90.4176 285.629 95.7532 280.459 102.409 277.827L119.152 271.252C125.806 268.617 133.237 268.748 139.794 271.615C146.351 274.482 151.493 279.848 154.076 286.522L158.522 297.795C190.49 290.492 223.212 287.015 256 287.439C288.794 287.04 321.52 290.544 353.487 297.876L357.978 286.567C360.572 279.901 365.719 274.546 372.278 271.69C378.837 268.835 386.264 268.716 392.911 271.36L409.591 277.908C423.45 283.397 430.256 299.065 424.807 312.94L420.127 324.886C433.023 332.311 444.077 342.551 452.464 354.843C454.923 359.149 453.428 364.634 449.123 367.095V367.095Z" fill="white"/>
</g>
<defs>
<clipPath id="clip0">
<rect width="512" height="512" fill="white"/>
</clipPath>
</defs>
</svg>
