<svg width="512" height="512" viewBox="0 0 512 512" fill="none" xmlns="http://www.w3.org/2000/svg">
<g clip-path="url(#clip0)">
<path d="M130.368 293.321C128.159 292.374 125.666 292.334 123.428 293.211L106.377 299.913C101.679 301.78 99.3676 307.088 101.202 311.799L105.051 321.627C115.999 316.214 127.363 311.689 139.035 308.096L135.214 298.414C134.35 296.133 132.603 294.296 130.368 293.321V293.321Z" fill="white"/>
<path d="M30.0616 134.299C45.0021 109.276 62.7739 86.0554 83.0262 65.0971C71.7213 48.9296 51.3201 41.8379 32.4244 47.5074C13.5287 53.177 0.401593 70.3286 -0.135277 90.0492C-0.672148 109.77 11.5024 127.61 30.0616 134.299ZM22.5279 92.8457C27.9026 87.7829 30.5673 80.4771 29.7142 73.1429C29.7142 68.0934 33.8076 64 38.8571 64C43.9065 64 47.9999 68.0934 47.9999 73.1429C49.2413 86.8625 43.2263 100.234 32.1371 108.407C27.8611 110.838 22.4281 109.45 19.8415 105.267C17.255 101.083 18.442 95.6025 22.5279 92.864V92.8457Z" fill="white"/>
<path d="M405.577 299.886L388.617 293.221C386.372 292.314 383.857 292.346 381.636 293.311C379.416 294.275 377.675 296.09 376.805 298.35L372.965 308.087C384.637 311.68 396.001 316.205 406.949 321.618L410.779 311.826C412.637 307.093 410.308 301.749 405.577 299.886V299.886Z" fill="white"/>
<path d="M164.571 228.571C186.286 228.544 204.997 213.27 209.371 192H119.771C124.145 213.27 142.856 228.544 164.571 228.571Z" fill="white"/>
<path d="M256 0C122.432 0 0 160.165 0 292.571C0 413.559 114.843 512 256 512C397.157 512 512 413.559 512 292.571C512 159.643 389.211 0 256 0ZM306.77 128.96C309.221 127.762 367.168 99.3737 407.771 129.829C410.385 131.788 411.754 134.994 411.363 138.236C410.972 141.479 408.881 144.268 405.877 145.551C402.873 146.834 399.413 146.417 396.8 144.457C365.248 120.823 315.429 145.079 314.935 145.371C310.413 147.626 304.92 145.788 302.665 141.266C300.411 136.745 302.249 131.251 306.77 128.997V128.96ZM301.714 265.143C301.714 270.192 297.621 274.286 292.571 274.286C287.522 274.286 283.429 270.192 283.429 265.143C283.823 257.754 281.06 250.546 275.828 245.315C270.597 240.083 263.388 237.32 256 237.714C248.603 237.324 241.389 240.096 236.157 245.339C230.924 250.582 228.167 257.802 228.571 265.198C228.541 270.226 224.457 274.286 219.429 274.286H219.374C214.346 274.256 210.286 270.171 210.286 265.143C209.821 252.882 214.488 240.983 223.164 232.307C231.84 223.631 243.739 218.964 256 219.429C268.261 218.964 280.16 223.631 288.836 232.307C297.512 240.983 302.179 252.882 301.714 265.143ZM104.229 129.829C144.869 99.3554 202.789 127.753 205.23 128.96C209.752 131.215 211.589 136.708 209.335 141.23C207.08 145.752 201.587 147.589 197.065 145.335C196.562 145.07 146.779 120.823 115.2 144.421C111.16 147.45 105.43 146.632 102.4 142.592C99.3703 138.552 100.189 132.822 104.229 129.792V129.829ZM100.571 173.714H210.286C220.385 173.714 228.571 165.528 228.571 155.429V137.143C228.571 132.093 232.665 128 237.714 128C242.764 128 246.857 132.093 246.857 137.143V155.429C246.816 168.519 239.755 180.581 228.361 187.026C226.265 219.711 199.802 245.523 167.075 246.804C134.348 248.085 105.948 224.421 101.303 192H100.571C95.522 192 91.4286 187.907 91.4286 182.857C91.4286 177.808 95.522 173.714 100.571 173.714ZM274.286 356.571H237.714C232.665 356.571 228.571 352.478 228.571 347.429C228.571 342.379 232.665 338.286 237.714 338.286H274.286C279.335 338.286 283.429 342.379 283.429 347.429C283.429 352.478 279.335 356.571 274.286 356.571ZM427.794 318.528L423.04 330.688C436.166 338.246 447.417 348.669 455.954 361.179C457.164 363.284 457.487 365.783 456.852 368.125C456.218 370.468 454.678 372.462 452.571 373.669C451.18 374.463 449.602 374.873 448 374.857C444.737 374.854 441.723 373.112 440.091 370.286C439.515 369.371 402.533 310.857 256 310.857C177.417 310.857 130.551 327.314 103.79 342.949C103.726 342.949 103.689 343.031 103.625 343.049C91.0864 349.538 80.2354 358.864 71.936 370.286C70.3584 373.205 67.3233 375.04 64.0055 375.081C60.6877 375.122 57.6082 373.362 55.959 370.483C54.3099 367.604 54.3501 364.057 56.064 361.216C64.6018 348.705 75.8526 338.283 88.9783 330.725L84.2057 318.519C78.6808 304.419 85.5858 288.505 99.6571 282.907L116.718 276.215C123.489 273.533 131.051 273.666 137.724 276.585C144.397 279.503 149.628 284.965 152.256 291.758L156.782 303.223C189.315 295.752 222.622 292.176 256 292.571C289.38 292.167 322.69 295.733 355.227 303.195L359.799 291.675C362.442 284.891 367.685 279.443 374.363 276.54C381.04 273.637 388.6 273.52 395.365 276.215L412.334 282.871C426.436 288.472 433.35 304.426 427.794 318.546V318.528ZM420.571 182.857C420.571 187.907 416.478 192 411.429 192H410.697C406.113 224.482 377.685 248.22 344.907 246.937C312.129 245.655 285.643 219.767 283.611 187.026C272.228 180.574 265.178 168.513 265.143 155.429V137.143C265.143 132.093 269.236 128 274.286 128C279.335 128 283.429 132.093 283.429 137.143V155.429C283.429 165.528 291.615 173.714 301.714 173.714H411.429C416.478 173.714 420.571 177.808 420.571 182.857Z" fill="white"/>
<path d="M512 91.4286C511.965 71.535 499.068 53.948 480.105 47.934C461.143 41.92 440.468 48.8599 428.974 65.0971C449.226 86.0554 466.998 109.276 481.938 134.299C499.918 127.676 511.9 110.589 512 91.4286V91.4286ZM464 73.1428C464 68.0934 468.093 64 473.143 64C478.192 64 482.286 68.0934 482.286 73.1428C481.411 80.4931 484.09 87.8204 489.499 92.8731C493.597 95.6772 494.758 101.212 492.133 105.426C490.469 108.067 487.573 109.677 484.452 109.696C482.84 109.688 481.26 109.243 479.881 108.407C468.785 100.238 462.763 86.8659 464 73.1428V73.1428Z" fill="white"/>
<path d="M347.428 228.571C369.144 228.544 387.854 213.27 392.228 192H302.628C307.009 213.266 325.716 228.537 347.428 228.571V228.571Z" fill="white"/>
</g>
<defs>
<clipPath id="clip0">
<rect width="512" height="512" fill="white"/>
</clipPath>
</defs>
</svg>
