<svg height="512" viewBox="0 0 56 56" width="512" xmlns="http://www.w3.org/2000/svg"><g id="Page-1" fill="none" fill-rule="evenodd"><g id="047---Amazed" fill="rgb(0,0,0)" fill-rule="nonzero" transform="translate(-1)"><path id="Shape" d="m5.489 23.692c2.11985198.7336147 4.4622056.4158565 6.31-.856 2.3450238-1.5220565 4.1342387-3.7624342 5.1-6.386 2.174-5.593.6-11.444-3.516-13.045-.7027808-.27074222-1.449878-.40808872-2.203-.405-3.593 0-7.406 3.023-9.2 7.649-2.18 5.591-.603 11.443 3.509 13.043zm-1.812-13.243c.69149512-1.63571008 1.93313634-2.97816833 3.51-3.795 1.48338419-.78989275 3.2438389-.86887809 4.792-.215 1.5331579.69114277 2.6723135 2.03755119 3.1 3.664.4711423 1.7118057.3296635 3.5344065-.4 5.153-1.0175905 2.5683412-3.4409596 4.3061314-6.2 4.446-.72257703.0020518-1.4376957-.14608-2.1-.435-3.039-1.326-4.248-5.282-2.702-8.818z"/><path id="Shape" d="m50.828 17.435c2.021-.884 2.767-3.659 1.663-6.185-.5047547-1.2066598-1.4147222-2.19938368-2.573-2.807-.5507216-.28431438-1.160258-.43601362-1.78-.443-.452673-.00150219-.9007508.09076915-1.316.271-.9840197.45890998-1.7093134 1.33623993-1.975 2.389-.3406288 1.2628655-.229933 2.605008.313 3.795 1.104 2.524 3.646 3.861 5.668 2.98zm-2.628-6.624c.2372273-.1187373.5119133-.138347.763602-.0545133.2516888.0838338.4597524.2642402.578398.5015133l1 2c.1630317.319984.1419628.7028178-.055198 1.0029789-.1971608.3001612-.5401342.471552-.8985495.4490237-.3584154-.0225284-.6772285-.2355161-.8352525-.5580026l-1-2c-.2465867-.4937628-.046527-1.0939418.447-1.341z"/><path id="Shape" d="m22.068 32c-.3001091-.0029331-.5854118.1301591-.776.362l-2.17 2.628c1.6458676-.0530515 3.2652463-.429185 4.766-1.107l-1.06-1.471c-.173666-.2500815-.4556665-.4029555-.76-.412z"/><path id="Shape" d="m41.105 16.505c.9660186 2.6236845 2.7551498 4.8643083 5.1 6.387 1.8480217 1.2713651 4.1902881 1.5887403 6.31.855 2.0580368-.8908777 3.5697492-2.7073828 4.072-4.893.6990468-2.7059722.5032871-5.5655364-.558-8.151-.9653129-2.62379131-2.7541806-4.8645244-5.099-6.387-1.22824-.79289487-2.6524054-1.229422-4.114-1.261-.7522381-.00307671-1.4984106.13462604-2.2.406-2.0586196.89036005-3.5708362 2.70702488-4.073 4.893-.6972728 2.7064479-.5001204 5.5658598.562 8.151zm1.821-6.4c.4077567-1.63526667 1.5511892-2.98878094 3.0953358-3.66403919 1.5441467-.67525826 3.3142112-.59582171 4.7916642.21503919 1.5777275.8180795 2.819477 2.16242366 3.51 3.8 1.546 3.536.337 7.492-2.694 8.818-.6622688.2890317-1.3774112.4371683-2.1.435-2.7591271-.1396208-5.1826164-1.8774972-6.2-4.446-.7330434-1.6211561-.8756178-3.4477356-.403-5.163z"/><path id="Shape" d="m7.172 17.435c2.022.881 4.562-.455 5.668-2.98.542933-1.189992.6536288-2.5321345.313-3.795-.2656866-1.05276007-.9909803-1.93009002-1.975-2.389-.4154405-.17962522-.8633906-.27187026-1.316-.271-.61974197.00698638-1.22927843.15868562-1.78.443-1.15827783.60761632-2.06824528 1.6003402-2.573 2.807-1.104 2.526-.358 5.301 1.663 6.185zm.282-4.177 1-2c.24934118-.4893845.84671637-.6860743 1.33802945-.440555.49131305.2455192.69265295.8413432.45097055 1.334555l-1 2c-.15802397.3224865-.47683712.5354742-.83525246.5580026-.35841535.0225283-.70138878-.1488625-.89854956-.4490237-.19716078-.3001611-.21822967-.6829949-.05519798-1.0029789z"/><path id="Shape" d="m29 20c-4.9327781.0261076-9.4459453 2.7801982-11.725 7.155-.9530907 1.6310805-1.3749305 3.5183505-1.207 5.4.076999.5868752.3305345 1.1364929.727 1.576.0831699.0776046.1720902.1488077.266.213l2.687-3.254c.5820777-.7156482 1.4648796-1.1185298 2.3868949-1.0892999.9220154.0292298 1.7775258.4872196 2.3131051 1.2382999l1.376 1.91c1.0340228-.285146 2.1035297-.4208548 3.176-.403 1.0722556-.0163445 2.1413596.1203661 3.175.406l1.374-1.907c.5355793-.7510803 1.3910897-1.2090701 2.3131051-1.2382999.9220153-.0292299 1.8048172.3736517 2.3868949 1.0892999l2.686 3.252c.0939098-.0641923.1828301-.1353954.266-.213.3965328-.4399686.6503629-.9898176.728-1.577.1668275-1.8817021-.2553095-3.7687382-1.208-5.4-2.2775722-4.3746987-6.7890095-7.1298279-11.721-7.158z"/><path id="Shape" d="m53.235 25.61c-.9319824.3632372-1.9237354.5487669-2.924.547-1.8304834-.0304387-3.6164045-.569539-5.158-1.557-2.7147028-1.7518967-4.7886198-4.3363109-5.911-7.366-1.2185799-2.9914046-1.4354012-6.297053-.618-9.422.4089916-1.50962777 1.1619919-2.9040473 2.2-4.074-7.653-4.928-15.958-4.938-23.631-.019 2.768 3.1 3.535 8.391 1.565 13.456-1.1229471 3.0291046-3.1967584 5.6130363-5.911 7.365-1.5415709.9878914-3.32733211 1.527982-5.158 1.56-1.00022783.0013669-1.99190731-.1841491-2.924-.547-.90947323-.3558312-1.74521993-.8769439-2.465-1.537-.82363647 2.5829144-1.26168642 5.2732149-1.3 7.984 0 13.233 12.561 24 28 24s28-10.767 28-24c-.0400696-2.6916329-.4722801-5.3630511-1.283-7.93-.7262682.6607005-1.5675059 1.182661-2.482 1.54zm-23.235 13.39h-2c-.5522847 0-1-.4477153-1-1s.4477153-1 1-1h2c.5522847 0 1 .4477153 1 1s-.4477153 1-1 1zm13.908-6.131c-.1373777.9956818-.5800247 1.9242972-1.267 2.658-.9691698.9335622-2.2603507 1.4584849-3.606 1.466-.112 0-.224.007-.336.007-2.2540255-.1449312-4.4573672-.7328061-6.484-1.73-1.0241031-.3943635-2.1186735-.5727632-3.215-.524-1.0960079-.0488848-2.1902766.1295211-3.214.524-1.932.811-4.34 1.834-6.821 1.723-1.3456493-.0075151-2.6368302-.5324378-3.606-1.466-.6868106-.7333009-1.1291503-1.6616553-1.266-2.657-.2502745-2.3023281.2401484-4.624481 1.4-6.629 2.6020416-5.0598204 7.8143249-8.2404907 13.504-8.2404907s10.9019584 3.1806703 13.504 8.2404907c1.1616085 2.0036077 1.6544548 4.3252746 1.407 6.628z"/><path id="Shape" d="m35.932 32c-.30528.0093545-.5880234.162971-.762.414l-1.058 1.47c1.499823.6793871 3.1192592 1.0552731 4.765 1.106l-2.168-2.626c-.1905078-.2327454-.4762396-.3666017-.777-.364z"/></g></g></svg>