<svg height="512" viewBox="0 0 56 56" width="512" xmlns="http://www.w3.org/2000/svg"><g id="Page-1" fill="none" fill-rule="evenodd"><g id="050---Perplexed" fill="rgb(0,0,0)" fill-rule="nonzero" transform="translate(-1)"><path id="Shape" d="m41.105 16.505c.9660186 2.6236845 2.7551498 4.8643083 5.1 6.387 1.8480217 1.2713651 4.1902881 1.5887403 6.31.855 2.0580368-.8908777 3.5697492-2.7073828 4.072-4.893.6990468-2.7059722.5032871-5.5655364-.558-8.151-.9653129-2.62379131-2.7541806-4.8645244-5.099-6.387-1.22824-.79289487-2.6524054-1.229422-4.114-1.261-.7522381-.00307671-1.4984106.13462604-2.2.406-2.0586196.89036005-3.5708362 2.70702488-4.073 4.893-.6972728 2.7064479-.5001204 5.5658598.562 8.151zm1.821-6.4c.4077567-1.63526667 1.5511892-2.98878094 3.0953358-3.66403919 1.5441467-.67525826 3.3142112-.59582171 4.7916642.21503919 1.5777275.8180795 2.819477 2.16242366 3.51 3.8 1.546 3.536.337 7.492-2.694 8.818-.6622688.2890317-1.3774112.4371683-2.1.435-2.7591271-.1396208-5.1826164-1.8774972-6.2-4.446-.7330434-1.6211561-.8756178-3.4477356-.403-5.163z"/><circle id="Oval" cx="33" cy="22" r="1"/><circle id="Oval" cx="25" cy="22" r="1"/><path id="Shape" d="m5.489 23.692c2.11985198.7336147 4.4622056.4158565 6.31-.856 2.3450238-1.5220565 4.1342387-3.7624342 5.1-6.386 2.174-5.593.6-11.444-3.516-13.045-.7027808-.27074222-1.449878-.40808872-2.203-.405-3.593 0-7.406 3.023-9.2 7.649-2.18 5.591-.603 11.443 3.509 13.043zm-1.812-13.243c.69149512-1.63571008 1.93313634-2.97816833 3.51-3.795 1.48338419-.78989275 3.2438389-.86887809 4.792-.215 1.5331579.69114277 2.6723135 2.03755119 3.1 3.664.4711423 1.7118057.3296635 3.5344065-.4 5.153-1.0175905 2.5683412-3.4409596 4.3061314-6.2 4.446-.72257703.0020518-1.4376957-.14608-2.1-.435-3.039-1.326-4.248-5.282-2.702-8.818z"/><path id="Shape" d="m55.763 34.087c.164.137.313.288.466.435.8951199-3.7192663 1.012234-7.583351.344-11.35-.8842625 1.0864433-2.0340271 1.9262054-3.338 2.438-.9319563.3633284-1.9237267.5488613-2.924.547-1.8304834-.0304387-3.6164045-.569539-5.158-1.557-2.7147028-1.7518967-4.7886198-4.3363109-5.911-7.366-1.2185799-2.9914046-1.4354012-6.297053-.618-9.422.4089916-1.50962777 1.1619919-2.9040473 2.2-4.074-7.653-4.928-15.958-4.938-23.631-.019 2.768 3.1 3.535 8.391 1.565 13.456-1.1229471 3.0291046-3.1967584 5.6130363-5.911 7.365-1.5415709.9878914-3.32733211 1.527982-5.158 1.56-2.42917094.0061229-4.72889599-1.0944178-6.248-2.99-.68378701 3.7846288-.57139805 7.6702219.33 11.409.153-.147.3-.3.466-.435.2738262-.2324007.65125023-.3001095.98878484-.1773851.33753461.1227243.58333333.4170309.64394959.7710317.06061627.3540007-.07326079.71332-.35073443.9413534-1.96650281 1.6531741-2.8694122 4.2507325-2.35227946 6.7672164.51713275 2.516484 2.3712031 4.5474882 4.83026497 5.291217s5.12793779.0806631 6.95301449-1.7274334c.2510745-.2599566.6228779-.3642126.9725073-.2726972.3496295.0915155.6226744.3645604.7141899.7141899.0915154.3496294-.0127406.7214328-.2726972.9725073-.9384819.9374491-2.0734847 1.6547244-3.323 2.1 10.3868558 8.7146737 25.5311442 8.7146737 35.918 0-1.2495153-.4452756-2.3845181-1.1625509-3.323-2.1-.3789722-.3923789-.3735524-1.0160848.0121814-1.4018186s1.0094397-.3911536 1.4018186-.0121814c1.8224892 1.8194991 4.4968547 2.4913632 6.9628838 1.7492417s4.3254225-2.7783652 4.8410511-5.3014925c.5156286-2.5231272-.3957891-5.1256164-2.3729349-6.7757492-.2774736-.2280334-.4113507-.5873527-.3507344-.9413534.0606162-.3540008.306415-.6483074.6439496-.7710317.3375346-.1227244.7149586-.0550156.9887848.1773851zm-22.763-15.087c1.6568542 0 3 1.3431458 3 3s-1.3431458 3-3 3-3-1.3431458-3-3 1.3431458-3 3-3zm-8 0c1.6568542 0 3 1.3431458 3 3s-1.3431458 3-3 3-3-1.3431458-3-3 1.3431458-3 3-3zm7 26h-6c-.5522847 0-1-.4477153-1-1s.4477153-1 1-1h6c.5522847 0 1 .4477153 1 1s-.4477153 1-1 1zm20.316-3.052c-.5223657.1737083-1.0868932-.107438-1.263-.629-.073-.212-1.822-5.18-6.889-4.333-1.5536287.2485671-3.0696312.6924145-4.512 1.321-2.152.871-4.184 1.693-10.652 1.693s-8.5-.822-10.652-1.693c-1.4423688-.6285855-2.9583713-1.0724329-4.512-1.321-5.069-.853-6.816 4.121-6.889 4.333-.11343182.3394023-.39931613.5925078-.74996307.6639741-.35064693.0714663-.71278489-.049564-.95-.3175s-.31346875-.6420718-.20003693-.9814741c.785-2.356 3.705-6.569 9.112-5.67 1.7004542.2717146 3.3603056.7547881 4.941 1.438 1.964.796 3.822 1.548 9.9 1.548s7.936-.752 9.9-1.548c1.5787842-.6827344 3.2365911-1.1657995 4.935-1.438 5.4-.906 8.327 3.314 9.112 5.67.1741813.5232462-.1081157 1.0887351-.631 1.264z"/><path id="Shape" d="m7.172 17.435c2.021.881 4.563-.455 5.668-2.98.542933-1.189992.6536288-2.5321345.313-3.795-.2656866-1.05276007-.9909803-1.93009002-1.975-2.389-.4154405-.17962522-.8633906-.27187026-1.316-.271-.61974197.00698638-1.22927843.15868562-1.78.443-1.15827783.60761632-2.06824528 1.6003402-2.573 2.807-1.104 2.526-.358 5.301 1.663 6.185zm.282-4.177 1-2c.24934118-.4893845.84671637-.6860743 1.33802945-.440555.49131305.2455192.69265295.8413432.45097055 1.334555l-1 2c-.15802397.3224865-.47683712.5354742-.83525246.5580026-.35841535.0225283-.70138878-.1488625-.89854956-.4490237-.19716078-.3001611-.21822967-.6829949-.05519798-1.0029789z"/><path id="Shape" d="m50.828 17.435c2.021-.884 2.767-3.659 1.663-6.185-.5047547-1.2066598-1.4147222-2.19938368-2.573-2.807-.5507216-.28431438-1.160258-.43601362-1.78-.443-.452673-.00150219-.9007508.09076915-1.316.271-.9840197.45890998-1.7093134 1.33623993-1.975 2.389-.3406288 1.2628655-.229933 2.605008.313 3.795 1.104 2.524 3.646 3.861 5.668 2.98zm-2.628-6.624c.2372273-.1187373.5119133-.138347.763602-.0545133.2516888.0838338.4597524.2642402.578398.5015133l1 2c.1630317.319984.1419628.7028178-.055198 1.0029789-.1971608.3001612-.5401342.471552-.8985495.4490237-.3584154-.0225284-.6772285-.2355161-.8352525-.5580026l-1-2c-.2465867-.4937628-.046527-1.0939418.447-1.341z"/></g></g></svg>