<svg height="512" viewBox="0 0 56 56" width="512" xmlns="http://www.w3.org/2000/svg"><g id="Page-1" fill="none" fill-rule="evenodd"><g id="037---Evil" fill="rgb(0,0,0)" fill-rule="nonzero"><path id="Shape" d="m33.208 40c-.3972629.0163172-.7454836.2705735-.882.644l-.495 1.322c.9347474-.0527049 1.8531565-.2679253 2.714-.636l-.39-.78c-.1738051-.359451-.5486589-.5771592-.947-.55z"/><path id="Shape" d="m22.792 40c-.3986038-.0282896-.7740466.1897606-.947.55l-.39.78c.8608435.3680747 1.7792526.5832951 2.714.636l-.5-1.322c-.135821-.3718015-.48159-.6257071-.877-.644z"/><circle id="Oval" cx="19" cy="25" r="2"/><path id="Shape" d="m19.776 40.216.28-.559c.5335238-1.0665749 1.6481296-1.715854 2.8390879-1.6538226 1.1909584.0620313 2.2320803.8235919 2.6519121 1.9398226l.77 2.057h3.366l.77-2.057c.4198318-1.1162307 1.4609537-1.8777913 2.6519121-1.9398226 1.1909583-.0620314 2.3055641.5872477 2.8390879 1.6538226l.28.559c.8732828-.8753851 1.456291-1.9981124 1.67-3.216h-19.788c.213709 1.2178876.7967172 2.3406149 1.67 3.216z"/><path id="Shape" d="m53.179 15.763c-.6450354.7802979-1.3912842 1.4710574-2.219 2.054-.4512166.3186683-1.0753317.2112166-1.394-.24-.3186682-.4512167-.2112166-1.0753317.24-1.394 4.471-3.159 4.561-8.549 3.806-12.613-.0742577-.39050299-.3727512-.69994681-.7603266-.78821945-.3875755-.08827264-.7906329.06138873-1.0266734.38121945-1.725 2.446-4.57 5.056-8.825 5.056-.5522847 0-1-.44771525-1-1s.4477153-1 1-1c.7353955-.00028105 1.4667984-.10808802 2.171-.32-10.0994963-7.86765571-24.2541695-7.86435913-34.35.008.6939808.20615474 1.4140466.3112345 2.138.312.5522847 0 1 .44771525 1 1s-.4477153 1-1 1c-3.745 0-6.683-2.031-8.821-5.051-.23471571-.3210346-.63735217-.47247685-1.02545612-.38570123-.38810394.08677561-.68790283.3952744-.76354388.78570123-.756 4.07-.664 9.456 3.8 12.614.42609451.3260229.51898481.930202.21050381 1.3691632-.30848101.4389612-.9083976.5562687-1.35950381.2658368-.81913096-.5746208-1.55885001-1.254826-2.2-2.023-1.53321304 3.1449075-2.45392485 6.5528647-2.713 10.042 2.365-1.9 4.509.545 3.347 2.372-1.42727523 2.3711363-2.06001203 5.1361191-1.806 7.892.27568425-.3182113.58032576-.6101315.91-.872.63153423-.4891617 1.49357697-.5556128 2.19261936-.1690195.6990424.3865932 1.10099808 1.1520768 1.02238064 1.9470195-.17981858 4.1180103 1.24559295 8.1450847 3.976 11.233.613-1.017 1.514-2.036 2.7-1.9.837636.0871573 1.5309302.6896916 1.734 1.507.5 2.12 2.532 6.953 10.633 7.965-.033-2.811 2.525-4.559 2.651-4.643.3364947-.2250903.7755053-.2250903 1.112 0 .126.084 2.684 1.832 2.651 4.643 8.1-1.012 10.129-5.845 10.63-7.952.1796113-.725458.7458148-1.2920256 1.4711571-1.4721034.7253424-.1800777 1.4907873.055887 1.9888429.6131034.3810906.3741868.7100476.7979964.978 1.26 2.7226182-3.0976298 4.1444402-7.1266625 3.969-11.247-.0811161-.7965799.3206797-1.5647642 1.0212423-1.9524901s1.5648511-.3202552 2.1967577.1714901c.3175977.2540645.6148374.5325805.889.833.2611606-2.7429215-.3656238-5.4971972-1.788-7.857-.5026228-.7869395-.3938238-1.8169518.2621194-2.4815132.6559433-.6645615 1.6844477-.7867954 2.4778806-.2944868.207.124.409.262.6.388-.2575165-3.4958737-1.1832437-6.9098959-2.727-10.057zm-23.421-7.733c1.9849717-.49509439 4.0718011-.39457877 6 .289-.3008183-1.06079326-1.0616834-1.93066792-2.073-2.37-.5246705-.17452198-.808522-.74132949-.634-1.266s.7413295-.80852198 1.266-.634c.15.051 3.683 1.284 3.683 5.951.0000552.3688869-.2029784.707846-.528235.881874-.3252565.1740279-.7199063.1548582-1.026765-.049874-1.8800101-1.07073786-4.0992045-1.37927747-6.2-.862-.3498693.0959435-.72426-.00512494-.9783171-.26410116s-.3479281-.63523602-.2452935-.9832013.385675-.61305264.7396106-.69269754zm-8.074-3.979c.5232898-.17673112 1.0907689.1042102 1.2675.6275s-.1042102 1.09076888-.6275 1.2675c-1.0121815.44089327-1.7745959 1.31075716-2.079 2.372 1.9284364-.68254445 4.0150558-.78270218 6-.288.3539356.0796449.636976.34473226.7396106.69269754s.0087636.72422508-.2452935.9832013-.6284478.36004466-.9783171.26410116c-2.1032949-.5176075-4.3250232-.20834808-6.207.864-.3071242.2043771-.7018263.2230611-1.0268832.0486098-.3250569-.1744514-.5276643-.5136993-.5271168-.8826098 0-4.667 3.533-5.9 3.684-5.949zm-10.684 20.949c.0148424-2.9084693 1.602216-5.5812561 4.149-6.986-.5096818-.492009-.8934855-1.0994409-1.119-1.771-.1400042-.5343355.1796645-1.0809958.714-1.221s1.0809958.1796645 1.221.714c.035.105 1.182 3.264 9.035 3.264.395899.00321.7526279.239686.9097599.6030809.1571321.3633949.0850774.785277-.1837599 1.0759191 1.8473024 2.868595 1.6719651 6.5931099-.4366572 9.2754735-2.1086224 2.6823637-5.6864193 3.7321845-8.9100894 2.6144572s-5.3836794-4.1569894-5.3792534-7.5689307zm21.707 22.707c-1.726 1.726-7.688 1.727-9.414 0-.391409-.3853413-.3987577-1.0142475-.0164598-1.4086295.382298-.3943821 1.0111283-.4066021 1.4084598-.0273705 1.181.968 5.46.975 6.633 0 .4086145-.3562248 1.0250325-.328486 1.4.063.3690043.3850289.364126.9939328-.011 1.373zm-1.707-3.707h-6c-8.9 0-9-7.92-9-8 0-.5522847.4477153-1 1-1h22c.5522847 0 1 .4477153 1 1 0 .08-.1 8-9 8zm6-11c-2.9221534-.0071024-5.6083816-1.605534-7.0085401-4.1704097-1.4001586-2.5648756-1.2918668-5.688828.2825401-8.1505903-.2688373-.2906421-.340892-.7125242-.1837599-1.0759191.157132-.3633949.5138609-.5998709.9097599-.6030809 7.945 0 9.026-3.234 9.036-3.267.159256-.520756.7014054-.822735 1.228-.684.5214251.1390586.8354247.6701005.706 1.194-.2255145.6715591-.6093182 1.278991-1.119 1.771 3.2007533 1.7535776 4.8049594 5.4543336 3.8966124 8.9891267s-4.0979808 6.0036608-7.7476124 5.9968733z"/><circle id="Oval" cx="37" cy="25" r="2"/></g></g></svg>