<svg height="512" viewBox="0 0 56 56" width="512" xmlns="http://www.w3.org/2000/svg"><g id="Page-1" fill="none" fill-rule="evenodd"><g id="031---Glum" fill="rgb(0,0,0)" fill-rule="nonzero"><path id="Shape" d="m9 18c4.8028327-.0588354 8.7130772-3.878809 8.8840531-8.67895804.1709759-4.80014899-3.4575777-8.88864612-8.2440531-9.28904196 2.4791821 1.50703627 3.7703111 4.38839151 3.2450045 7.24173259-.5253066 2.85334111-2.7579308 5.08596531-5.61127191 5.61127191-2.85334108.5253066-5.73469632-.7658224-7.24173259-3.2450045.33838154 4.7053742 4.25048074 8.3522463 8.968 8.36z"/><path id="Shape" d="m6 11c2.76142375 0 5-2.23857625 5-5s-2.23857625-5-5-5-5 2.23857625-5 5c.00330612 2.76005315 2.23994685 4.9966939 5 5zm-1-8c.55228475 0 1 .44771525 1 1s-.44771525 1-1 1-1-.44771525-1-1 .44771525-1 1-1z"/><circle id="Oval" cx="32" cy="30" r="1"/><path id="Shape" d="m47 18c4.7175193-.0077537 8.6296185-3.6546258 8.968-8.36-1.5070363 2.4791821-4.3883915 3.7703111-7.2417326 3.2450045s-5.0859653-2.7579308-5.6112719-5.61127191c-.5253066-2.85334108.7658224-5.73469632 3.2450045-7.24173259-4.7864754.40039584-8.415029 4.48889297-8.2440531 9.28904196.1709759 4.80014904 4.0812204 8.62012264 8.8840531 8.67895804z"/><path id="Shape" d="m50 11c2.7614237 0 5-2.23857625 5-5s-2.2385763-5-5-5-5 2.23857625-5 5c.0033061 2.76005315 2.2399468 4.9966939 5 5zm1-8c.5522847 0 1 .44771525 1 1s-.4477153 1-1 1-1-.44771525-1-1 .4477153-1 1-1z"/><path id="Shape" d="m53.481 35.622c-.4241547-.3537384-.4812383-.9843453-.1275-1.4085.3537384-.4241547.9843453-.4812384 1.4085-.1275.165.137.314.288.468.436.5087579-2.1367766.767162-4.3254935.77-6.522.0080055-3.595866-.6856179-7.1587531-2.042-10.489-2.3440294 1.9464918-5.4016924 2.8113404-8.418 2.381-2.285.479-4.194 2.025-5.672 4.605-.2744855.4793832-.8856168.6454855-1.365.371s-.6454855-.8856168-.371-1.365c.9998086-1.8599209 2.4775963-3.4195202 4.281-4.518-1.2554692-.5783914-2.3911516-1.3874126-3.348-2.385-.7289207 1.9297735-1.8756405 3.6744404-3.358 5.109-.3923789.3789722-1.0160848.3735524-1.4018186-.0121814s-.3911536-1.0094397-.0121814-1.4018186c1.6244879-1.532987 2.7582233-3.513022 3.258-5.69-2.3714768-3.9649172-1.9960558-8.99227655.938-12.561-6.7276409-2.72267297-14.2503591-2.72267297-20.978 0 2.9317466 3.56772649 3.3071068 8.5922716.938 12.556.4997767 2.176978 1.6335121 4.157013 3.258 5.69.2599566.2510745.3642126.6228779.2726972.9725073-.0915155.3496295-.3645604.6226744-.7141899.7141899-.3496294.0915154-.7214328-.0127406-.9725073-.2726972-1.4817464-1.4331159-2.6284279-3.1760171-3.358-5.104-.9566745.9983044-2.0923684 1.808012-3.348 2.387 1.8027473 1.0971051 3.2804737 2.6549138 4.281 4.513.2744855.4793832.1083832 1.0905145-.371 1.365s-1.0905145.1083832-1.365-.371c-1.479-2.582-3.39-4.127-5.677-4.605-3.01476769.4304095-6.07092431-.4345268-8.413-2.381-1.35676528 3.3311813-2.05039593 6.8951249-2.042 10.492.00283797 2.1965065.26124214 4.3852234.77 6.522.154-.148.3-.3.468-.436.42415469-.3537384 1.0547616-.2966547 1.40849998.1275s.29665469 1.0547616-.12749998 1.4085c-1.97714584 1.6501328-2.88856348 4.252622-2.37293489 6.7757492.51562859 2.5231273 2.37502195 4.559371 4.84105106 5.3014925 2.46602912.7421215 5.14039463.0702574 6.96288383-1.7492417.2510745-.2599566.6228779-.3642126.9725073-.2726972.3496295.0915155.6226744.3645604.7141899.7141899.0915154.3496294-.0127406.7214328-.2726972.9725073-.9384191.9375276-2.0734406 1.6548148-3.323 2.1 10.3868558 8.7146737 25.5311442 8.7146737 35.918 0-1.2495594-.4451852-2.3845809-1.1624724-3.323-2.1-.3789722-.3923789-.3735524-1.0160848.0121814-1.4018186s1.0094397-.3911536 1.4018186-.0121814c1.8224892 1.8194991 4.4968547 2.4913632 6.9628838 1.7492417s4.3254225-2.7783652 4.8410511-5.3014925c.5156286-2.5231272-.3957891-5.1256164-2.3729349-6.7757492zm-21.481-8.622c1.6568542 0 3 1.3431458 3 3s-1.3431458 3-3 3-3-1.3431458-3-3 1.3431458-3 3-3zm-8 0c1.6568542 0 3 1.3431458 3 3s-1.3431458 3-3 3-3-1.3431458-3-3 1.3431458-3 3-3zm7 18h-6c-.5522847 0-1-.4477153-1-1s.4477153-1 1-1h6c.5522847 0 1 .4477153 1 1s-.4477153 1-1 1zm20.316-3.051c-.5229573.1742701-1.0883175-.1075155-1.264-.63-.072-.212-1.827-5.177-6.887-4.333-1.5538474.2485089-3.0701467.6920088-4.513 1.32-2.152.871-4.184 1.694-10.652 1.694s-8.5-.823-10.652-1.694c-1.4428533-.6279912-2.9591526-1.0714911-4.513-1.32-5.067-.848-6.815 4.121-6.887 4.333-.17535041.5246705-.74282949.8078504-1.2675.6325s-.80785041-.7428295-.6325-1.2675c.785-2.356 3.694-6.576 9.114-5.67 1.6997316.2711398 3.3587021.7545862 4.938 1.439 1.964.796 3.821 1.547 9.9 1.547s7.936-.751 9.9-1.547c1.5780249-.6840939 3.2356321-1.1675346 4.934-1.439 5.417-.9 8.329 3.314 9.114 5.67.1747458.5238384-.1081923 1.0901623-.632 1.265z"/><circle id="Oval" cx="24" cy="30" r="1"/></g></g></svg>