<svg height="512" viewBox="0 0 56 56" width="512" xmlns="http://www.w3.org/2000/svg"><g id="Page-1" fill="none" fill-rule="evenodd"><g id="028---Worried" fill="rgb(0,0,0)" fill-rule="nonzero" transform="translate(0 -1)"><circle id="Oval" cx="28" cy="19" r="3"/><path id="Shape" d="m53.481 36.622c-.4241547-.3540145-.4810145-.9848453-.127-1.409s.9848453-.4810145 1.409-.127c.164.138.313.288.466.435 2.5152206-10.4953542-1.2254876-21.5019721-9.6150537-28.29122642-8.3895661-6.78925431-19.9342823-8.15236237-29.6743452-3.5037101-9.74006294 4.64865227-15.94131758 14.48140252-15.9396011 25.27393652.00262602 2.1962478.26137375 4.3846965.771 6.521.153-.147.3-.3.466-.435.27437997-.2290073.65009144-.2942387.98560752-.1711223.33551609.1231164.57986391.4158764.64100001.768.0611361.3521237-.07022755.7101151-.34460753.9391223-1.97714584 1.6501328-2.88856348 4.252622-2.37293489 6.7757492.51562859 2.5231273 2.37502195 4.559371 4.84105106 5.3014925 2.46602912.7421215 5.14039463.0702574 6.96288383-1.7492417.2510745-.2599566.6228779-.3642126.9725073-.2726972.3496295.0915155.6226744.3645604.7141899.7141899.0915154.3496294-.0127406.7214328-.2726972.9725073-.9384191.9375276-2.0734406 1.6548148-3.323 2.1 10.3868558 8.7146737 25.5311442 8.7146737 35.918 0-1.2495594-.4451852-2.3845809-1.1624724-3.323-2.1-.3789722-.3923789-.3735524-1.0160848.0121814-1.4018186s1.0094397-.3911536 1.4018186-.0121814c1.8224892 1.8194991 4.4968547 2.4913632 6.9628838 1.7492417s4.3254225-2.7783652 4.8410511-5.3014925c.5156286-2.5231272-.3957891-5.1256164-2.3729349-6.7757492zm-25.481-32.622c8.2842712 0 15 6.7157288 15 15s-6.7157288 15-15 15-15-6.7157288-15-15c.0093685-8.2803876 6.7196124-14.99063148 15-15zm3 42h-6c-.5522847 0-1-.4477153-1-1s.4477153-1 1-1h6c.5522847 0 1 .4477153 1 1s-.4477153 1-1 1zm20.316-3.051c-.5226542.1736189-1.0873099-.1080383-1.263-.63-.073-.212-1.824-5.176-6.889-4.333-1.5534643.2487778-3.0693995.6922695-4.512 1.32-2.152.871-4.184 1.694-10.652 1.694s-8.5-.823-10.652-1.694c-1.4426005-.6277305-2.9585357-1.0712222-4.512-1.32-5.073-.844-6.816 4.121-6.889 4.333-.17535041.5246705-.74282949.8078504-1.2675.6325s-.80785041-.7428295-.6325-1.2675c.785-2.356 3.7-6.567 9.112-5.67 1.7007288.2710089 3.3607079.7544556 4.941 1.439 1.964.796 3.822 1.547 9.9 1.547s7.936-.751 9.9-1.547c1.5783826-.6840646 3.2363166-1.1675028 4.935-1.439 5.4-.9 8.327 3.314 9.112 5.67.1748338.5235491-.1075922 1.0897438-.631 1.265z"/></g></g></svg>