<svg height="512" viewBox="0 0 56 56" width="512" xmlns="http://www.w3.org/2000/svg"><g id="Page-1" fill="none" fill-rule="evenodd"><g id="030---Amazed" fill="rgb(0,0,0)" fill-rule="nonzero" transform="translate(0 -1)"><circle id="Oval" cx="28" cy="25" r="3"/><circle id="Oval" cx="45" cy="12" r="3"/><circle id="Oval" cx="11" cy="12" r="3"/><path id="Shape" d="m53.481 36.622c-.4241547-.3540145-.4810145-.9848453-.127-1.409s.9848453-.4810145 1.409-.127c.164.138.313.288.466.435.5096263-2.1363035.768374-4.3247522.771-6.521.0029979-2.858841-.4355027-5.7009999-1.3-8.426-.3608268.4156874-.7472446.8084508-1.157 1.176-.4142136.3656125-1.0463875.3262136-1.412-.088s-.3262136-1.0463875.088-1.412c3.0667414-2.701405 4.3830004-6.8803449 3.4179913-10.85164812-.9650092-3.97130321-4.052187-7.08022737-8.0166187-8.07308837-3.9644317-.99286101-8.1525079.29403254-10.8753726 3.34173649-.3697514.40536269-.9970687.43709925-1.4058429.07112289-.4087742-.36597635-.4463269-.99297235-.0841571-1.40512289.3384223-.37461725.6983644-.72921702 1.078-1.062-5.4377954-1.69911615-11.2652656-1.69388189-16.7.015.3728501.32833436.7264381.67791571 1.059 1.047.3683739.41200443.3330044 1.04462606-.079 1.41299998-.4120044.36837391-1.0446261.33300442-1.413-.07899998-2.723462-3.04526625-6.9103225-4.33028838-10.873231-3.33718843-3.96290855.99309994-7.04898089 4.10070998-8.0144962 8.07042935-.9655153 3.96971938.34859388 8.14754168 3.4127272 10.84975908.41421356.3658886.45338865.9982864.0875 1.4125s-.99828644.4533886-1.4125.0875c-.39352628-.3516695-.76521757-.7270343-1.113-1.124-.85450635 2.709141-1.28855004 5.5332917-1.287 8.374.00262602 2.1962478.26137375 4.3846965.771 6.521.153-.147.3-.3.466-.435.27437997-.2290073.65009144-.2942387.98560752-.1711223.33551609.1231164.57986391.4158764.64100001.768.0611361.3521237-.07022755.7101151-.34460753.9391223-1.97714584 1.6501328-2.88856348 4.252622-2.37293489 6.7757492.51562859 2.5231273 2.37502195 4.559371 4.84105106 5.3014925 2.46602912.7421215 5.14039463.0702574 6.96288383-1.7492417.2510745-.2599566.6228779-.3642126.9725073-.2726972.3496295.0915155.6226744.3645604.7141899.7141899.0915154.3496294-.0127406.7214328-.2726972.9725073-.9384191.9375276-2.0734406 1.6548148-3.323 2.1 10.3868558 8.7146737 25.5311442 8.7146737 35.918 0-1.2495594-.4451852-2.3845809-1.1624724-3.323-2.1-.3789722-.3923789-.3735524-1.0160848.0121814-1.4018186s1.0094397-.3911536 1.4018186-.0121814c1.8224892 1.8194991 4.4968547 2.4913632 6.9628838 1.7492417s4.3254225-2.7783652 4.8410511-5.3014925c.5156286-2.5231272-.3957891-5.1256164-2.3729349-6.7757492zm-8.481-33.622c4.9705627 0 9 4.02943725 9 9 0 4.9705627-4.0294373 9-9 9s-9-4.0294373-9-9c.0055111-4.96827817 4.0317218-8.99448887 9-9zm-17 12c5.5228475 0 10 4.4771525 10 10s-4.4771525 10-10 10-10-4.4771525-10-10c.0060624-5.5203344 4.4796656-9.9939376 10-10zm-26-3c0-4.97056275 4.02943725-9 9-9 4.9705627 0 9 4.02943725 9 9 0 4.9705627-4.0294373 9-9 9-4.96827817-.0055111-8.99448887-4.0317218-9-9zm29 34h-6c-.5522847 0-1-.4477153-1-1s.4477153-1 1-1h6c.5522847 0 1 .4477153 1 1s-.4477153 1-1 1zm20.316-3.051c-.5226542.1736189-1.0873099-.1080383-1.263-.63-.073-.212-1.822-5.176-6.889-4.333-1.5534643.2487778-3.0693995.6922695-4.512 1.32-2.152.871-4.184 1.694-10.652 1.694s-8.5-.823-10.652-1.694c-1.4426005-.6277305-2.9585357-1.0712222-4.512-1.32-5.069-.844-6.816 4.121-6.889 4.333-.17535041.5246705-.74282949.8078504-1.2675.6325s-.80785041-.7428295-.6325-1.2675c.785-2.356 3.705-6.567 9.112-5.67 1.7007288.2710089 3.3607079.7544556 4.941 1.439 1.964.796 3.822 1.547 9.9 1.547s7.936-.751 9.9-1.547c1.5783826-.6840646 3.2363166-1.1675028 4.935-1.439 5.4-.9 8.327 3.314 9.112 5.67.1748338.5235491-.1075922 1.0897438-.631 1.265z"/></g></g></svg>