<svg height="512" viewBox="0 0 56 56" width="512" xmlns="http://www.w3.org/2000/svg"><g id="Page-1" fill="none" fill-rule="evenodd"><g id="019---Worried" fill="rgb(0,0,0)" fill-rule="nonzero" transform="translate(0 -1)"><circle id="Oval" cx="12.001" cy="30" r="1"/><path id="Shape" d="m21.068 48c-.3026525-.0152796-.5932379.1202769-.776.362l-2.17 2.629c1.6471055-.0451429 3.2682849-.4212756 4.767-1.106l-1.061-1.473c-.1737755-.2499592-.4557093-.402797-.76-.412z"/><circle id="Oval" cx="28.001" cy="13" r="1.999"/><path id="Shape" d="m34.932 48c-.3051943.009671-.5878045.1632152-.762.414l-1.059 1.47c1.4989954.6840344 3.119965 1.0604585 4.767 1.107l-2.169-2.627c-.1843177-.240566-.4741929-.3763633-.777-.364z"/><circle id="Oval" cx="5.001" cy="28" r="1"/><path id="Shape" d="m53.381 13.033 2.587-10.786c.0873276-.33941253-.0094019-.69977177-.2549582-.94982992s-.6040989-.35331769-.9450418-.27217008l-11.143 2.375c3.9466432 2.42169651 7.284427 5.71739878 9.756 9.633z"/><path id="Shape" d="m2.621 13.034c2.47117346-3.91618994 5.80902458-7.21230081 9.756-9.634l-11.134-2.372c-.34520394-.08495915-.70955994.01974085-.957.275-.24394389.24488648-.34084006.60017244-.255.935z"/><circle id="Oval" cx="44.001" cy="30" r="1"/><circle id="Oval" cx="51.001" cy="28" r="1"/><path id="Shape" d="m28 1c-15.463973 0-28 12.536027-28 28s12.536027 28 28 28 28-12.536027 28-28c-.0176345-15.4566626-12.5433374-27.98236546-28-28zm-23 30c-1.65685425 0-3-1.3431458-3-3s1.34314575-3 3-3 3 1.3431458 3 3-1.34314575 3-3 3zm23-28c8.2803876.00936852 14.9906315 6.71961243 15 15 .0070337 2.2683032-.5061136 4.5080202-1.5 6.547-.1088636.2241897-.2975185.3996495-.529.492-3.271 1.301-7.631 1.961-12.971 1.961s-9.7-.66-12.97-1.961c-.2314815-.0923505-.4201364-.2678103-.529-.492-.994232-2.0388975-1.5077223-4.2786184-1.501-6.547.0093685-8.28038757 6.7196124-14.99063148 15-15zm-19 27c0-1.6568542 1.3431458-3 3-3s3 1.3431458 3 3-1.3431458 3-3 3-3-1.3431458-3-3zm33.908 18.87c-.1376396.995309-.5802648 1.9235292-1.267 2.657-.9694546.9331241-2.2604524 1.4579724-3.606 1.466-2.3710012-.075684-4.6975585-.6634638-6.82-1.723-1.0250754-.3907627-2.1188949-.56904-3.215-.524-1.0961051-.04504-2.1899246.1332373-3.215.524-2.0268938.9974437-4.2306126 1.5853286-6.485 1.73-.113 0-.224 0-.336-.007-1.3455476-.0080276-2.6365454-.5328759-3.606-1.466-.6868106-.7333009-1.1291503-1.6616553-1.266-2.657-.2502803-2.302648.2401361-4.6251201 1.4-6.63 2.6020416-5.0598204 7.8143249-8.2404907 13.504-8.2404907s10.9019584 3.1806703 13.504 8.2404907c1.1623748 2.004063 1.6555874 4.3265061 1.408 6.63zm1.092-15.87c-1.6568542 0-3-1.3431458-3-3s1.3431458-3 3-3 3 1.3431458 3 3-1.3431458 3-3 3zm7-2c-1.6568542 0-3-1.3431458-3-3s1.3431458-3 3-3 3 1.3431458 3 3-1.3431458 3-3 3z"/><path id="Shape" d="m28 36c-4.9327781.0261076-9.4459453 2.7801982-11.725 7.155-.9527165 1.6312275-1.3745293 3.5183768-1.207 5.4.0769486.5865935.3305041 1.1359055.727 1.575.0834047.0776377.1723021.1491567.266.214l2.687-3.255c.576615-.7187733 1.4591351-1.1225819 2.38-1.089.9245801.0283387 1.7829605.4865607 2.321 1.239l1.376 1.91c1.0337114-.2849974 2.102867-.4207044 3.175-.403 1.0723251-.0164023 2.1414841.1206521 3.175.407l1.374-1.907c.537083-.7555183 1.3965038-1.2164905 2.323-1.246.9232473-.0319068 1.8068349.3763025 2.381 1.1l2.686 3.253c.0939308-.0645308.1828507-.1360679.266-.214.3964334-.4392495.650279-.9884346.728-1.575.1666274-1.8816889-.2554961-3.7686649-1.208-5.4-2.2766146-4.3782894-6.7902644-7.136139-11.725-7.164z"/></g></g></svg>