<svg height="512" viewBox="0 0 56 56" width="512" xmlns="http://www.w3.org/2000/svg"><g id="Page-1" fill="none" fill-rule="evenodd"><g id="004---Happy" fill="rgb(0,0,0)" fill-rule="nonzero" transform="translate(-1)"><path id="Rectangle-path" d="m16 33h5v5h-5z"/><path id="Shape" d="m28 35.964c-2.317-.164-3.994-.919-5-2.246v4.282h5z"/><path id="Shape" d="m35 33.718c-1.006 1.327-2.683 2.082-5 2.246v2.036h5z"/><path id="Shape" d="m57 10c-.0038453-2.17586183-1.4144008-4.09943871-3.4884588-4.75721728-2.0740581-.65777857-4.3353975.10127269-5.5925412 1.87721728 2.2145522 2.29240753 4.1583053 4.8317349 5.793 7.568 1.9669728-.7233251 3.2777869-2.5922718 3.288-4.688zm-5.25-2c0-.55228475.4477153-1 1-1s1 .44771525 1 1c-.0956587.80393436.197354 1.60535546.789 2.158.44878.30676.5758193.9128437.288 1.374-.1821767.2884526-.4988406.4641256-.84.466-.1764079-.000513-.3493146-.0492727-.5-.141-1.2136425-.8934534-1.8723192-2.35604168-1.737-3.857z"/><path id="Shape" d="m4.288 14.688c1.63469472-2.7362651 3.5784478-5.27559247 5.793-7.568-1.23607978-1.76899668-3.46765775-2.54531444-5.53477779-1.9254296-2.06712005.61988483-3.50326803 2.49607471-3.56194589 4.65334136-.05867787 2.15726664 1.273357 4.10875134 3.30372368 4.84008824zm-.824-4.532c.58747581-.55441197.8788222-1.35357586.786-2.156 0-.55228475.44771525-1 1-1s1 .44771525 1 1c.135772 1.5005804-.52211079 2.9630899-1.735 3.857-.46768344.265901-1.06192131.1141344-1.34482503-.3434644-.28290372-.4575987-.15307125-1.0570112.29382503-1.3565356z"/><circle id="Oval" cx="29" cy="17" r="2"/><path id="Shape" d="m14 33h-3.58c-.3049321-.0034739-.59378242.1365074-.78.378-.19293468.2485191-.25944582.5725761-.18.877.32354648 1.2791086.7458127 2.5311966 1.263 3.745h3.277z"/><path id="Rectangle-path" d="m37 33h5v5h-5z"/><path id="Shape" d="m45.907 7.789c-4.634-4.613-10.447-7.789-16.907-7.789s-12.273 3.176-16.907 7.789c-.0326097.03575628-.0676965.06917223-.105.1-6.765 6.797-10.988 16.652-10.988 24.111 0 13.233 12.561 24 28 24s28-10.767 28-24c0-7.459-4.223-17.314-10.988-24.107-.0374428-.03211029-.0725329-.06686623-.105-.104zm-22.167-1.359c3.1382279-.51381878 6.33475-.56570162 9.488-.154.3618702.03773143.6746941.26902714.816829.60394709.1421349.33491994.0911506.72061031-.1331275 1.00709422-.2242781.2864839-.5864567.42855124-.9457015.37095869-2.9578573-.38553058-5.9561633-.33701866-8.9.144-.0544666.00962243-.1096908.01430811-.165.014-.5187749-.00293158-.9491603-.40209479-.9910793-.91918164-.0419189-.51708685.3185508-.98036269.8300793-1.06681836zm-8.255 6.713c4.1691337-2.167195 8.8174105-3.24818156 13.515-3.143 4.6975895-.10518156 9.3458663.975805 13.515 3.143.4598944.289808.6040531.893912.3245776 1.3601576s-.8802129.6238462-1.3525776.3548424c-.74569-.4057595-1.5200945-.7563638-2.317-1.049 1.3549278 3.2799516 1.0374121 7.012997-.852 10.017.563.113.89.2.933.206.4872811.1263257.8047011.5951711.7410144 1.0945158s-.4886248.8735093-.9920144.8734842c-.0846924.0001354-.1690507-.0106194-.251-.032-3.2025604-.6905782-6.4731716-1.0153245-9.749-.968-3.2758284-.0473245-6.5464396.2774218-9.749.968-.348891.0982737-.7236464.0000596-.9794919-.2567006-.2558454-.2567602-.3527213-.6318638-.2532029-.9804018.0995184-.3485381.3798488-.6159376.7326948-.6988976.043-.011.37-.093.933-.206-1.8894121-3.004003-2.2069278-6.7370484-.852-10.017-.7969055.2926362-1.57131.6432405-2.317 1.049-.4723647.2690038-1.0731021.1114032-1.3525776-.3548424s-.1353168-1.0703496.3245776-1.3601576zm34.452 19.006c.57535.7351354.775697 1.6962094.542 2.6-1.307 5.184-6.016 17.251-21.479 17.251s-20.172-12.067-21.479-17.256c-.23232812-.9020804-.03243481-1.8609033.541-2.595.56512621-.7281443 1.43629043-1.1526429 2.358-1.149h11.6c-.0528807-.7771998.0289914-1.5576915.242-2.307.1689991-.5260512.7324488-.8154991 1.2585-.6465s.8154991.7324488.6465 1.2585c-.3157179 1.0684293-.1707073 2.220176.4 3.177.74 1.007 2.233 1.518 4.433 1.518s3.693-.51 4.434-1.517c.5710235-.9581821.716021-2.111275.4-3.181-.1678946-.5263274.1226726-1.0891054.649-1.257.5263274-.1678945 1.0891054.1226726 1.257.649.21222.7491062.2934142 1.5292475.24 2.306h11.6c.9214637-.003791 1.7923853.4207694 2.357 1.149z"/><path id="Shape" d="m19.03 47.614c1.77-2.795 5.615-4.614 9.97-4.614s8.2 1.819 9.97 4.614c3.1272213-1.7815849 5.676435-4.4245197 7.344-7.614h-34.627c1.66688 3.1896428 4.215834 5.8326682 7.343 7.614z"/><path id="Shape" d="m29 45c-3.515 0-6.694 1.4-8.156 3.488 2.5920355 1.0380243 5.3641282 1.5519287 8.156 1.512 2.7918718.0399287 5.5639645-.4739757 8.156-1.512-1.462-2.088-4.641-3.488-8.156-3.488z"/><path id="Shape" d="m48.54 34.256c.0794612-.3047428.0129629-.6291072-.18-.878-.1862176-.2414926-.4750679-.3814739-.78-.378h-3.58v5h3.277c.5171647-1.2134693.9394311-2.4652232 1.263-3.744z"/></g></g></svg>