<svg height="512" viewBox="0 0 56 56" width="512" xmlns="http://www.w3.org/2000/svg"><g id="Page-1" fill="none" fill-rule="evenodd"><g id="002---Scared" fill="rgb(0,0,0)" fill-rule="nonzero" transform="translate(-1)"><path id="Shape" d="m16.141 39h2.859v-2.858c-1.415197.3382006-2.5203043 1.4429214-2.859 2.858z"/><path id="Shape" d="m19 43.858v-2.858h-2.858c.3658904 1.3993145 1.4586855 2.4921096 2.858 2.858z"/><path id="Rectangle-path" d="m21 41h4v3h-4z"/><path id="Shape" d="m21 36v3h4v-2.735c-.182-.083-.361-.169-.527-.265z"/><path id="Shape" d="m57 10c-.0038453-2.17586183-1.4144008-4.09943871-3.4884588-4.75721728-2.0740581-.65777857-4.3353975.10127269-5.5925412 1.87721728 2.2145522 2.29240753 4.1583053 4.8317349 5.793 7.568 1.9669728-.7233251 3.2777869-2.5922718 3.288-4.688zm-5.25-2c0-.55228475.4477153-1 1-1s1 .44771525 1 1c-.0956587.80393436.197354 1.60535546.789 2.158.44878.30676.5758193.9128437.288 1.374-.1821767.2884526-.4988406.4641256-.84.466-.1764079-.000513-.3493146-.0492727-.5-.141-1.2136425-.8934534-1.8723192-2.35604168-1.737-3.857z"/><path id="Rectangle-path" d="m27 41h4v3h-4z"/><circle id="Oval" cx="29" cy="18" r="2"/><path id="Shape" d="m4.288 14.688c1.63469472-2.7362651 3.5784478-5.27559247 5.793-7.568-1.23607978-1.76899668-3.46765775-2.54531444-5.53477779-1.9254296-2.06712005.61988483-3.50326803 2.49607471-3.56194589 4.65334136-.05867787 2.15726664 1.273357 4.10875134 3.30372368 4.84008824zm-.824-4.532c.58747581-.55441197.8788222-1.35357586.786-2.156 0-.55228475.44771525-1 1-1s1 .44771525 1 1c.135772 1.5005804-.52211079 2.9630899-1.735 3.857-.46768344.265901-1.06192131.1141344-1.34482503-.3434644-.28290372-.4575987-.15307125-1.0570112.29382503-1.3565356z"/><path id="Shape" d="m39 43.858c1.415197-.3382006 2.5203043-1.4429214 2.859-2.858h-2.859z"/><path id="Shape" d="m27 36.853v2.147h4v-2.147c-1.3261304.1959992-2.6738696.1959992-4 0z"/><path id="Shape" d="m45.907 7.789c-4.634-4.613-10.447-7.789-16.907-7.789s-12.273 3.176-16.907 7.789c-.0326097.03575628-.0676965.06917223-.105.1-6.765 6.797-10.988 16.652-10.988 24.111 0 13.233 12.561 24 28 24s28-10.767 28-24c0-7.459-4.223-17.314-10.988-24.107-.0374428-.03211029-.0725329-.06686623-.105-.104zm-22.167-1.359c3.1382356-.51373281 6.3347451-.56561545 9.488-.154.3618702.03773143.6746941.26902714.816829.60394709.1421349.33491994.0911506.72061031-.1331275 1.00709422-.2242781.2864839-.5864567.42855124-.9457015.37095869-2.9578573-.38553058-5.9561633-.33701866-8.9.144-.0544666.00962243-.1096908.01430811-.165.014-.5187749-.00293158-.9491603-.40209479-.9910793-.91918164-.0419189-.51708685.3185508-.98036269.8300793-1.06681836zm-5.74 11.57c-.0021667-1.4380409.2799046-2.862331.83-4.191-.7969055.2926362-1.57131.6432405-2.317 1.049-.4723647.2690038-1.0731021.1114032-1.3525776-.3548424s-.1353168-1.0703496.3245776-1.3601576c4.1691337-2.167195 8.8174105-3.24818156 13.515-3.143 4.6975895-.10518156 9.3458663.975805 13.515 3.143.4598944.289808.6040531.893912.3245776 1.3601576s-.8802129.6238462-1.3525776.3548424c-.74569-.4057595-1.5200945-.7563638-2.317-1.049 1.2868705 3.1209982 1.0693649 6.6600725-.59 9.6 1.0034551-.3371889 1.9760411-.7600815 2.907-1.264.4723647-.2690038 1.0731021-.1114032 1.3525776.3548424s.1353168 1.0703496-.3245776 1.3601576c-4.1694065 2.1661551-8.8176688 3.2461066-13.515 3.14-4.6975895.1051816-9.3458663-.975805-13.515-3.143-.4598944-.289808-.6040531-.893912-.3245776-1.3601576s.8802129-.6238462 1.3525776-.3548424c.9311537.5037926 1.9036996.9270023 2.907 1.265-.9351156-1.6483294-1.4245308-3.5118983-1.42-5.407zm-7 22c0 .5522847-.4477153 1-1 1-.55228475 0-1-.4477153-1-1-.07160175-4.3877337 2.5947922-8.3566076 6.684-9.949.3394023-.1136105.7136334-.0375219.9817241.1996039s.3893116.5992638.318.95c-.0713116.3507363-.3243218.6367856-.6637241.7503961-3.3012139 1.2828289-5.4336365 4.5091201-5.32 8.049zm21 11h-6c-.5522847 0-1-.4477153-1-1s.4477153-1 1-1h6c.5522847 0 1 .4477153 1 1s-.4477153 1-1 1zm10.251-6.757c-1.1276364 1.1266699-2.6569655 1.7587638-4.251 1.757h-18c-3.3137085 0-6-2.6862915-6-6s2.6862915-6 6-6h2.551c-.6032645-1.3558083-.7056783-2.8817376-.289-4.306.1093233-.3402955.3918876-.5964182.7412538-.6718892.3493661-.075471.7124571.0411755.9525.306s.3205695.6375937.2112462.9778892c-.3157179 1.0684293-.1707073 2.220176.4 3.177.74 1.007 2.233 1.517 4.433 1.517s3.693-.51 4.434-1.517c.5710235-.9581821.716021-2.111275.4-3.181-.1678946-.5263274.1226726-1.0891054.649-1.257.5263274-.1678945 1.0891054.1226726 1.257.649.4160498 1.4244974.3129269 2.9504327-.291 4.306h2.551c2.4256145.0023186 4.6117306 1.4634646 5.5415061 3.7038058.9297755 2.2403411.4206727 4.8200438-1.2905061 6.5391942zm6.749-4.243c0 .5522847-.4477153 1-1 1s-1-.4477153-1-1c.1153613-3.5413261-2.0173657-6.7696816-5.32-8.053-.5246705-.1756266-.8076266-.7433295-.632-1.268s.7433295-.8076266 1.268-.632c4.0905987 1.5929024 6.7572887 5.5638127 6.684 9.953z"/><path id="Shape" d="m39 36.142v2.858h2.858c-.3658904-1.3993145-1.4586855-2.4921096-2.858-2.858z"/><path id="Rectangle-path" d="m33 41h4v3h-4z"/><path id="Shape" d="m33 36.265v2.735h4v-3h-3.473c-.166.1-.345.182-.527.265z"/></g></g></svg>