<svg height="512" viewBox="0 0 56 56" width="512" xmlns="http://www.w3.org/2000/svg"><g id="Page-1" fill="none" fill-rule="evenodd"><g id="011---Excided" fill="rgb(0,0,0)" fill-rule="nonzero" transform="translate(-1 -1)"><path id="Shape" d="m54.38 13.034 2.586-10.787c.0873276-.33941253-.0094019-.69977177-.2549582-.94982992s-.6040989-.35331769-.9450418-.27217008l-11.142 2.375c3.946909 2.42178396 7.2847426 5.71787755 9.756 9.634z"/><circle id="Oval" cx="6" cy="28" r="1"/><circle id="Oval" cx="9" cy="21" r="1"/><circle id="Oval" cx="13" cy="30" r="1"/><path id="Shape" d="m3.619 13.035c2.47122659-3.91675567 5.80946137-7.21324968 9.757-9.635l-11.134-2.372c-.34520394-.08495915-.70955994.01974085-.957.275-.24377193.24457392-.34066879.59948241-.255.934z"/><circle id="Oval" cx="49" cy="21" r="1"/><circle id="Oval" cx="45" cy="30" r="1"/><circle id="Oval" cx="29" cy="18" r="3"/><path id="Shape" d="m28.3 49.117-2.644 2.644c2.2199563.3186599 4.4740437.3186599 6.694 0l-2.65-2.644c-.3888435-.3811429-1.0111565-.3811429-1.4 0z"/><path id="Shape" d="m46.538 37h-2.938l-3.221 3.76c-.5683984.6677275-1.4021151 1.0511128-2.279 1.048h-.094c-.9104197-.0268391-1.7591154-.4666445-2.306-1.195l-2.7-3.613h-8l-2.7 3.609c-.5475318.7308989-1.3981728 1.1725991-2.311 1.2h-.094c-.875531.0011416-1.707358-.3824129-2.275-1.049l-3.22-3.76h-2.938c-.3147573 0-.6111456.1481942-.8.4-.1872394.2439715-.2483955.5619834-.165.858 1.19 4.271 4.39 10.933 12.779 13.056l3.607-3.614c1.1705777-1.1658241 3.0634223-1.1658241 4.234 0l3.609 3.609c8.389-2.123 11.589-8.785 12.779-13.056.0833955-.2960166.0222394-.6140285-.165-.858-.1903203-.2504867-.4874175-.3968126-.802-.395z"/><path id="Shape" d="m29 1c-15.463973 0-28 12.536027-28 28s12.536027 28 28 28 28-12.536027 28-28c-.0176345-15.4566626-12.5433374-27.98236546-28-28zm20 17c1.6568542 0 3 1.3431458 3 3s-1.3431458 3-3 3-3-1.3431458-3-3 1.3431458-3 3-3zm-1 12c0 1.6568542-1.3431458 3-3 3s-3-1.3431458-3-3 1.3431458-3 3-3 3 1.3431458 3 3zm-19-27c8.2842712 0 15 6.71572875 15 15 0 8.2842712-6.7157288 15-15 15s-15-6.7157288-15-15c.0093685-8.28038757 6.7196124-14.99063148 15-15zm-13 27c0 1.6568542-1.3431458 3-3 3s-3-1.3431458-3-3 1.3431458-3 3-3 3 1.3431458 3 3zm-7-12c1.6568542 0 3 1.3431458 3 3s-1.3431458 3-3 3c-1.65685425 0-3-1.3431458-3-3s1.34314575-3 3-3zm-3 13c-1.65685425 0-3-1.3431458-3-3s1.34314575-3 3-3 3 1.3431458 3 3-1.34314575 3-3 3zm43.432 7.793c-1.274 4.573-5.815 15.207-20.432 15.207s-19.158-10.634-20.432-15.207c-.24736467-.9025204-.05940591-1.8687765.50824089-2.6127586s1.44995341-1.1804616 2.38575911-1.1802414h35.076c.9358057-.0002202 1.8181123.4362593 2.3857591 1.1802414s.7556056 1.7102382.5082409 2.6127586zm2.568-7.793c-1.6568542 0-3-1.3431458-3-3s1.3431458-3 3-3 3 1.3431458 3 3-1.3431458 3-3 3z"/><path id="Shape" d="m19.929 39.807c.3052212-.0083292.5899127-.155647.773-.4l1.798-2.407h-5.47l2.106 2.459c.2010898.2258816.4906175.3529378.793.348z"/><circle id="Oval" cx="52" cy="28" r="1"/><path id="Shape" d="m38.071 39.807c.3003566.0016898.5872483-.1244844.789-.347l2.107-2.46h-5.467l1.8 2.411c.1834684.2423059.4671757.3880233.771.396z"/></g></g></svg>