<svg height="512" viewBox="0 0 56 56" width="512" xmlns="http://www.w3.org/2000/svg"><g id="Page-1" fill="none" fill-rule="evenodd"><g id="015---Heart-Eyed" fill="rgb(0,0,0)" fill-rule="nonzero" transform="translate(-1)"><circle id="Oval" cx="29" cy="44" r="3"/><path id="Shape" d="m29 24.949c8.112-2.672 11-8.452 11-12.631 0-3.106-1.87-6.318-5-6.318-1.9826749-.0058005-3.8781546.81457154-5.231 2.264-.1901006.22762878-.4714311.35913614-.768.359-.2963827-.00040773-.5773152-.13226652-.767-.36-1.3536589-1.44992714-3.2504093-2.27001623-5.234-2.263-3.13 0-5 3.212-5 6.318 0 4.182 2.888 9.959 11 12.631z"/><path id="Shape" d="m4.288 14.688c1.63469472-2.7362651 3.5784478-5.27559247 5.793-7.568-1.23607978-1.76899668-3.46765775-2.54531444-5.53477779-1.9254296-2.06712005.61988483-3.50326803 2.49607471-3.56194589 4.65334136-.05867787 2.15726664 1.273357 4.10875134 3.30372368 4.84008824zm-.824-4.532c.58747581-.55441197.8788222-1.35357586.786-2.156 0-.55228475.44771525-1 1-1s1 .44771525 1 1c.135772 1.5005804-.52211079 2.9630899-1.735 3.857-.46768344.265901-1.06192131.1141344-1.34482503-.3434644-.28290372-.4575987-.15307125-1.0570112.29382503-1.3565356z"/><path id="Shape" d="m57 10c-.0038453-2.17586183-1.4144008-4.09943871-3.4884588-4.75721728-2.0740581-.65777857-4.3353975.10127269-5.5925412 1.87721728 2.2145522 2.29240753 4.1583053 4.8317349 5.793 7.568 1.9667877-.7235656 3.2774977-2.5923639 3.288-4.688zm-5.25-2c0-.55228475.4477153-1 1-1s1 .44771525 1 1c-.0956587.80393436.197354 1.60535546.789 2.158.4483198.3070672.5752745.9127471.288 1.374-.1821767.2884526-.4988406.4641256-.84.466-.1764221-.000411-.3493557-.0491783-.5-.141-1.2136425-.8934534-1.8723192-2.35604168-1.737-3.857z"/><path id="Shape" d="m45.907 7.789c-4.634-4.613-10.447-7.789-16.907-7.789s-12.273 3.176-16.907 7.789c-.0326097.03575628-.0676965.06917223-.105.1-6.765 6.797-10.988 16.652-10.988 24.111 0 13.233 12.561 24 28 24s28-10.767 28-24c0-7.459-4.222-17.313-10.987-24.106-.0380147-.03218514-.073456-.06729203-.106-.105zm-22.907-3.789c2.2020538.00240745 4.3304818.79311845 6 2.229 1.6695182-1.43588155 3.7979462-2.22659255 6-2.229 3.925 0 7 3.654 7 8.318 0 4.907-3.326 11.682-12.7 14.636-.1952853.0614144-.4047147.0614144-.6 0-9.374-2.954-12.7-9.729-12.7-14.636 0-4.664 3.075-8.318 7-8.318zm-2.68 30.947c-3.3026343 1.2833184-5.4353613 4.5116739-5.32 8.053 0 .5522847-.4477153 1-1 1s-1-.4477153-1-1c-.0716018-4.3877337 2.5947922-8.3566076 6.684-9.949.5246705-.1756265 1.0923734.1073295 1.2679999.632.1756266.5246705-.1073294 1.0923734-.6319999 1.268zm9.68 18.053h-2c-.5522847 0-1-.4477153-1-1s.4477153-1 1-1h2c.5522847 0 1 .4477153 1 1s-.4477153 1-1 1zm-1-4c-2.7614237 0-5-2.2385763-5-5s2.2385763-5 5-5 5 2.2385763 5 5c-.0033061 2.7600532-2.2399468 4.9966939-5 5zm6.058-14.349c-1.136 1.559-3.174 2.349-6.058 2.349s-4.922-.79-6.058-2.349c-.9398544-1.473682-1.1882843-3.2846627-.68-4.957.1689992-.5260512.7324488-.8154991 1.2585-.6464999.5260512.1689991.8154991.7324487.6465 1.2584999-.3157179 1.0684293-.1707073 2.220176.4 3.177.74 1.007 2.233 1.517 4.433 1.517s3.693-.51 4.434-1.517c.5710235-.9581821.716021-2.111275.4-3.181-.1678946-.5263274.1226726-1.0891054.649-1.257.5263274-.1678945 1.0891054.1226726 1.257.649.5076943 1.6726259.2585311 3.4836256-.682 4.957zm8.942 9.349c-.5522847 0-1-.4477153-1-1 .1153613-3.5413261-2.0173657-6.7696816-5.32-8.053-.5246705-.1756266-.8076266-.7433295-.632-1.268s.7433295-.8076266 1.268-.632c4.0905987 1.5929024 6.7572887 5.5638127 6.684 9.953 0 .5522847-.4477153 1-1 1z"/></g></g></svg>