<svg height="512" viewBox="0 0 56 56" width="512" xmlns="http://www.w3.org/2000/svg"><g id="Page-1" fill="none" fill-rule="evenodd"><g id="021---Not-Amused" fill="rgb(0,0,0)" fill-rule="nonzero" transform="translate(-1)"><circle id="Oval" cx="13" cy="26" r="2"/><path id="Shape" d="m19.7571 22.2016c-.8118125-3.0656729-3.5857612-5.2006706-6.7571-5.2006706-3.17133883 0-5.94528745 2.1349977-6.7571 5.2006706 1.93906295-1.4759759 4.320723-2.251969 6.7571-2.2016 2.436377-.050369 4.818037.7256241 6.7571 2.2016z"/><path id="Shape" d="m35.7571 10.2016c-.8118125-3.06567291-3.5857612-5.20067063-6.7571-5.20067063s-5.9452875 2.13499772-6.7571 5.20067063c1.939063-1.47597589 4.320723-2.25196896 6.7571-2.2016 2.436377-.05036896 4.818037.72562411 6.7571 2.2016z"/><circle id="Oval" cx="29" cy="14" r="2"/><path id="Shape" d="m54.481 35.6221c-.4242099-.3537936-.4812936-.9844901-.1275-1.4087s.9844901-.4812936 1.4087-.1275c.1647.1375.3142.2883.4675.4357 1.9972121-8.3377143.0643368-17.1308993-5.2453284-23.8624512-5.3096653-6.73155191-13.410788-10.65939094-21.9843716-10.6591488-8.5736363-.000334-16.6748448 3.92746623-21.98457869 10.659031-5.30973389 6.7315648-7.24264571 15.5248035-5.24542131 23.862569.1533-.1474.3028-.2982.4675-.4357.42420992-.3538765 1.05497355-.2968599 1.40885.12735s.29685992 1.0549735-.12735 1.40885c-1.97748511 1.6500353-2.88917415 4.2526817-2.37359324 6.7760208s2.37514462 4.5597497 4.84139619 5.3018191c2.46625158.7420694 5.14079175.0699235 6.96319705-1.7499399.3919029-.3820936 1.0181666-.3781252 1.4051959.0089041s.3909977 1.013293.0089041 1.4051959c-.9384015.9374039-2.0732963 1.6546757-3.3227 2.1 10.3868803 8.714399 25.5309197 8.714399 35.9178 0-1.2494037-.4453243-2.3842985-1.1625961-3.3227-2.1-.3745516-.3929533-.3671857-1.0129674.0165956-1.3969116s1.0037921-.3915732 1.3969044-.0171884c1.8224053 1.8198634 4.4969455 2.4920093 6.963197 1.7499399 2.4662516-.7420694 4.3258153-2.77848 4.8413962-5.3018191.515581-2.5233391-.3961081-5.1259855-2.3735932-6.7760208zm-25.481-32.6221c4.9705627 0 9 4.02943725 9 9 0 4.9705627-4.0294373 9-9 9s-9-4.0294373-9-9c.0055111-4.96827817 4.0317218-8.99448887 9-9zm-25 21c0-4.9705627 4.02943725-9 9-9 4.9705627 0 9 4.0294373 9 9s-4.0294373 9-9 9c-4.96827817-.0055111-8.99448887-4.0317218-9-9zm28 21h-6c-.5522847 0-1-.4477153-1-1s.4477153-1 1-1h6c.5522847 0 1 .4477153 1 1s-.4477153 1-1 1zm20.3164-3.0513c-.2511064.0842034-.5253791.0651946-.7624688-.0528439s-.4175708-.3254353-.5017312-.5765561c-.0722-.2119-1.8271-5.18-6.8876-4.333-1.5537822.2483689-3.0699996.6918743-4.5127 1.32-2.1519.8709-4.1841 1.6937-10.6519 1.6937s-8.5-.8228-10.6519-1.6938c-1.4427004-.6281257-2.9589178-1.0716311-4.5127-1.32-5.0673-.8447-6.8159 4.1211-6.8876 4.333-.17554372.523704-.74239599.8059437-1.26609999.6304-.52370401-.1755437-.8059437-.742396-.63040001-1.2661.7851-2.3555 3.6933-6.5757 9.1133-5.67 1.6982808.2718013 3.3558425.7551952 4.934 1.4389 1.9659.7961 3.8228 1.5476 9.9014 1.5476s7.9355-.7515 9.9014-1.5474c1.5781575-.6837048 3.2357192-1.1670987 4.934-1.4389 5.4166-.9038 8.3282 3.3144 9.1133 5.67.0839032.2515976.0644222.5262209-.0541573.7634549-.1185795.2372341-.3265439.4176455-.5781427.5015451zm-7.3164-8.9487c-4.9705627 0-9-4.0294373-9-9s4.0294373-9 9-9 9 4.0294373 9 9c-.0122031 4.9654993-4.0345007 8.9877969-9 9z"/><circle id="Oval" cx="45" cy="26" r="2"/><path id="Shape" d="m45 17c-3.1696952.0057145-5.9407131 2.1388377-6.7571 5.2016 4.0264988-2.9355198 9.4877012-2.9355198 13.5142 0-.8163869-3.0627623-3.5874048-5.1958855-6.7571-5.2016z"/></g></g></svg>