<svg height="512" viewBox="0 0 56 56" width="512" xmlns="http://www.w3.org/2000/svg"><g id="Page-1" fill="none" fill-rule="evenodd"><g id="032---Crying" fill="rgb(0,0,0)" fill-rule="nonzero" transform="translate(-1)"><path id="Shape" d="m48.784 44.186c-.979872-2.8855119-2.1094027-5.7180171-3.384-8.486-.088-.2-.174-.4-.262-.6-1.114-.6-3.015-1.561-5.314-2.507l-1.8 3.6c-.3359123.6795052-1.029002 1.1088562-1.787 1.107-.058 0-.117 0-.175-.008-.8181749-.0674055-1.5110951-.6300806-1.745-1.417l-1.647-5.493c-1.2091383-.2388923-2.4375826-.3667576-3.67-.382-1.2324174.0152424-2.4608617.1431077-3.67.382l-1.647 5.49c-.2335615.7873124-.9265574 1.350446-1.745 1.418-.058.005-.117.008-.175.008-.7573448.0013306-1.4495887-.427977-1.785-1.107l-1.8-3.6c-2.3.946-4.2 1.91-5.314 2.507-.088.2-.174.4-.262.6-1.2752754 2.7679431-2.4054739 5.6004489-3.386 8.486-.117.364-.251.739-.387 1.122-.616 1.726-1.253 3.511-.446 4.947.08725334.1424337.18769463.2763554.3.4 1.24333112-1.9188481 2.7592056-3.6466082 4.5-5.129l.577-4.62c.0944335-.7584701.6128928-1.3967965 1.3358855-1.6447405s1.5240788-.062144 2.0641145.4787405l2.1 2.1c3.0943149-1.2468503 6.4040889-1.8714257 9.74-1.838 3.3380604-.0335805 6.6499547.5916899 9.746 1.84l2.1-2.1c.5400357-.5408845 1.3411218-.7266845 2.0641145-.4787405s1.241452.8862704 1.3358855 1.6447405l.577 4.62c1.7407944 1.4823918 3.2566689 3.2101519 4.5 5.129.1105699-.1238601.209332-.2577748.295-.4.807-1.436.17-3.221-.446-4.947-.137-.383-.272-.758-.388-1.122z"/><path id="Shape" d="m44.124 47.992c-.0410945.0055719-.0825302.0082452-.124.008-.503848-.0006461-.9285232-.3760402-.991-.876l-.747-5.971-3.554 3.554c-.3904999.3903819-1.0235001.3903819-1.414 0-.3532618-.3582703-.3812371-.9246617-.065-1.316-2.6394515-.9455293-5.4254162-1.4164585-8.229-1.391-2.8032483-.0253404-5.5888642.4455871-8.228 1.391.3162371.3913383.2882618.9577297-.065 1.316-.3904999.3903819-1.0235001.3903819-1.414 0l-3.554-3.554-.747 5.971c-.0625244.5003376-.4877709.8758577-.992.876-.0418034.0002923-.0835749-.0023811-.125-.008-.1146473-.0170406-.2253626-.0542843-.327-.11-1.2057225 1.1536274-2.2735282 2.4432493-3.182 3.843.091.029.175.069.27.093 1.9728691.484306 4.0563346-.0753353 5.521-1.483 1.6064314-1.5903754 3.4648431-2.9041035 5.5-3.888 2.3323652-.9347329 4.831166-1.382904 7.343-1.317 2.5095078-.0652006 5.0058811.3829623 7.336 1.317 2.0296661.9784775 3.8833836 2.2861491 5.486 3.87 1.467053 1.4180155 3.5589682 1.9843163 5.541 1.5.095-.024.179-.064.27-.093-.9084718-1.3997507-1.9762775-2.6893726-3.182-3.843-.1015704.0560641-.212289.0936474-.327.111z"/><path id="Shape" d="m47.3 19.932c.451 4.124.938 5.032 1.031 5.173.3906692.6055043 1.0768616.9540368 1.7962506.9123561s1.3607376-.4671298 1.6788627-1.113701c.318125-.6465711.2638358-1.414287-.1421133-2.0096551-.091-.14-.738-.941-4.364-2.962z"/><path id="Shape" d="m52.59 42.966c-.0807125-.2527503-.0576711-.5272159.0640517-.7629717s.3321476-.4134738.5849483-.4940283c.0573551-.0112637.1155656-.0176201.174-.019 4.999884-8.8983148 4.7576794-19.813232-.632-28.481-.2254634-.3623331-.1961446-.8278199.073-1.159.9301135-1.0290434 2.1821637-1.7116594 3.551-1.936-3.614-5.81-8.89-4.372-9.128-4.3-.4124017.1180603-.8541617-.04005668-1.0979812-.39299503-.2438195-.35293834-.235378-.82206688.0209812-1.16600497 1.0293959-1.45661308 2.3653733-2.67005196 3.914-3.555-3.7127208-1.14750639-7.7199905-.86865918-11.238.782-.2425039.1145942-.5200716.13037324-.774.044-5.8981693-2.02209525-12.3018307-2.02209525-18.2 0-.2539139.08647946-.5315226.07069809-.774-.044-3.5189873-1.65234684-7.5281337-1.93122537-11.242-.782 1.54862667.88494804 2.8846041 2.09838692 3.914 3.555.2552857.34460111.2624191.81361475.0177314 1.16582015-.2446877.35220539-.6867113.50917615-1.0987314.39017985-.235-.065-5.53-1.461-9.127 4.3 1.36837338.224859 2.61994504.9074063 3.55 1.936.26914456.3311801.2984634.7966669.073 1.159-5.3896061 8.6692404-5.63028514 19.5856447-.628 28.484.05843792.0013261.11665305.0076829.174.019.25280072.0805545.46322551.2582725.58494828.4940283.12172278.2357558.14476425.5102214.06405172.7629717-.1.316-.218.642-.336.973-.8 2.232-1.873 5.253-.173 8.278 1.04788491 1.7617514 2.76920739 3.0196965 4.766 3.483 3.2644819.802992 6.7136994-.0967384 9.17-2.392.534-.475 1.034-.92 1.525-1.326.4255354-.3520815 1.0559185-.2925354 1.408.133s.2925354 1.0559185-.133 1.408c-.413.341-.838.72-1.274 1.108 5.6159284 1.8067451 11.6570716 1.8067451 17.273 0-.438-.39-.862-.769-1.273-1.108-.2752732-.2277568-.4081292-.5850693-.3485226-.9373412.0596066-.352272.3026202-.6459849.6375-.7705.3348798-.1245152.7107495-.0609156.9860226.1668412.491.406.991.851 1.515 1.317 2.4568556 2.3016452 5.9110288 3.204697 9.18 2.4 1.9969895-.462818 3.7186838-1.7204096 4.767-3.482 1.7-3.025.623-6.046-.164-8.252-.128-.357-.245-.683-.346-.999zm-7.143-28.861c.4942948.2465952.6950951.8472051.4485 1.3415-.2465952.4942948-.8472052.6950951-1.3415.4485-.3-.148-7.362-3.563-11.786 1.745-.2256201.2843523-.5876116.4241148-.9457805.3651597-.3581689-.0589552-.6562658-.3073693-.7788424-.6490353-.1225765-.3416661-.0503823-.7229263.1886229-.9961244 5.443-6.534 14.128-2.298 14.215-2.255zm-15.347-4.186c.2344101-.49955321.8291661-.71481101 1.329-.481 4.237 1.984 7.673-1.922 7.817-2.089.2322226-.27152185.5916604-.39852908.9429165-.33317931.3512561.06534978.6409665.31312838.76.65.1190335.33687163.0493061.71165746-.1829165.98317931-1.7530752 2.0191859-4.2603578 3.2272533-6.932 3.34-1.1258216-.0021271-2.2370439-.2549105-3.253-.74-.2401657-.112571-.4257706-.3159441-.5159774-.5653724-.0902068-.2494284-.0776249-.5244766.0349774-.7646276zm-12.749-2.68c.419847-.35809221 1.0504046-.30841733 1.409.111.153.177 3.583 4.072 7.816 2.088.498009-.22286695 1.0827416-.00541031 1.3141113.48870577.2313696.49411613.0239667 1.08248983-.4661113 1.32229423-1.0161437.4845498-2.1272428.7373052-3.253.74-2.6716422-.1127467-5.1789248-1.3208141-6.932-3.34-.1721665-.201812-.2570922-.46376189-.2360871-.72820124.0210052-.26443935.1462197-.50969726.3480871-.68179876zm-4.8 6.866c.087-.043 8.772-4.279 14.215 2.255.2390052.2731981.3111994.6544583.1886229.9961244-.1225766.341666-.4206735.5900801-.7788424.6490353-.3581689.0589551-.7201604-.0808074-.9457805-.3651597-4.424-5.308-11.488-1.892-11.786-1.745-.4942948.2465951-1.0949048.0457948-1.3415-.4485-.2465951-.4942949-.0457948-1.0949048.4485-1.3415zm-8.471 10.688c-.21204167-1.0382672-.00073058-2.1182216.587-3 .2-.308.825-1.244 5.058-3.6.6534453-.3642649 1.455553-.3333852 2.0790586.0800399.6235057.4134251.9641474 1.1402631.8829414 1.8839601-.528 4.817-1.149 5.754-1.353 6.061-.5842702.8863915-1.49891303 1.5021551-2.54 1.71-.2633185.0534774-.53130629.0806111-.8.081-1.90373748-.0040061-3.54087084-1.3491826-3.914-3.216zm47.28 26.443c-.4149655.7023222-.9950874 1.2927421-1.69 1.72-.029127.0293869-.0601971.0567821-.093.082-.0522557.0270868-.1068008.0495072-.163.067-.489038.2878851-1.0152848.5072668-1.564.652-.6275939.1595324-1.2724499.2411469-1.92.243-2.0122905-.0246489-3.9433482-.7974998-5.417-2.168-1.4487835-1.4450673-3.1251-2.6423396-4.962-3.544-2.0823963-.8267736-4.3113599-1.2207806-6.551-1.158-2.2395025-.0634162-4.4684613.3299094-6.551 1.156-1.8292655.8968417-3.4988182 2.088028-4.942 3.526-1.9590646 1.8625242-4.7334265 2.5959936-7.357 1.945-.54871517-.1447332-1.07496199-.3641149-1.564-.652-.05619922-.0174928-.11074431-.0399132-.163-.067-.0328029-.0252179-.06387298-.0526131-.093-.082-.69491263-.4272579-1.27503451-1.0176778-1.69-1.72-1.254-2.231-.39-4.653.305-6.6.129-.362.256-.716.366-1.06 1.00094745-2.9521025 2.15586347-5.8497401 3.46-8.681.3273333-.7453333.6526667-1.49.976-2.234 4.543-10.54 16.736-10.661 17.253-10.661s12.71.121 17.253 10.661c.322.7446667.6473333 1.4893333.976 2.234 1.3041365 2.8312599 2.4590525 5.7288975 3.46 8.681.11.344.237.7.366 1.06.695 1.947 1.559 4.369.305 6.6zm.85-23.9c-.6513658.4348461-1.4168219.6672664-2.2.668-.2686937-.0003889-.5366815-.0275226-.8-.081-1.041087-.2078449-1.9557298-.8236085-2.54-1.71-.2-.307-.825-1.244-1.353-6.06-.0818861-.7441692.2587019-1.4717575.8826278-1.8855322.623926-.4137747 1.4266991-.4444397 2.0803722-.0794678 4.232 2.36 4.853 3.3 5.057 3.6 1.2207178 1.8410622.7179503 4.3231133-1.123 5.544z"/><path id="Shape" d="m8.4 25.96c.52054348-.1039225.97786492-.4118042 1.27-.855.093-.141.58-1.049 1.031-5.173-3.624 2.021-4.271 2.822-4.364 2.962-.44718787.6740376-.44433279 1.5510795.00723401 2.2221914s1.26292482 1.0041414 2.05576599.8438086z"/><path id="Shape" d="m17.105 30.447c-.2468713-.4942949-.0462949-1.0951287.448-1.342s1.0951287-.0462949 1.342.448l2.872 5.747 1.843-6.145.431-1.438c.1809453-.4870705.7047646-.7544163 1.2053587-.6151885.5005941.1392277.8111597.6386368.7146413 1.1491885 1.0054609-.1581883 2.0212104-.2420821 3.039-.251 1.0174015.0075302 2.0328472.0904237 3.038.248-.0977004-.5109545.2126648-1.0114757.7137855-1.1511109s1.0256018.1282596 1.2062145.6161109l2.275 7.587 2.867-5.747c.2468713-.4942949.8477051-.6948713 1.342-.448s.6948713.8477051.448 1.342l-.176.351c1.129.468 2.164.938 3.06 1.37-4.446-8.038-14.667-8.168-14.774-8.168s-10.327.13-14.778 8.168c.9-.432 1.931-.9 3.06-1.37z"/></g></g></svg>