<svg height="512" viewBox="0 0 56 56" width="512" xmlns="http://www.w3.org/2000/svg"><g id="Page-1" fill="none" fill-rule="evenodd"><g id="038---Heart-Eyed" fill="rgb(0,0,0)" fill-rule="nonzero"><path id="Shape" d="m33.208 44c-.3972909.0153519-.7458416.269454-.882.643l-.375 1c.8275339-.1487794 1.6430514-.3580064 2.44-.626l-.236-.471c-.1741535-.358679-.5493324-.5749912-.947-.546z"/><path id="Shape" d="m25 22.576c0-2.249-1.31-4.576-3.5-4.576-1.4160299.0001876-2.7674296.5926714-3.727 1.634-.1903969.2309092-.4737189.3650564-.773.366-.2973897-.0010988-.5788609-.1345044-.768-.364-.9603238-1.0434502-2.3138994-1.6368183-3.732-1.636-2.19 0-3.5 2.327-3.5 4.576 0 3.091 2.1 7.364 8 9.371 5.9-2.007 8-6.28 8-9.371z"/><path id="Shape" d="m22.792 44c-.3985007-.0290341-.774175.1887538-.947.549l-.236.471c.7969486.2679936 1.6124661.4772206 2.44.626l-.375-1c-.1351862-.3747251-.4839502-.6301691-.882-.646z"/><path id="Shape" d="m28 36c-6.482 0-11 2.635-11 5 0 1.118 1.019 2.293 2.769 3.225l.287-.572c.5335238-1.0665749 1.6481296-1.715854 2.8390879-1.6538226 1.1909584.0620313 2.2320803.8235919 2.6519121 1.9398226l.745 1.991c.554.041 1.12.07 1.708.07s1.154-.029 1.708-.07l.745-1.991c.4198318-1.1162307 1.4609537-1.8777913 2.6519121-1.9398226 1.1909583-.0620314 2.3055641.5872477 2.8390879 1.6538226l.287.572c1.75-.932 2.769-2.107 2.769-3.225 0-2.365-4.518-5-11-5z"/><path id="Shape" d="m53.179 15.763c-.6450354.7802979-1.3912842 1.4710574-2.219 2.054-.4512166.3186683-1.0753317.2112166-1.394-.24-.3186682-.4512167-.2112166-1.0753317.24-1.394 4.471-3.159 4.561-8.549 3.806-12.613-.0742577-.39050299-.3727512-.69994681-.7603266-.78821945-.3875755-.08827264-.7906329.06138873-1.0266734.38121945-1.725 2.446-4.57 5.056-8.825 5.056-.5522847 0-1-.44771525-1-1s.4477153-1 1-1c.7353955-.00028105 1.4667984-.10808802 2.171-.32-10.0992509-7.86837011-24.2544152-7.86507342-34.35.008.6939808.20615474 1.4140466.3112345 2.138.312.5522847 0 1 .44771525 1 1s-.4477153 1-1 1c-1.5599113.00737644-3.09782884-.36791803-4.479-1.093l-.017-.01c-1.73096827-.95911502-3.21242689-2.3114384-4.325-3.948-.23471571-.3210346-.63735217-.47247685-1.02545612-.38570123-.38810394.08677561-.68790283.3952744-.76354388.78570123-.756 4.07-.664 9.456 3.8 12.614.42609451.3260229.51898481.930202.21050381 1.3691632-.30848101.4389612-.9083976.5562687-1.35950381.2658368-.81913096-.5746208-1.55885001-1.254826-2.2-2.023-1.53321304 3.1449075-2.45392485 6.5528647-2.713 10.042l.093-.074c.148-.1.3-.2.463-.3.77012478-.488783 1.76970901-.4143935 2.459.183.73135288.6544085.87263647 1.7459519.332 2.565-1.426857 2.3705694-2.05957823 5.1347834-1.806 7.89.27568425-.3182113.58032576-.6101315.91-.872.69181604-.5549281 1.66978688-.5770615 2.386-.054.57230853.4280211.88523557 1.1195559.829 1.832-.17981858 4.1180103 1.24559295 8.1450847 3.976 11.233.26762775-.4540021.5941253-.8706143.971-1.239.449376-.4664636 1.0830511-.7087187 1.729-.661.837636.0871573 1.5309302.6896916 1.734 1.507.5 2.12 2.532 6.953 10.633 7.965-.033-2.811 2.525-4.559 2.651-4.643.3364947-.2250903.7755053-.2250903 1.112 0 .126.084 2.684 1.832 2.651 4.643 8.1-1.012 10.129-5.845 10.63-7.952.1984752-.8227274.8933148-1.431463 1.735-1.52.6446945-.0472095 1.2769387.1950591 1.725.661.3810906.3741868.7100476.7979964.978 1.26 2.7215521-3.0966691 4.1432934-7.1240405 3.969-11.243-.0562735-.715491.2567476-1.4101716.83-1.842.7169662-.5242728 1.6968641-.5008833 2.388.057.3175977.2540645.6148374.5325805.889.833.2624222-2.7443408-.3655493-5.5002623-1.791-7.86-.4166698-.6271175-.4388016-1.4370643-.057-2.086.2715703-.4719435.7243251-.812303 1.2531411-.9420517.5288159-.1297488 1.0876898-.0375997 1.5468589.2550517.171.1.346.219.513.332l.085.056c-.2568897-3.4957401-1.1819363-6.9097559-2.725-10.057zm-23.421-7.733c1.9849717-.49509439 4.0718011-.39457877 6 .289-.3008183-1.06079326-1.0616834-1.93066792-2.073-2.37-.5246705-.17452198-.808522-.74132949-.634-1.266s.7413295-.80852198 1.266-.634c.15.051 3.683 1.284 3.683 5.951.0000552.3688869-.2029784.707846-.528235.881874-.3252565.1740279-.7199063.1548582-1.026765-.049874-1.8799431-1.07093491-4.0992153-1.37948534-6.2-.862-.3498693.0959435-.72426-.00512494-.9783171-.26410116s-.3479281-.63523602-.2452935-.9832013.385675-.61305264.7396106-.69269754zm-8.074-3.979c.5232898-.17673112 1.0907689.1042102 1.2675.6275s-.1042102 1.09076888-.6275 1.2675c-1.0121815.44089327-1.7745959 1.31075716-2.079 2.372 1.9284364-.68254445 4.0150558-.78270218 6-.288.3539356.0796449.636976.34473226.7396106.69269754s.0087636.72422508-.2452935.9832013-.6284478.36004466-.9783171.26410116c-2.1033003-.51750359-4.3249897-.20824958-6.207.864-.3071242.2043771-.7018263.2230611-1.0268832.0486098-.3250569-.1744514-.5276643-.5136993-.5271168-.8826098 0-4.667 3.533-5.9 3.684-5.949zm-14.684 18.525c0-3.688 2.416-6.576 5.5-6.576 1.6422118.0033295 3.2324909.5758299 4.5 1.62 1.2675091-1.0441701 2.8577882-1.6166705 4.5-1.62 3.084 0 5.5 2.888 5.5 6.576 0 3.817-2.539 9.086-9.695 11.377-.1985036.0626749-.4114964.0626749-.61 0-7.156-2.291-9.695-7.56-9.695-11.377zm23.442 25.3c-.007 0-.014 0-.022 0h-.006c-.782.079-1.586.124-2.414.124s-1.632-.045-2.414-.121h-.006c-.008 0-.015 0-.022 0-6.082-.602-10.558-3.405-10.558-6.879 0-3.925 5.71-7 13-7s13 3.075 13 7c0 3.474-4.476 6.277-10.558 6.877zm8.863-13.924c-.1985036.0626749-.4114964.0626749-.61 0-7.156-2.29-9.695-7.559-9.695-11.376 0-3.688 2.416-6.576 5.5-6.576 1.6422118.0033295 3.2324909.5758299 4.5 1.62 1.2675091-1.0441701 2.8577882-1.6166705 4.5-1.62 3.084 0 5.5 2.888 5.5 6.576 0 3.817-2.539 9.086-9.695 11.377z"/><path id="Shape" d="m43.5 18c-1.4160299.0001876-2.7674296.5926714-3.727 1.634-.1903969.2309092-.4737189.3650564-.773.366-.2973897-.0010988-.5788609-.1345044-.768-.364-.9603238-1.0434502-2.3138994-1.6368183-3.732-1.636-2.19 0-3.5 2.327-3.5 4.576 0 3.091 2.1 7.364 8 9.371 5.9-2.007 8-6.28 8-9.371 0-2.249-1.31-4.576-3.5-4.576z"/></g></g></svg>