<svg height="512" viewBox="0 0 56 56" width="512" xmlns="http://www.w3.org/2000/svg"><g id="Page-1" fill="none" fill-rule="evenodd"><g id="046---Goofy" fill="rgb(0,0,0)" fill-rule="nonzero" transform="translate(-1)"><path id="Shape" d="m7 11c2.76142375 0 5-2.23857625 5-5s-2.23857625-5-5-5-5 2.23857625-5 5c.00330612 2.76005315 2.23994685 4.9966939 5 5zm-1-8c.55228475 0 1 .44771525 1 1s-.44771525 1-1 1-1-.44771525-1-1 .44771525-1 1-1z"/><path id="Shape" d="m42.7 38.994c.4227611.0545661.8355686-.1564067 1.039-.531.9174389-1.8193763 1.3503688-3.8445378 1.257-5.88-1.6009706.5981399-3.2467776 1.0686094-4.922 1.407.7737852 1.3540167 1.368426 2.8028022 1.769 4.31.1123351.3878495.4542707.6647495.857.694z"/><path id="Shape" d="m10 18c4.8028327-.0588354 8.7130772-3.878809 8.8840531-8.67895804.1709759-4.80014899-3.4575777-8.88864612-8.2440531-9.28904196 2.4791821 1.50703627 3.7703111 4.38839151 3.2450045 7.24173259-.5253066 2.85334111-2.7579308 5.08596531-5.61127191 5.61127191-2.85334108.5253066-5.73469632-.7658224-7.24173259-3.2450045.33790972 4.7055998 4.25028871 8.3527328 8.968 8.36z"/><path id="Shape" d="m48 18c4.7177113-.0072672 8.6300903-3.6544002 8.968-8.36-1.5070363 2.4791821-4.3883915 3.7703111-7.2417326 3.2450045s-5.0859653-2.7579308-5.6112719-5.61127191c-.5253066-2.85334108.7658224-5.73469632 3.2450045-7.24173259-4.7864754.40039584-8.415029 4.48889297-8.2440531 9.28904196.1709759 4.80014904 4.0812204 8.62012264 8.8840531 8.67895804z"/><path id="Shape" d="m54.964 17.507c-2.3445607 1.9508545-5.4058575 2.8171015-8.425 2.384-2.285.48-4.193 2.027-5.672 4.606-.1703866.3237798-.5039941.5286593-.8698279.5341903s-.7054825-.1891696-.8855794-.5076505c-.1800968-.3184809-.1718865-.7098913.0214073-1.0205398.9991772-1.8600516 2.4766879-3.4197229 4.28-4.518-1.2554692-.5783914-2.3911516-1.3874126-3.348-2.385-.7286837 1.9298942-1.8754357 3.67461-3.358 5.109-.3923789.3789722-1.0160848.3735524-1.4018186-.0121814s-.3911536-1.0094397-.0121814-1.4018186c1.6249097-1.534674 2.7586316-3.5164255 3.258-5.695-2.2481253-3.7525101-2.0375387-8.48500004.535-12.023-6.4901289-2.50802644-13.6818711-2.50802644-20.172 0 2.5725387 3.53799996 2.7831253 8.2704899.535 12.023.5004671 2.1764206 1.6341099 4.155946 3.258 5.689.2599566.2510745.3642126.6228779.2726972.9725073-.0915155.3496295-.3645604.6226744-.7141899.7141899-.3496294.0915154-.7214328-.0127406-.9725073-.2726972-1.4818283-1.4326577-2.6285342-3.1752545-3.358-5.103-.9566745.9983044-2.0923684 1.808012-3.348 2.387 1.8033121 1.0982771 3.2808228 2.6579484 4.28 4.518.1932938.3106485.2015041.7020589.0214073 1.0205398-.1800969.3184809-.5197456.5131815-.8855794.5076505s-.6994413-.2104105-.8698279-.5341903c-1.481-2.582-3.392-4.127-5.68-4.6-3.01667341.4282873-6.07384537-.4383412-8.417-2.386-4.22786877 10.4725442-1.75024134 22.4598119 6.28293872 30.3981413 8.03318008 7.9383294 20.04902928 10.2734086 30.47062008 5.9214549 10.4215908-4.3519536 17.2083928-14.5388346 17.2104412-25.8325962.0069611-3.5964846-.6845024-7.1601027-2.036-10.493zm-7.241 28.893c-4.323 4.38-10.623 6.6-18.723 6.6s-14.4-2.22-18.723-6.6c-5.765-5.839-6.529-14.056-6.471-18.435.01247269-.8193658.52351289-1.5482246 1.28956788-1.8392153.76605498-.2909906 1.63211538-.0852319 2.18543212.5192153 2.168 2.374 7.873 6.355 21.719 6.355s19.551-3.981 21.719-6.355c.5534418-.6045706 1.4197417-.8102662 2.1858875-.5190205.7661459.2912456 1.2770404 1.0204732 1.2891125 1.8400205.058 4.378-.706 12.595-6.471 18.434z"/><path id="Shape" d="m15.3 38.994c.4013277-.0303099.7417004-.306514.854-.693.4014408-1.5076885.9970945-2.956821 1.772-4.311-1.6751897-.3385247-3.3209863-.8089912-4.922-1.407-.0933688 2.0354622.3395611 4.0606237 1.257 5.88.2034314.3745933.6162389.5855661 1.039.531z"/><path id="Shape" d="m46.949 31.746c.2423096 2.6366376-.2596999 5.2883844-1.449 7.654-.5254284.9900709-1.5571641 1.6064925-2.678 1.6-1.3391264-.000304-2.5196812-.8785068-2.905-2.161-.4017889-1.5889596-1.0666363-3.0994847-1.967-4.469-2.9629516.4374765-5.9549807.6480887-8.95.63-2.9949938.0184197-5.9870228-.1918581-8.95-.629-.9005335 1.3701457-1.5653853 2.8813569-1.967 4.471-.3866871 1.2811067-1.5668067 2.157767-2.905 2.158-1.1208359.0064925-2.1525716-.6099291-2.678-1.6-1.1872552-2.3644472-1.6878642-5.0143839-1.445-7.649-1.9726217-.903936-3.75348222-2.1779675-5.246-3.753-.053 4.064.641 11.679 5.9 17 1.2074148 1.2047708 2.5826333 2.2286906 4.083 3.04 1.933-4.787 7.177-8.038 13.208-8.038s11.275 3.251 13.216 8.038c1.5005916-.8106142 2.8761448-1.8338587 4.084-3.038 5.255-5.325 5.949-12.94 5.9-17.006-1.4934601 1.5759101-3.2762012 2.8497331-5.251 3.752z"/><path id="Shape" d="m51 11c2.7614237 0 5-2.23857625 5-5s-2.2385763-5-5-5-5 2.23857625-5 5c.0033061 2.76005315 2.2399468 4.9966939 5 5zm1-8c.5522847 0 1 .44771525 1 1s-.4477153 1-1 1-1-.44771525-1-1 .4477153-1 1-1z"/><path id="Shape" d="m29 42c-5.272 0-9.83 2.805-11.421 6.918 3.6267289 1.4602538 7.5122907 2.1685753 11.421 2.082 3.9087093.0865753 7.7942711-.6217462 11.421-2.082-1.591-4.113-6.149-6.918-11.421-6.918z"/></g></g></svg>