<svg height="512" viewBox="0 0 56 56" width="512" xmlns="http://www.w3.org/2000/svg"><g id="Page-1" fill="none" fill-rule="evenodd"><g id="043---Angry" fill="rgb(0,0,0)" fill-rule="nonzero" transform="translate(-1)"><path id="Shape" d="m26 34.191c-.872.088-1.889.218-3 .409v2.4h3z"/><path id="Shape" d="m17.158 38.733-1.052-2.258c-.9321524.3660682-1.8408729.7892026-2.721 1.267l1.051 2.258z"/><path id="Shape" d="m19 25c2.3751008-.0029983 4.4215673-1.6735832 4.9-4h-9.8c.4784327 2.3264168 2.5248992 3.9970017 4.9 4z"/><path id="Shape" d="m57 10c-.0038453-2.17586183-1.4144008-4.09943871-3.4884588-4.75721728-2.0740581-.65777857-4.3353975.10127269-5.5925412 1.87721728 2.2150909 2.29230907 4.15889 4.8320322 5.793 7.569 1.9665743-.7244146 3.2770471-2.5932731 3.288-4.689zm-5.25-2c0-.55228475.4477153-1 1-1s1 .44771525 1 1c-.0956587.80393436.197354 1.60535546.789 2.158.448647.3063902.5757113.9121515.288 1.373-.1819391.2888349-.4986452.4649085-.84.467-.1763372-.0010159-.3491121-.0497384-.5-.141-1.2136425-.8934534-1.8723192-2.35604168-1.737-3.857z"/><path id="Shape" d="m4.288 14.689c1.63410997-2.7369678 3.57790913-5.27669093 5.793-7.569-1.23647212-1.76832947-3.46785001-2.54398059-5.53456778-1.92387571-2.06671778.62010489-3.50249818 2.4960624-3.56121839 4.65300569-.0587202 2.15694332 1.27286779 4.10823912 3.30278617 4.83987002zm-.824-4.534c.58785565-.5537433.87930372-1.35281528.786-2.155 0-.55228475.44771525-1 1-1s1 .44771525 1 1c.135772 1.5005804-.52211079 2.9630899-1.735 3.857-.46768344.265901-1.06192131.1141344-1.34482503-.3434644-.28290372-.4575987-.15307125-1.0570112.29382503-1.3565356z"/><path id="Shape" d="m44.617 37.744c-.8785927-.4787005-1.7859973-.9025122-2.717-1.269l-1.053 2.265 2.725 1.26z"/><path id="Shape" d="m29 45c-4.516 0-8.547 2.031-10.2 5.03 3.2187446 1.3826197 6.6978861 2.0545715 10.2 1.97 3.5021139.0845715 6.9812554-.5873803 10.2-1.97-1.653-2.999-5.684-5.03-10.2-5.03z"/><path id="Shape" d="m45.906 7.788c-4.633-4.613-10.446-7.788-16.906-7.788s-12.273 3.175-16.906 7.788c-.033545.03870923-.0699832.07481319-.109.108-6.763 6.793-10.985 16.646-10.985 24.104 0 13.233 12.561 24 28 24s28-10.767 28-24c0-7.458-4.222-17.311-10.985-24.1-.0391688-.03446491-.075611-.0719101-.109-.112zm-11.353 6.317c.267-.131 6.6-3.236 11.047.095.2858125.2143594.4355547.5649147.3928203.9196152-.0427344.3547006-.2714531.6596589-.6.8-.3285469.1403412-.7070078.0947442-.9928203-.1196152-3.45-2.586-8.9.068-8.954.1-.494571.2465951-1.0954048.045571-1.342-.449-.2465951-.494571-.045571-1.0954048.449-1.342zm-.553 14.895c0 .5522847-.4477153 1-1 1s-1-.4477153-1-1c.0431461-.8081057-.2590442-1.5964941-.8312751-2.1687249-.5722308-.5722309-1.3606192-.8744212-2.1687249-.8312751-.8090314-.042655-1.5980686.2605376-2.1703622.8339758s-.8739092 1.3630796-.8296378 2.1720242c-.0032997.5499402-.4500499.9940099-1 .994h-.006c-.5499402-.0032997-.9940099-.4500499-.994-1-.0507877-1.3410078.4596689-2.6425 1.4085844-3.5914156.9489156-.9489155 2.2504078-1.4593721 3.5914156-1.4085844 1.3410078-.0507877 2.6425.4596689 3.5914156 1.4085844.9489155.9489156 1.4593721 2.2504078 1.4085844 3.5914156zm-21.6-14.8c4.443-3.331 10.78-.227 11.047-.095.494571.2465951.6955951.847429.449 1.342-.2465952.494571-.847429.6955951-1.342.449-.054-.029-5.5-2.682-8.954-.1-.4418278.3313708-1.0686292.2418278-1.4-.2s-.2418278-1.0686292.2-1.4zm-.4 4.8h12c1.1045695 0 2-.8954305 2-2v-2c0-.5522847.4477153-1 1-1s1 .4477153 1 1v2c-.0045101 1.4317733-.7767752 2.7510753-2.023 3.456-.2292927 3.5749044-3.1237012 6.3980494-6.7032099 6.5381698-3.5795088.1401204-6.685747-2.4481285-7.1937901-5.9941698h-.08c-.5522847 0-1-.4477153-1-1s.4477153-1 1-1zm36.937 24.085c-1.837 4.076-6.863 10.915-19.937 10.915s-18.1-6.839-19.938-10.915c-.97486503-2.1917073-.24340408-4.7669717 1.738-6.119 7.372-4.909 17.762-4.966 18.2-4.966s10.828.057 18.2 4.967c1.9815815 1.3514698 2.7127842 3.9268859 1.737 6.118zm-1.937-23.085c0 .5522847-.4477153 1-1 1h-.08c-.5013408 3.5526765-3.6106779 6.1490964-7.1958092 6.0087862-3.5851312-.1403102-6.4820381-2.9717945-6.7041908-6.5527862-1.2450686-.7056955-2.0161029-2.0248512-2.02-3.456v-2c0-.5522847.4477153-.9999999 1-.9999999s1 .4477152 1 .9999999v2c0 1.1045695.8954305 2 2 2h12c.5522847 0 1 .4477153 1 1z"/><path id="Shape" d="m35 34.6c-1.111-.191-2.128-.321-3-.409v2.809h3z"/><path id="Shape" d="m39 25c2.3751008-.0029983 4.4215673-1.6735832 4.9-4h-9.8c.4794831 2.3257805 2.5253123 3.9958451 4.9 4z"/><path id="Shape" d="m29 34c-.019 0-.381 0-1 .035v2.965c0 1.1045695-.8954305 2-2 2h-3c-1.1045695 0-2-.8954305-2-2v-2.005c-.973.218-1.985.486-3 .81l.971 2.095c.2216536.4784739.2453741 1.0251245.066 1.521-.1787908.5008312-.5529388.9078119-1.037 1.128l-2.725 1.267c-1.0021664.4608143-2.1882179.0232593-2.651-.978l-.942-2.022c-1.0014028.8457481-1.3241178 2.2511068-.792 3.449 1.2979601 2.8567245 3.4428638 5.2453039 6.144 6.842 1.993-3.642 6.719-6.107 11.966-6.107s9.973 2.465 11.969 6.107c2.7011362-1.5966961 4.8460399-3.9852755 6.144-6.842.5321178-1.1978932.2094028-2.6032519-.792-3.449l-.945 2.027c-.4610432.9985871-1.6436 1.4352785-2.643.976l-2.733-1.273c-.4820455-.219922-.8543842-.6258145-1.032-1.125-.179138-.495148-.1557818-1.0409651.065-1.519l.967-2.102c-1.018-.324-2.029-.592-3-.81v2.01c0 1.1045695-.8954305 2-2 2h-3c-1.1045695 0-2-.8954305-2-2v-2.966c-.619-.034-.981-.034-1-.034z"/></g></g></svg>