<svg height="512" viewBox="0 0 56 56" width="512" xmlns="http://www.w3.org/2000/svg"><g id="Page-1" fill="none" fill-rule="evenodd"><g id="033---Angry" fill="rgb(0,0,0)" fill-rule="nonzero"><ellipse id="Oval" cx="8" cy="29" rx="4" ry="2"/><path id="Shape" d="m37.887 38.6c.4021285.1239371.8371305.0818053 1.208-.117.7557852-.4194363 1.3296313-1.1037059 1.611-1.921-1.1972906-.5841241-2.4502527-1.046447-3.74-1.38-.496 1.508-.084 3.068.921 3.418z"/><path id="Shape" d="m16.905 38.592c.368354.1975917.8004159.2397177 1.2.117 1.023-.354 1.436-1.951.906-3.49 0-.01-.01-.019-.014-.029-1.2928446.3357011-2.5482782.8017561-3.747 1.391.2758951.8563855.8676981 1.5754888 1.655 2.011z"/><circle id="Oval" cx="28" cy="12" r="1"/><path id="Shape" d="m28 17c1.5779708.005353 3.065221-.7370235 4.0094207-2.0013444s1.233747-2.9011466.7805793-4.4126556c-.659.115-1.331.211-2.017.278.1495745.3600728.2267112.7460963.227 1.136 0 1.6568542-1.3431458 3-3 3s-3-1.3431458-3-3c.0002888-.3899037.0774255-.7759272.227-1.136-.687-.067-1.359-.163-2.017-.278-.4531677 1.511509-.1636204 3.1483347.7805793 4.4126556s2.4314499 2.0066974 4.0094207 2.0013444z"/><path id="Shape" d="m42.422 37.6c-.4808186 1.1530757-1.3495945 2.1017959-2.456 2.682-.5103156.251741-1.0709857.3847292-1.64.389-.3744745.0007923-.746386-.0617565-1.1-.185-2-.693-2.948-3.239-2.2-5.759-2.3160728-.4520199-4.6667397-.7039488-7.026-.753-2.3684654.0494998-4.728232.3034432-7.053.759.8 2.56-.149 5.162-2.18 5.865-.3509697.122668-.7202119.1848846-1.092.184-.5693233-.0043619-1.1302985-.1373414-1.641-.389-1.1333026-.5959613-2.01716-1.5762523-2.493-2.765-1.2516374.8570927-2.1617857 2.1272646-2.571 3.588-.6265257 1.9272096.018772 4.0405098 1.615 5.289 1.2001984.765079 2.7645051.6293554 3.815-.331.527-.4.962-.785 1.382-1.161 2.1-1.885 3.723-3.039 10.218-3.039s8.114 1.154 10.218 3.039c.42.376.855.765 1.382 1.161 1.0507889.9596855 2.6146274 1.0953685 3.815.331 1.596228-1.2484902 2.2415257-3.3617904 1.615-5.289-.4141106-1.4759422-1.3382092-2.7572077-2.608-3.616z"/><path id="Shape" d="m28 0c-15.463973 0-28 12.536027-28 28s12.536027 28 28 28 28-12.536027 28-28c-.0176345-15.4566626-12.5433374-27.98236546-28-28zm-11.42 7.911c.56509-.76697218 1.5927254-1.02890204 2.456-.626 2.8382645 1.18203728 5.8898547 1.76587008 8.964 1.715 3.0741453.05087008 6.1257355-.53296272 8.964-1.715.8632746-.40290204 1.89091-.14097218 2.456.626 3.0225676 4.2697184 3.4125096 9.8683874 1.0110177 14.5158864-2.4014918 4.647499-7.1937284 7.5683924-12.4250177 7.5731136-.189 0-.379 0-.569-.011-7.1246431-.341362-12.876247-5.9419578-13.407-13.055-.2258371-3.2127612.6759545-6.403689 2.55-9.023zm-8.58 25.089c-3.364 0-6-1.757-6-4s2.636-4 6-4 6 1.757 6 4-2.636 4-6 4zm36.521 15.171c-.7974565.5388487-1.7375591.827495-2.7.829-1.2435217-.0255623-2.4447036-.4563867-3.421-1.227-.6-.447-1.085-.884-1.516-1.27-1.7-1.523-2.824-2.529-8.884-2.529s-7.183 1.006-8.884 2.526c-.431.386-.919.823-1.516 1.27-1.7288413 1.4686466-4.2157295 1.6311618-6.121.4-2.29704636-1.7201252-3.2752223-4.6917989-2.449-7.44 2.164-8.658 18.285-8.757 18.97-8.757.49 0 8.864.053 14.392 3.243.019.011.038.019.055.03 2.1992538 1.1262479 3.8358764 3.1106031 4.523 5.484.8266872 2.7485047-.1515366 5.7207234-2.449 7.441zm3.479-15.171c-3.364 0-6-1.757-6-4s2.636-4 6-4 6 1.757 6 4-2.636 4-6 4z"/><ellipse id="Oval" cx="48" cy="29" rx="4" ry="2"/></g></g></svg>