<svg height="512" viewBox="0 0 56 56" width="512" xmlns="http://www.w3.org/2000/svg"><g id="Page-1" fill="none" fill-rule="evenodd"><g id="036---Crying-Laughter" fill="rgb(0,0,0)" fill-rule="nonzero"><path id="Shape" d="m36.705 29h-3.412l1.705 2.984z"/><path id="Shape" d="m28 40c-2.3580277-.0418091-4.593087 1.0496882-6.01 2.935 1.9168614.7358256 3.9570143 1.0973502 6.01 1.065 2.0529857.0323502 4.0931386-.3291744 6.01-1.065-1.416913-1.8853118-3.6519723-2.9768091-6.01-2.935z"/><circle id="Oval" cx="12" cy="44" r="1"/><path id="Shape" d="m22.705 29h-3.412l1.705 2.984z"/><circle id="Oval" cx="5" cy="27" r="1"/><path id="Shape" d="m6 38c-.00330612-2.7600532-2.23994685-4.9966939-5-5-.32480877.0019829-.64865907.0354731-.967.1.18720653 3.3542137 1.16994446 6.6157245 2.867 9.515 1.87774406-.7622494 3.10444069-2.5884445 3.1-4.615z"/><circle id="Oval" cx="51" cy="27" r="1"/><circle id="Oval" cx="44" cy="44" r="1"/><path id="Shape" d="m48 38c-.0275543-2.0328961.8419301-3.9746796 2.3767817-5.3079674 1.5348516-1.3332879 3.5791576-1.9226428 5.5882183-1.6110326-.2695169-4.1886956-1.3566372-8.2840818-3.2-12.055-.214.241-.437.475-.671.7-.2570916.2550122-.6319587.3511143-.9800293.2512431-.3480705-.0998711-.614955-.3801096-.6977263-.7326379-.0827713-.3525284.0315046-.7222607.2987556-.9666052 3.761-3.582 3.611-9.288 2.822-13.444-.0912513-.41081404-.4206573-.7264126-.835-.8-.4481116-.10983913-.9181222.06251124-1.189.436-1.821516 2.42858189-4.2920517 4.29318291-7.127 5.379-.5105872.2142865-1.0982135-.02591276-1.3125-.53650001-.2142865-.51058724.0259128-1.0982135.5365-1.31249999.348-.14666667.685-.29966667 1.011-.459-5.046-4.871-10.905-7.541-16.621-7.541s-11.575 2.67-16.621 7.543c.326.15933333.663.31233333 1.011.459.5086543.21539105.7463911.80234575.531 1.311s-.8023457.7463911-1.311.531c-2.8349483-1.08581709-5.30548398-2.95041811-7.127-5.379-.27087784-.37348876-.74088838-.54583913-1.189-.436-.4143427.0735874-.7437487.38918596-.835.8-.789 4.156-.939 9.862 2.822 13.444.40068259.3813526.41635262 1.0153174.035 1.416s-1.01531741.4163526-1.416.035c-.234-.223-.457-.457-.671-.7-1.84336278 3.7709182-2.93048311 7.8663044-3.2 12.055.32145562-.0487107.64589803-.0751071.971-.079 3.86416566.0044086 6.99559136 3.1358343 7 7 .00324788 2.7086951-1.56442812 5.1735234-4.019 6.319 4.899 6.991 13.831 11.681 24.019 11.681s19.12-4.69 24.019-11.681c-2.4545719-1.1454766-4.0222479-3.6103049-4.019-6.319zm3-14c1.6568542 0 3 1.3431458 3 3s-1.3431458 3-3 3-3-1.3431458-3-3 1.3431458-3 3-3zm-19.809-5.579c4.1-5.627 11.06-4.312 11.354-4.253.5417913.1079717.8934716.6347087.7855 1.1765-.1079717.5417913-.6347087.8934716-1.1765.7855-2.5838584-.4349256-5.2366688.1214932-7.428 1.558 2.849-.036 7.061.7 9.62 4.924.2860835.4724796.1349796 1.0874165-.3375 1.3735s-1.0874165.1349796-1.3735-.3375c-3.342-5.516-10.3-3.693-10.371-3.673-.4100844.1129394-.8467354-.0458937-1.0884166-.3959147-.2416812-.3500211-.2354964-.8146218.0154166-1.1580853zm-19.537 4.191c2.559-4.222 6.775-4.959 9.62-4.924-2.191601-1.4367573-4.8448175-1.9931863-7.429-1.558-.5417913.1076955-1.0683044-.2442087-1.176-.786-.1076955-.5417913.2442087-1.0683045.786-1.176.294-.059 7.252-1.376 11.354 4.253.250913.3434635.2570978.8080642.0154166 1.1580853-.2416812.350021-.6783322.5088541-1.0884166.3959147-.284-.077-7.044-1.817-10.371 3.673-.2860835.4724796-.9010204.6235835-1.3735.3375s-.6235835-.9010204-.3375-1.3735zm-6.654 7.388c-1.65685425 0-3-1.3431458-3-3s1.34314575-3 3-3 3 1.3431458 3 3-1.34314575 3-3 3zm7 17c-1.6568542 0-3-1.3431458-3-3s1.3431458-3 3-3 3 1.3431458 3 3-1.3431458 3-3 3zm16-1c-14.375 0-16.6-12.879-16.938-16.827-.0485069-.5586692.1397573-1.11204.5188993-1.5252173.3791421-.4131774.9143298-.6482023 1.4751007-.6477827h29.888c.5604072-.0001148 1.0951544.2348965 1.4740419.6478135.3788875.4129171.5671531.9658555.5189581 1.5241865-.337 3.949-2.562 16.828-16.937 16.828zm16 1c-1.6568542 0-3-1.3431458-3-3s1.3431458-3 3-3 3 1.3431458 3 3-1.3431458 3-3 3z"/><path id="Shape" d="m39.01 29-2.272 3.976c-.35496.6233919-1.0166054 1.0089294-1.73397 1.0103757s-1.3805593-.3814202-1.73803-1.0033757l-2.276-3.983h-5.98l-2.272 3.976c-.35496.6233919-1.0166054 1.0089294-1.73397 1.0103757s-1.3805593-.3814202-1.73803-1.0033757l-2.276-3.983h-3.934c.224 2.613 1.372 9.607 7.127 13.041 1.7494966-2.5880388 4.693876-4.1101365 7.817-4.041 3.123124-.0691365 6.0675034 1.4529612 7.817 4.041 5.756-3.434 6.9-10.427 7.128-13.039z"/><path id="Shape" d="m55 33c-2.3886473-.0054239-4.4465548 1.6817092-4.9096172 4.0250484-.4630623 2.3433391.7984442 4.6864146 3.0096172 5.5899516 1.6970555-2.8992755 2.6797935-6.1607863 2.867-9.515-.3183409-.0645269-.6421912-.0980171-.967-.1z"/></g></g></svg>