<svg height="512" viewBox="0 0 56 56" width="512" xmlns="http://www.w3.org/2000/svg"><g id="Page-1" fill="none" fill-rule="evenodd"><g id="025---Startled" fill="rgb(0,0,0)" fill-rule="nonzero"><path id="Shape" d="m18.469 48.216 1.285-10.331c-1.7184376.384163-3.3868055.9653402-4.972 1.732z"/><circle id="Oval" cx="11" cy="22" r="2"/><path id="Shape" d="m10.805 42.37c.8.16 1.9.362 3.225.566l-1.006-2.345c-.800903.5122943-1.54479 1.1086777-2.219 1.779z"/><circle id="Oval" cx="45" cy="22" r="2"/><circle id="Oval" cx="28" cy="14" r="2"/><path id="Shape" d="m28 0c-15.463973 0-28 12.536027-28 28s12.536027 28 28 28 28-12.536027 28-28c-.0176345-15.4566626-12.5433374-27.98236546-28-28zm17 13c3.859 0 7 4.262 7 9.5s-3.141 9.5-7 9.5-7-4.262-7-9.5 3.14-9.5 7-9.5zm-17-10c4.411 0 8 4.935 8 11s-3.589 11-8 11-8-4.935-8-11 3.589-11 8-11zm7.589 22.705c-1.9642242 2.1018669-4.7121925 3.2949729-7.589 3.2949729s-5.6247758-1.193106-7.589-3.2949729c-.2591473-.2518304-.362276-.6238795-.269759-.973188.092517-.3493086.3662863-.6215334.7161127-.7120726.3498264-.0905393.7212861.0146927.9716463.2752606 1.5888662 1.7240234 3.8264846 2.7047842 6.171 2.7047842s4.5821338-.9807608 6.171-2.7047842c.2503602-.2605679.6218199-.3657999.9716463-.2752606.3498264.0905392.6235957.362764.7161127.7120726.092517.3493085-.0106117.7213576-.269759.973188zm-24.589-12.705c3.86 0 7 4.262 7 9.5s-3.14 9.5-7 9.5-7-4.262-7-9.5 3.14-9.5 7-9.5zm-7.239 18.266c.40539802-.3749444 1.03797328-.3503219 1.413.055 1.47877545 1.6726574 3.59364392 2.6451484 5.826 2.679 2.2323561-.0338516 4.3472246-1.0063426 5.826-2.679.3769469-.3960091 1.0020541-.415882 1.4033937-.0446156.4013395.3712665.4301168.9960271.0646063 1.4026156-1.8553636 2.0845115-4.5035491 3.2902455-7.294 3.321-2.79045095-.0307545-5.43863637-1.2364885-7.294-3.321-.37494443-.405398-.3503219-1.0379733.055-1.413zm44.159 12.126c-.122742.2880231-.3732942.5019362-.677.578-.1.025-2.4.592-6.2 1.122l-1.674 3.908c-.3066568.73607-1.026608 1.2148534-1.824 1.213-.0950101-.0002345-.1898948-.0069165-.284-.02-.8992916-.1173671-1.604519-.8295933-1.713-1.73l-.342-2.754c-1.43.106-2.838.183-4.211.227l-1.072 3.864c-.2369003.8670791-1.0246408 1.4684681-1.9235 1.4684681s-1.6865997-.601389-1.9235-1.4684681l-1.071-3.86c-1.373-.044-2.781-.121-4.211-.227l-.342 2.75c-.1055035.9031274-.8114278 1.618942-1.713 1.737-.0941052.0130835-.1889899.0197655-.284.02-.7993771.000816-1.5201668-.481027-1.825-1.22l-1.676-3.91c-3.8-.53-6.1-1.1-6.2-1.122-.30362535-.0762835-.55400452-.2903557-.67654293-.5784388s-.103093-.6169273.05254293-.8885612c1.24089359-1.7989118 2.9160274-3.2552807 4.87-4.234 2.4187986-1.2965423 5.0332717-2.1889762 7.74-2.642.772-.151 1.619-.277 2.5-.37 3.1629692-.3384999 6.3530308-.3384999 9.516 0 .876.092 1.723.218 2.511.373 2.7000869.4521656 5.3081272 1.3425676 7.721 2.636 1.9576348.9782136 3.6362812 2.4353336 4.88 4.236.1565912.2726269.175852.6030243.052.892zm-2.92-7.392c-2.7904509-.0307545-5.4386364-1.2364885-7.294-3.321-.3655105-.4065885-.3367332-1.0313491.0646063-1.4026156.4013396-.3712664 1.0264468-.3513935 1.4033937.0446156 1.457731 1.700496 3.5857084 2.6791559 5.8255 2.6791559s4.367769-.9786599 5.8255-2.6791559c.3750014-.4056531 1.0078468-.4305013 1.4135-.0555.4056531.3750014.4305013 1.0078468.0555 1.4135-1.8552881 2.0846139-4.5035214 3.2903697-7.294 3.321z"/><path id="Shape" d="m21.82 37.469-.778 6.256c1.152.0853333 2.2853333.1493333 3.4.192l-1.824-6.567c-.272.036-.537.076-.798.119z"/><path id="Shape" d="m33.382 37.35-1.825 6.567c1.116-.0426667 2.2493333-.1066667 3.4-.192l-.777-6.255c-.262-.044-.527-.084-.798-.12z"/><path id="Shape" d="m24.637 37.148 3.363 12.113 3.36-12.113c-2.2375506-.1758429-4.4854494-.1758429-6.723 0z"/><path id="Shape" d="m41.97 42.936c1.325-.2 2.425-.406 3.225-.566-.6744635-.6700384-1.4183189-1.2663966-2.219-1.779z"/><path id="Shape" d="m37.532 48.216 3.686-8.6c-1.5851501-.766767-3.2535306-1.3479486-4.972-1.732z"/></g></g></svg>