<svg height="512" viewBox="0 0 58 58" width="512" xmlns="http://www.w3.org/2000/svg"><g id="Page-1" fill="none" fill-rule="evenodd"><g id="023---Scared" fill="rgb(0,0,0)" fill-rule="nonzero"><circle id="Oval" cx="29" cy="15" r="3"/><circle id="Oval" cx="12" cy="23" r="3"/><path id="Shape" d="m29 35c-4.9327781.0261076-9.4459453 2.7801982-11.725 7.155-.9521562 1.6314475-1.3739287 3.5184163-1.207 5.4.076789.5864441.3299739 1.135709.726 1.575.0834992.0779377.1727518.1494735.267.214l2.688-3.255c.5823009-.7152742 1.4650081-1.1178759 2.3868744-1.0886508.9218662.0292251 1.7772998.4869296 2.3131256 1.2376508l1.376 1.911c1.0336898-.2851052 2.1028609-.4208142 3.175-.403 1.0723313-.0165121 2.1415059.1205443 3.175.407l1.373-1.907c.5376092-.7554348 1.3972715-1.2163381 2.324-1.246.9182626-.0186214 1.7947486.3831627 2.38 1.091l2.687 3.254c.0942669-.064868.1835189-.1367376.267-.215.3960261-.439291.649211-.9885559.726-1.575.1669287-1.8815837-.2548438-3.7685525-1.207-5.4-2.2790547-4.3748018-6.7922219-7.1288924-11.725-7.155z"/><path id="Shape" d="m22.068 47c-.3015986-.0100081-.5898758.1244718-.776.362l-2.17 2.629c1.6468683-.0478328 3.2675852-.4241982 4.767-1.107l-1.06-1.472c-.1738733-.2503599-.4563104-.4032693-.761-.412z"/><path id="Shape" d="m29 0c-16.0162577 0-29 12.9837423-29 29s12.9837423 29 29 29 29-12.9837423 29-29-12.9837423-29-29-29zm17 14c3.86 0 7 4.262 7 9.5s-3.14 9.5-7 9.5-7-4.262-7-9.5 3.14-9.5 7-9.5zm-17-10c4.411 0 8 4.935 8 11s-3.589 11-8 11-8-4.935-8-11 3.589-11 8-11zm7.589 22.705c-1.9642242 2.1018669-4.7121925 3.2949729-7.589 3.2949729s-5.6247758-1.193106-7.589-3.2949729c-.2591473-.2518304-.362276-.6238795-.269759-.973188.092517-.3493086.3662863-.6215334.7161127-.7120726.3498264-.0905393.7212861.0146927.9716463.2752606 1.5888662 1.7240234 3.8264846 2.7047842 6.171 2.7047842s4.5821338-.9807608 6.171-2.7047842c.2503602-.2605679.6218199-.3657999.9716463-.2752606.3498264.0905392.6235957.362764.7161127.7120726.092517.3493085-.0106117.7213576-.269759.973188zm-24.589-12.705c3.86 0 7 4.262 7 9.5s-3.14 9.5-7 9.5-7-4.262-7-9.5 3.14-9.5 7-9.5zm-7.294 19.679c-.36551053-.4065885-.33673323-1.0313491.06460631-1.4026156.40133955-.3712664 1.02644675-.3513935 1.40339369.0446156 1.47877545 1.6726574 3.59364392 2.6451484 5.826 2.679 2.2323561-.0338516 4.3472246-1.0063426 5.826-2.679.3769469-.3960091 1.0020541-.415882 1.4033937-.0446156.4013395.3712665.4301168.9960271.0646063 1.4026156-1.8553636 2.0845115-4.5035491 3.2902455-7.294 3.321-2.79045095-.0307545-5.43863637-1.2364885-7.294-3.321zm39.2 14.191c-.1371935.9954427-.5798801 1.9237917-1.267 2.657-.9677839.9319621-2.2564699 1.4567436-3.6 1.466-2.3721733-.071878-4.7001868-.6598532-6.822-1.723-1.0256338-.3912748-2.1202117-.5695648-3.217-.524-1.0957863-.0451554-2.1893022.1331279-3.214.524-2.0273396.997201-4.2313357 1.5850692-6.486 1.73-.112 0-.223 0-.335-.007-1.3455476-.0080276-2.6365454-.5328759-3.606-1.466-.6871199-.7332083-1.1298065-1.6615573-1.267-2.657-.24936-2.3022823.2410034-4.6241531 1.4-6.629 2.6014115-5.0599903 7.8134619-8.2409196 13.503-8.2409196s10.9015885 3.1809293 13.503 8.2409196c1.1624644 2.0037003 1.6563457 4.3256433 1.41 6.629zm2.094-10.87c-2.7904509-.0307545-5.4386364-1.2364885-7.294-3.321-.3655105-.4065885-.3367332-1.0313491.0646063-1.4026156.4013396-.3712664 1.0264468-.3513935 1.4033937.0446156 1.4579187 1.7005363 3.5860556 2.6792027 5.826 2.6792027s4.3680813-.9786664 5.826-2.6792027c.2411169-.2682149.6079806-.3858135.9600945-.3077595.3521139.0780541.6349169.3396662.7401049.6846475s.0164618.719876-.2321994.981112c-1.8553636 2.0845115-4.5035491 3.2902455-7.294 3.321z"/><circle id="Oval" cx="46" cy="23" r="3"/><path id="Shape" d="m35.932 47c-.3058611.0091114-.5891438.1631905-.763.415l-1.058 1.47c1.4985823.6851142 3.1198421 1.0612655 4.767 1.106l-2.169-2.627c-.1849663-.2397585-.4743981-.3753482-.777-.364z"/></g></g></svg>