<svg height="512" viewBox="0 0 56 56" width="512" xmlns="http://www.w3.org/2000/svg"><g id="Page-1" fill="none" fill-rule="evenodd"><g id="017---Angry" fill="rgb(0,0,0)" fill-rule="nonzero" transform="translate(0 -1)"><path id="Shape" d="m21 35v-3.251c-1.6479206.8626172-3.1633949 1.9574632-4.5 3.251z"/><circle id="Oval" cx="16" cy="23" r="2"/><path id="Shape" d="m45.205 9.1c-.022-.019-.051-.027-.072-.048-.021609-.02889557-.0416383-.05893951-.06-.09-4.661-4.709-10.535-7.962-17.073-7.962-14.872 0-28 17.994-28 32 .0146812 4.1092969 1.22147661 8.1260428 3.474 11.563 2.57143721-1.2629759 5.65344563-.8269619 7.7736364 1.0997422 2.1201908 1.9267041 2.8482526 4.9530567 1.8363636 7.6332578 9.3307902 4.938728 20.5012098 4.938728 29.832 0-1.011889-2.6802011-.2838272-5.7065537 1.8363636-7.6332578s5.2021992-2.3627181 7.7736364-1.0997422c2.2525234-3.4369572 3.4593188-7.4537031 3.474-11.563 0-7.387-4.144-17.12-10.795-23.9zm-23.205-3.1c0-.55228475.4477153-1 1-1h10c.5522847 0 1 .44771525 1 1-.0038389.3158644-.1593922.61059698-.418.792 2.1828473 2.88469713 1.8081235 6.957458-.8644475 9.3954211-2.6725709 2.4379631-6.7625341 2.4379631-9.435105 0-2.672571-2.4379631-3.0472948-6.51072397-.8644475-9.3954211-.2586078-.18140302-.4141611-.4761356-.418-.792zm-13 16c.00612149-1.5151405.50487547-2.9871843 1.421-4.194-.312866-.2231403-.4687096-.6069051-.4-.985.0988002-.543032.6188827-.9033301 1.162-.805l10.1 1.837h.017l.88.16c.3847599.0711842.6926545.3602375.787961.7397425.0953066.3795049-.0394865.7797321-.344961 1.0242575.2464763.7153749.3738366 1.4663616.377 2.223-.0000001 3.8659932-3.1340068 6.9999999-7 6.9999999s-6.99999994-3.1340067-7-6.9999999zm13 32c-2.209139 0-4-1.790861-4-4s1.790861-4 4-4 4 1.790861 4 4-1.790861 4-4 4zm12 0c-2.209139 0-4-1.790861-4-4s1.790861-4 4-4 4 1.790861 4 4-1.790861 4-4 4zm-6-9c-14.607 0-15.937-6.968-15.986-7.264-.0406828-.2404292.0084316-.4874248.138-.694.231-.37 5.767-9.042 15.848-9.042s15.617 8.672 15.848 9.042c.1295684.2065752.1786828.4535708.138.694-.049.296-1.379 7.264-15.986 7.264zm12-16c-3.8641657-.0044086-6.9955914-3.1358343-7-7 .0038132-.7556865.1315071-1.5056347.378-2.22-.3054745-.2445254-.4402676-.6447526-.344961-1.0242575.0953065-.379505.4032011-.6685583.787961-.7397425l.878-.159h.019l10.1-1.837c.4555457-.0749709.9032027.1716575 1.0832287.5967847.1800259.4251273.0456214.9182375-.3252287 1.1932153 1.6026583 2.1130457 1.8683257 4.9521633.6855093 7.3258568-1.1828164 2.3736936-3.6094487 3.8712327-6.2615093 3.8641432z"/><circle id="Oval" cx="34" cy="50" r="2"/><circle id="Oval" cx="22" cy="50" r="2"/><path id="Shape" d="m50.056 8.351c.8504496-.82122287 1.9710314-1.30436713 3.152-1.359.5948559-.04683352 1.1621358-.27040238 1.629-.642.588621-.44842495.9881492-1.10086888 1.12-1.829.1690465-.96904945-.1467348-1.95949819-.8454866-2.65187053-.6987519-.69237234-1.6920551-.99905648-2.6595134-.82112947-.7268186.13650436-1.3757496.54128315-1.818 1.134-.3610954.46229175-.5787374 1.02030367-.626 1.605-.0559109 1.1824396-.5387636 2.30447694-1.359 3.158l-1.461 1.461c.456.48.901.97233333 1.335 1.477z"/><path id="Shape" d="m1.163 6.35c.4668642.37159762 1.03414406.59516648 1.629.642 1.18096857.05463287 2.3015504.53777713 3.152 1.359l1.489 1.488c.44533333-.51733333.88966667-1.01066667 1.333-1.48l-1.415-1.414c-.82023645-.85352306-1.30308912-1.9755604-1.359-3.158-.04770434-.58489827-.26528811-1.14310841-.626-1.606-.44262683-.59212222-1.09144153-.99647154-1.818-1.133-.96668808-.17604032-1.95839358.13148733-2.65587216.82358536-.69747857.69209802-1.01267681 1.68139228-.84412784 2.64941464.13057431.72738099.52825102 1.37971346 1.115 1.829z"/><path id="Shape" d="m46.251 47.008c-1.5268313 1.2820194-2.1461286 3.3485705-1.576 5.259 2.5545755-1.6141399 4.8116508-3.6567389 6.672-6.038-1.7119198-.7035397-3.6724422-.4038444-5.096.779z"/><circle id="Oval" cx="28" cy="12" r="2"/><path id="Shape" d="m9.749 47.008c-1.42422534-1.1847325-3.38677402-1.484887-5.1-.78 1.86007191 2.3817964 4.11718542 4.4247683 6.672 6.039.5710572-1.9096321-.0466214-3.9760265-1.572-5.259z"/><path id="Shape" d="m14.1 37.736c.366.883 1.824 3.309 6.9 4.534v-5.27h-6.339c-.238.3-.429.55-.561.736z"/><path id="Shape" d="m23 42.655c1.3254782.1890238 2.6613407.2962268 4 .321v-5.976h-4z"/><path id="Shape" d="m29 35h4v-4.121c-1.2888777-.4592596-2.634848-.738885-4-.831z"/><circle id="Oval" cx="40" cy="23" r="2"/><path id="Shape" d="m29 42.976c1.3386593-.0247732 2.6745218-.1319762 4-.321v-5.655h-4z"/><path id="Shape" d="m35 37v5.269c5.063-1.222 6.528-3.639 6.9-4.535-.133-.186-.323-.439-.56-.734z"/><path id="Shape" d="m35 31.749v3.251h4.5c-1.3361499-1.2940801-2.8517066-2.3889857-4.5-3.251z"/><path id="Shape" d="m23 35h4v-4.952c-1.365152.092115-2.7111223.3717404-4 .831z"/></g></g></svg>