<svg height="512" viewBox="0 0 56 56" width="512" xmlns="http://www.w3.org/2000/svg"><g id="Page-1" fill="none" fill-rule="evenodd"><g id="010---Happy-Evil" fill="rgb(0,0,0)" fill-rule="nonzero"><circle id="Oval" cx="5" cy="27" r="1"/><path id="Shape" d="m22.792 39c-.3989342-.0297215-.7751266.1887641-.947.55l-.39.78c.8608435.3680747 1.7792526.5832951 2.714.636l-.5-1.322c-.135821-.3718015-.48159-.6257071-.877-.644z"/><path id="Shape" d="m19.776 39.216.28-.559c.5335238-1.0665749 1.6481296-1.715854 2.8390879-1.6538226 1.1909584.0620313 2.2320803.8235919 2.6519121 1.9398226l.77 2.057h3.366l.77-2.057c.4198318-1.1162307 1.4609537-1.8777913 2.6519121-1.9398226 1.1909583-.0620314 2.3055641.5872477 2.8390879 1.6538226l.28.559c.8732828-.8753851 1.456291-1.9981124 1.67-3.216h-19.788c.2135231 1.2179505.7965589 2.3407308 1.67 3.216z"/><path id="Shape" d="m33.208 39c-.3972629.0163172-.7454836.2705735-.882.644l-.495 1.322c.9347474-.0527049 1.8531565-.2679253 2.714-.636l-.39-.78c-.1725234-.3606365-.5482643-.5788598-.947-.55z"/><circle id="Oval" cx="12" cy="44" r="1"/><circle id="Oval" cx="51" cy="27" r="1"/><path id="Shape" d="m6 38c-.00330612-2.7600532-2.23994685-4.9966939-5-5-.32480877.0019829-.64865907.0354731-.967.1.18720653 3.3542137 1.16994446 6.6157245 2.867 9.515 1.87774406-.7622494 3.10444069-2.5884445 3.1-4.615z"/><circle id="Oval" cx="17" cy="24" r="2"/><circle id="Oval" cx="44" cy="44" r="1"/><path id="Shape" d="m55 33c-2.3886473-.0054239-4.4465548 1.6817092-4.9096172 4.0250484-.4630623 2.3433391.7984442 4.6864146 3.0096172 5.5899516 1.6970555-2.8992755 2.6797935-6.1607863 2.867-9.515-.3183409-.0645269-.6421912-.0980171-.967-.1z"/><circle id="Oval" cx="39" cy="24" r="2"/><path id="Shape" d="m48 38c-.0275543-2.0328961.8419301-3.9746796 2.3767817-5.3079674 1.5348516-1.3332879 3.5791576-1.9226428 5.5882183-1.6110326-.2690302-4.1887751-1.3561752-8.2842542-3.2-12.055-.214.241-.437.475-.671.7-.2570916.2550122-.6319587.3511143-.9800293.2512431-.3480705-.0998711-.614955-.3801096-.6977263-.7326379-.0827713-.3525284.0315046-.7222607.2987556-.9666052 3.761-3.582 3.611-9.288 2.822-13.444-.0912513-.41081404-.4206573-.7264126-.835-.8-.4480798-.10927005-.9177785.06296599-1.189.436-1.821516 2.42858189-4.2920517 4.29318291-7.127 5.379-.5105872.2142865-1.0982135-.02591278-1.3125-.53650002-.2142864-.51058723.0259128-1.09821348.5365-1.31249998.348-.14666667.685-.29966667 1.011-.459-5.046-4.871-10.905-7.541-16.621-7.541s-11.575 2.67-16.621 7.543c.326.15933333.663.31233333 1.011.459.5086543.21539105.7463911.80234575.531 1.311s-.8023457.7463911-1.311.531c-2.8349483-1.08581709-5.30548398-2.95041811-7.127-5.379-.27122147-.37303401-.74092019-.54527005-1.189-.436-.4143427.0735874-.7437487.38918596-.835.8-.789 4.156-.939 9.862 2.822 13.444.40068259.3813526.41635262 1.0153174.035 1.416s-1.01531741.4163526-1.416.035c-.234-.223-.457-.457-.671-.7-1.84382479 3.7707458-2.93096979 7.8662249-3.2 12.055.32146042-.0486694.64589996-.0750656.971-.079 3.86416566.0044086 6.99559136 3.1358343 7 7 .00324788 2.7086951-1.56442812 5.1735234-4.019 6.319 4.899 6.991 13.831 11.681 24.019 11.681s19.12-4.69 24.019-11.681c-2.4545719-1.1454766-4.0222479-3.6103049-4.019-6.319zm3-14c1.6568542 0 3 1.3431458 3 3s-1.3431458 3-3 3-3-1.3431458-3-3 1.3431458-3 3-3zm-20.965-7.969c3.9729967-4.4794637 10.6430048-5.3381403 15.621-2.011.3086284.1934697.4876465.5394526.4673014.9031394-.020345.3636868-.2368348.6875445-.5651158.8453848-.3282811.1578403-.7164215.1246939-1.0131856-.0865242-4.1485211-2.7712795-9.7059763-2.0548221-13.016 1.678-.1889789.2143693-.4612264.336826-.747.336-.3939748.0000617-.7512697-.2312053-.912539-.5906609s-.0964542-.7801017.165539-1.0743391zm-19.691-2.011c4.9779952-3.3271403 11.6480033-2.4684637 15.621 2.011.2463079.2655772.3297489.6435852.2181275.9881712-.1116213.344586-.4008531.6018745-.7560966.6725919-.3552434.0707174-.7209567-.0561929-.9560309-.3317631-3.3100237-3.7328221-8.8674789-4.4492795-13.016-1.678-.2967641.2112181-.6849045.2443645-1.0131856.0865242-.328281-.1578403-.54477075-.481698-.56511581-.8453848-.02034505-.3636868.15867301-.7096697.46730141-.9031394zm6.656 1.98c4.418278 0 8 3.581722 8 8s-3.581722 8-8 8-8-3.581722-8-8c.00495988-4.4162219 3.5837781-7.9950401 8-8zm-12 14c-1.65685425 0-3-1.3431458-3-3s1.34314575-3 3-3 3 1.3431458 3 3-1.34314575 3-3 3zm7 17c-1.6568542 0-3-1.3431458-3-3s1.3431458-3 3-3 3 1.3431458 3 3-1.3431458 3-3 3zm20.707.707c-.216.216-1.457 1.293-4.707 1.293s-4.491-1.077-4.707-1.293c-.3789722-.3923789-.3735524-1.0160848.0121814-1.4018186s1.0094397-.3911536 1.4018186-.0121814c.9982662.5702092 2.1486526.8171947 3.293.707 2.444 0 3.31-.724 3.318-.731.4087951-.3557074 1.0248061-.3279869 1.4.063.3703071.3852829.3654238.9956909-.011 1.375zm-1.707-4.707h-6c-8.9 0-9-7.92-9-8 0-.5522847.4477153-1 1-1h22c.5522847 0 1 .4477153 1 1 0 .08-.1 8-9 8zm13 4c-1.6568542 0-3-1.3431458-3-3s1.3431458-3 3-3 3 1.3431458 3 3-1.3431458 3-3 3zm-5-15c-4.418278 0-8-3.581722-8-8s3.581722-8 8-8 8 3.581722 8 8c-.0049599 4.4162219-3.5837781 7.9950401-8 8z"/></g></g></svg>