<svg height="512" viewBox="0 0 56 56" width="512" xmlns="http://www.w3.org/2000/svg"><g id="Page-1" fill="none" fill-rule="evenodd"><g id="001---Bored" fill="rgb(0,0,0)" fill-rule="nonzero"><path id="Shape" d="m26.273 16.064c-.1825917.6290697-.2745175 1.2809686-.273 1.936 0 2.29 1.056 4 2 4s2-1.71 2-4c.001354-.6546214-.0902262-1.3061206-.272-1.935-.559-.038-1.128-.065-1.728-.065s-1.169.027-1.727.064z"/><path id="Shape" d="m33.208 38c.3985665.0293202.7743905-.1885545.947-.549l.236-.472c-.7971149-.2671805-1.612597-.4760642-2.44-.625l.376 1c.1345903.374741.4831316.6303116.881.646z"/><path id="Shape" d="m22.792 38c.3971081-.0152109.7454351-.2694382.881-.643l.376-1c-.827403.1489358-1.6428851.3578195-2.44.625l.236.472c.1739407.3588771.5492675.5752746.947.546z"/><path id="Shape" d="m36.231 37.775-.287.572c-.4999842 1.0187443-1.539206 1.6611653-2.674 1.653-.056 0-.111 0-.167 0-1.1938229-.0512913-2.2392577-.8165228-2.649-1.939l-.746-1.991c-.554-.041-1.12-.07-1.708-.07s-1.154.029-1.708.07l-.746 1.991c-.4093256 1.1215018-1.4532889 1.8865225-2.646 1.939-.056 0-.111 0-.167 0-1.1356967.0074212-2.1751526-.6366994-2.674-1.657l-.287-.572c-1.753.936-2.772 2.111-2.772 3.229 0 2.365 4.518 5 11 5s11-2.635 11-5c0-1.118-1.019-2.293-2.769-3.225z"/><circle id="Oval" cx="12" cy="35" r="1"/><circle id="Oval" cx="9" cy="27" r="2"/><circle id="Oval" cx="47" cy="27" r="2"/><path id="Shape" d="m6 38c-.00330612-2.7600532-2.23994685-4.9966939-5-5-.32480877.0019829-.64865907.0354731-.967.1.18705451 3.3542405 1.16980296 6.6157862 2.867 9.515 1.87792564-.7620259 3.10471621-2.5883609 3.1-4.615z"/><path id="Shape" d="m48 38c-.0275543-2.0328961.8419301-3.9746796 2.3767817-5.3079674 1.5348516-1.3332879 3.5791576-1.9226428 5.5882183-1.6110326-.2691081-4.1884429-1.3562524-8.2835798-3.2-12.054-.213.24-.435.474-.67.7-.4017508.367316-1.023508.345811-1.39892-.0483852s-.3665584-1.0162622.01992-1.3996148c3.761-3.582 3.611-9.288 2.823-13.444-.0914962-.41067612-.4207846-.726162-.835-.8-.4483798-.1094283-.9184492.0627988-1.19.436-1.8215937 2.42850442-4.2921049 4.29308695-7.127 5.379-.5108634.2145626-1.0989374-.02563661-1.3135-.5365s.0256366-1.09893737.5365-1.3135c.348-.14666667.6846667-.29966667 1.01-.459-5.045-4.872-10.904-7.541-16.62-7.541s-11.575 2.669-16.62 7.543c.326.15933333.6626667.31233333 1.01.459.3290416.13933358.558755.44362473.6026094.79824991s-.1048128.7057084-.39.921-.6635678.26208367-.9926094.12275009c-2.8348951-1.08591305-5.30540628-2.95049558-7.127-5.379-.27120749-.37365588-.74158853-.54599717-1.19-.436-.41421538.073838-.74350377.38932388-.835.8-.788 4.156-.938 9.862 2.823 13.444.40068259.3813526.41635262 1.0153174.035 1.416s-1.01531741.4163526-1.416.035c-.235-.223-.457-.457-.67-.7-1.84374756 3.7704202-2.93089192 7.8655571-3.2 12.054.32114862-.0483299.64525517-.0743921.97-.078 3.86416566.0044086 6.99559136 3.1358343 7 7 .00324788 2.7086951-1.56442812 5.1735234-4.019 6.319 4.899 6.991 13.831 11.681 24.019 11.681s19.12-4.69 24.019-11.681c-2.4545719-1.1454766-4.0222479-3.6103049-4.019-6.319zm-32.545-20.838c.5259373-.3221218 1.0720667-.6100505 1.635-.862.664-6.922 5.299-12.3 10.91-12.3s10.246 5.378 10.91 12.3c.5630628.2535692 1.109195.5431696 1.635.867.4500573.305826.5729866.915372.2766412 1.3717276-.2963455.4563557-.9031869.5920076-1.3656412.3052724-.014-.009-.179-.112-.479-.273-.235 7.451-5.062 13.429-10.977 13.429s-10.743-5.979-10.978-13.436c-.3.165-.469.269-.477.274-.4619758.282977-1.0652772.1466148-1.3606412-.3075413-.295364-.454156-.175363-1.0609237.2706412-1.3684587zm-10.455 9.838c0-2.209139 1.790861-4 4-4s4 1.790861 4 4-1.790861 4-4 4c-1.06086596 0-2.07828161-.4214274-2.82842712-1.1715729-.75014552-.7501455-1.17157288-1.7675611-1.17157288-2.8284271zm7 11c-1.6568542 0-3-1.3431458-3-3s1.3431458-3 3-3 3 1.3431458 3 3-1.3431458 3-3 3zm20.707 13.707c-.216.216-1.457 1.293-4.707 1.293s-4.491-1.077-4.707-1.293c-.3789722-.3923789-.3735524-1.0160848.0121814-1.4018186s1.0094397-.3911536 1.4018186-.0121814c.998195.5703954 2.1486411.8173936 3.293.707 2.445 0 3.31-.724 3.318-.731.4084331-.356744 1.0252598-.3289867 1.4.063.3708401.3850706.3659533.9959117-.011 1.375zm-4.707-3.707c-7.29 0-13-3.075-13-7 0-3.466 4.454-6.265 10.514-6.873h.043c.79-.082 1.605-.127 2.443-.127s1.653.045 2.443.123h.045c6.058.613 10.512 3.412 10.512 6.877 0 3.925-5.71 7-13 7zm16-10c-1.6568542 0-3-1.3431458-3-3s1.3431458-3 3-3 3 1.3431458 3 3-1.3431458 3-3 3zm-1-11c0-2.209139 1.790861-4 4-4s4 1.790861 4 4-1.790861 4-4 4-4-1.790861-4-4z"/><path id="Shape" d="m55 33c-2.3886473-.0054239-4.4465548 1.6817092-4.9096172 4.0250484-.4630623 2.3433391.7984442 4.6864146 3.0096172 5.5899516 1.697197-2.8992138 2.6799455-6.1607595 2.867-9.515-.3183409-.0645269-.6421912-.0980171-.967-.1z"/><circle id="Oval" cx="44" cy="35" r="1"/><path id="Shape" d="m36.79 15.446c-.881-5.393-4.485-9.446-8.79-9.446s-7.909 4.053-8.79 9.446c5.701411-1.9280366 11.878589-1.9280366 17.58 0z"/></g></g></svg>