<svg height="512" viewBox="0 0 56 56" width="512" xmlns="http://www.w3.org/2000/svg"><g id="Page-1" fill="none" fill-rule="evenodd"><g id="003---Angry" fill="rgb(0,0,0)" fill-rule="nonzero"><path id="Shape" d="m25 45.933c.937.04 1.922.067 3 .067s2.063-.027 3-.067v-7.933h-6z"/><path id="Shape" d="m17 44.837c1.9637636.5186294 3.9731461.8458238 6 .977v-7.814h-6z"/><path id="Shape" d="m17 31.135v4.865h6v-5.545c-.8233599-.5434243-1.5726305-1.1915148-2.229-1.928-1.3917059.6563213-2.6657685 1.537455-3.771 2.608z"/><path id="Shape" d="m25 31.457v4.543h6v-4.543c-1.9344814.7239813-4.0655186.7239813-6 0z"/><circle id="Oval" cx="28" cy="17" r="2"/><path id="Shape" d="m15 36v-2.515c-.5477329.7978738-1.0296555 1.6389808-1.441 2.515z"/><circle id="Oval" cx="9" cy="27" r="2"/><path id="Shape" d="m6 38c-.00330612-2.7600532-2.23994685-4.9966939-5-5-.32480877.0019829-.64865907.0354731-.967.1.18705451 3.3542405 1.16980296 6.6157862 2.867 9.515 1.87792564-.7620259 3.10471621-2.5883609 3.1-4.615z"/><path id="Shape" d="m12.059 40.516c-.0078202.0539499-.0201978.1071402-.037.159-.0849743.6225229.1068698 1.251041.525 1.72.6613801.7734877 1.5041788 1.3709712 2.453 1.739v-6.134h-2.263c-.2925526.8193008-.5192719 1.6606368-.678 2.516z"/><path id="Shape" d="m33 45.814c1.6820107-.118159 3.3531318-.3591346 5-.721v-7.093h-5z"/><circle id="Oval" cx="47" cy="27" r="2"/><path id="Shape" d="m43.941 40.518c-.1610184-.8561089-.3897366-1.6980863-.684-2.518h-3.257v6.525c1.3597236-.3684167 2.5784571-1.1344777 3.5-2.2.383304-.4599185.5556709-1.0597554.475-1.653-.0155117-.0503209-.0268829-.1018258-.034-.154z"/><path id="Shape" d="m48 38c-.0275543-2.0328961.8419301-3.9746796 2.3767817-5.3079674 1.5348516-1.3332879 3.5791576-1.9226428 5.5882183-1.6110326-.2691081-4.1884429-1.3562524-8.2835798-3.2-12.054-.213.24-.435.474-.67.7-.4017508.367316-1.023508.345811-1.39892-.0483852s-.3665584-1.0162622.01992-1.3996148c3.761-3.582 3.611-9.288 2.823-13.444-.0914962-.41067612-.4207846-.726162-.835-.8-.4483798-.1094283-.9184492.0627988-1.19.436-1.8215937 2.42850442-4.2921049 4.29308695-7.127 5.379-.5108634.2145626-1.0989374-.02563661-1.3135-.5365s.0256366-1.09893737.5365-1.3135c.348-.14666667.6846667-.29966667 1.01-.459-5.045-4.872-10.904-7.541-16.62-7.541s-11.575 2.669-16.62 7.543c.326.15933333.6626667.31233333 1.01.459.3290416.13933358.558755.44362473.6026094.79824991s-.1048128.7057084-.39.921-.6635678.26208367-.9926094.12275009c-2.8348951-1.08591305-5.30540628-2.95049558-7.127-5.379-.27137941-.37342829-.74160434-.54571239-1.19-.436-.41421538.073838-.74350377.38932388-.835.8-.788 4.156-.938 9.862 2.823 13.444.40068259.3813526.41635262 1.0153174.035 1.416s-1.01531741.4163526-1.416.035c-.235-.223-.457-.457-.67-.7-1.84374756 3.7704202-2.93089192 7.8655571-3.2 12.054.32114862-.0483299.64525517-.0743921.97-.078 3.86416566.0044086 6.99559136 3.1358343 7 7 .00324788 2.7086951-1.56442812 5.1735234-4.019 6.319 4.899 6.991 13.831 11.681 24.019 11.681s19.12-4.69 24.019-11.681c-2.4545719-1.1454766-4.0222479-3.6103049-4.019-6.319zm-43-11c0-2.209139 1.790861-4 4-4s4 1.790861 4 4-1.790861 4-4 4c-1.06086596 0-2.07828161-.4214274-2.82842712-1.1715729-.75014552-.7501455-1.17157288-1.7675611-1.17157288-2.8284271zm26 25h-6c-.5522847 0-1-.4477153-1-1s.4477153-1 1-1h6c.5522847 0 1 .4477153 1 1s-.4477153 1-1 1zm14.119-8.493c-1.839 2.519-6.245 3.984-13.1 4.379-.0059878.0005411-.0120122.0005411-.018 0h-.01c-1.253.074-2.576.114-3.991.114s-2.738-.04-3.99-.112h-.01c-.0059878.0005411-.0120122.0005411-.018 0-6.856-.4-11.262-1.86-13.1-4.379-.7486627-.9419489-1.03862764-2.1685264-.791-3.346.2227187-1.2097914.5605891-2.3955191 1.009-3.541v-.022c1.4985573-4.1694289 4.5003717-7.6288086 8.417-9.7-1.6755013-2.6637408-2.5492538-5.7532907-2.517-8.9-.0271768-3.2157372.8851524-6.3694419 2.625-9.074-.85568-.23459214-1.650963-.65030821-2.332-1.219-.3789722-.39237889-.3735524-1.01608478.0121814-1.40181858.3857338-.38573379 1.0094397-.39115363 1.4018186-.01218142 0 0 2.012 1.707 9.293 1.707s9.294-1.71 9.314-1.728c.4053662-.36017027 1.0224694-.3372493 1.4.052.3736746.38686934.3692299 1.00157466-.01 1.383-.681037.56869179-1.47632.98440786-2.332 1.219 1.7409043 2.7042305 2.654283 5.857959 2.628 9.074.0327031 3.1493832-.8421501 6.2415725-2.52 8.907 1.1521007.57774 2.2307953 1.291498 3.213 2.126l.02.019c2.3245531 2.050144 4.106383 4.6430208 5.187 7.548l.007.018c.4472661 1.1449394.7841297 2.3299893 1.006 3.539.2480468 1.179197-.0430958 2.4075693-.794 3.35zm-2.119-16.507c0-2.209139 1.790861-4 4-4s4 1.790861 4 4-1.790861 4-4 4-4-1.790861-4-4z"/><path id="Shape" d="m55 33c-2.3886473-.0054239-4.4465548 1.6817092-4.9096172 4.0250484-.4630623 2.3433391.7984442 4.6864146 3.0096172 5.5899516 1.697197-2.8992138 2.6799455-6.1607595 2.867-9.515-.3183409-.0645269-.6421912-.0980171-.967-.1z"/><path id="Shape" d="m40 32.207v3.793h2.433c-.6437444-1.3641258-1.4615547-2.6390762-2.433-3.793z"/><path id="Shape" d="m33 30.455v5.545h5v-5.742c-.8524918-.6843134-1.7829602-1.2653527-2.772-1.731-.6555252.7369616-1.4045314 1.3851142-2.228 1.928z"/></g></g></svg>