<svg height="512" viewBox="0 0 56 57" width="512" xmlns="http://www.w3.org/2000/svg"><g id="Page-1" fill="none" fill-rule="evenodd"><g id="045---Sad" fill="rgb(0,0,0)" fill-rule="nonzero" transform="translate(-1)"><circle id="Oval" cx="29.001" cy="15" r="3.374"/><path id="Shape" d="m15.259 32.081c-.2414517-.1058562-.5153267-.1101806-.76-.012l-1.863.732c-.2486971.098257-.4480422.291485-.554.537-.106625.2419175-.111311.5165862-.013.762l.422 1.076c1.1972176-.5924123 2.4402435-1.0873486 3.717-1.48l-.418-1.06c-.0960597-.2483112-.2871748-.4480644-.531-.555z"/><path id="Shape" d="m45.36 32.8-1.86-.73c-.2457159-.0985567-.5206698-.0945913-.7634412.0110105-.2427715.1056019-.4331323.3040411-.5285588.5509895l-.42 1.064c1.2770127.3928421 2.5203557.8877715 3.718 1.48l.419-1.071c.2028857-.5163622-.0496301-1.0996067-.565-1.305z"/><path id="Shape" d="m50.727 14.66c-1.0741322-1.5878177-.8755904-3.7135556.474-5.075l.416-.416c.7034733-.69632275 1.7413002-.93280927 2.677-.61.7498042.36624015 1.6378727.30566405 2.331-.159.836-.836.314-3.219-1.769-5.3-.9012395-.938677-2.0270838-1.6318749-3.271-2.014-.6744184-.2715033-1.4409033-.17866467-2.031.246-.4643661.69507432-.5230566 1.58495905-.154 2.335.3214019.93214704.089192 1.96586769-.6 2.671-1.4611518 1.45684225-3.7896027 1.56631969-5.381.253-4.528-3.657-9.513-5.591-14.419-5.591s-9.891 1.934-14.416 5.591c-1.5919883 1.31536149-3.9229159 1.20539573-5.384-.254-.68859179-.70504903-.92074562-1.73813358-.6-2.67.36863586-.74954581.31073708-1.63859673-.152-2.334-.59030882-.42412107-1.35650542-.5169248-2.031-.246-1.24488899.38137788-2.37180467 1.07425548-3.274 2.013-2.083 2.085-2.603 4.468-1.768 5.3.66647082.4508043 1.52063557.51875786 2.25.179.26913707-.08333469.5492565-.12580767.831-.126.79513508.00837365 1.55441867.33208527 2.111.9l.232.232c1.34959041 1.3614444 1.54813224 3.4871823.474 5.075-3.928 5.824-6.273 12.681-6.273 18.34 0 13.233 12.561 24 28 24s28-10.767 28-24c0-5.66-2.345-12.516-6.273-18.34zm-21.727-9.66c8.2803876.00936852 14.9906315 6.7196124 15 15 .006335 2.2685457-.5067727 4.5084316-1.5 6.548-.1093042.2239969-.2983176.3991018-.53.491-3.27 1.302-7.63 1.961-12.97 1.961s-9.7-.659-12.97-1.961c-.2316824-.0918982-.4206958-.2670031-.53-.491-.9932273-2.0395684-1.506335-4.2794543-1.5-6.548.0093685-8.2803876 6.7196124-14.99063148 15-15zm2 34h-4c-.5522847 0-1-.4477153-1-1s.4477153-1 1-1h4c.5522847 0 1 .4477153 1 1s-.4477153 1-1 1zm19.5 1.868c-.1519915.0876108-.3245699.1331715-.5.132-.3568992-.0003661-.6865505-.190916-.865-.5-.063-.1-4.108-6.5-20.135-6.5-8.587 0-13.711 1.8-16.639 3.505-.01 0-.016.013-.026.016h-.006c-1.3697378.7101861-2.55483299 1.7302377-3.461 2.979-.27614237.4793832-.88861684.6441424-1.368.368s-.64414237-.8886168-.368-1.368c.93343996-1.3689365 2.16406931-2.5093197 3.6-3.336l-.522-1.334c-.29673166-.7408093-.28231171-1.5699566.04-2.3.3160255-.7314164.9100306-1.3070726 1.651-1.6l1.864-.732c.7407671-.2933612 1.5680007-.2788332 2.2980101.0403582.7300093.3191913 1.3023711.9166262 1.5899899 1.6596418l.495 1.255c3.5588482-.813095 7.2017533-1.2001452 10.852-1.153 3.650942-.0443301 7.2941987.345743 10.853 1.162l.5-1.259c.2887559-.7421662.8618299-1.3383584 1.5920022-1.6562246.7301724-.3178662 1.5570241-.3311043 2.2969978-.0367754l1.857.729c1.5429287.6110434 2.3005644 2.355305 1.694 3.9l-.521 1.33c1.4356802.8265891 2.6662609 1.9665854 3.6 3.335.2737673.4794043.1072509 1.0899643-.372 1.364z"/></g></g></svg>