<svg height="512" viewBox="0 0 56 56" width="512" xmlns="http://www.w3.org/2000/svg"><g id="Page-1" fill="none" fill-rule="evenodd"><g id="049---Grumpy" fill="rgb(0,0,0)" fill-rule="nonzero" transform="translate(-1)"><path id="Shape" d="m15.259 32.082c-.2415892-.1036024-.5142564-.1079133-.759-.012l-1.865.733c-.513872.2041472-.7666603.7847564-.566 1.3l.421 1.075c1.1973708-.5920684 2.4403686-1.0869935 3.717-1.48l-.418-1.059c-.0944104-.2494881-.2855068-.4503196-.53-.557z"/><path id="Shape" d="m4.288 14.689c1.63410997-2.7369678 3.57790913-5.27669093 5.793-7.569-1.23647212-1.76832947-3.46785001-2.54398059-5.53456778-1.92387571-2.06671778.62010489-3.50249818 2.4960624-3.56121839 4.65300569-.0587202 2.15694332 1.27286779 4.10823912 3.30278617 4.83987002zm-.824-4.534c.58785565-.5537433.87930372-1.35281528.786-2.155 0-.55228475.44771525-1 1-1s1 .44771525 1 1c.135772 1.5005804-.52211079 2.9630899-1.735 3.857-.46768344.265901-1.06192131.1141344-1.34482503-.3434644-.28290372-.4575987-.15307125-1.0570112.29382503-1.3565356z"/><path id="Shape" d="m45.36 32.8-1.855-.729c-.2455418-.0991762-.5206189-.0956308-.7635231.0098407-.2429042.1054716-.4333004.3040397-.5284769.5511593l-.42 1.065c1.2766314.3930065 2.5196292.8879316 3.717 1.48l.419-1.071c.2031125-.5177595-.0515139-1.1021919-.569-1.306z"/><path id="Shape" d="m19 25c2.3751008-.0029983 4.4215673-1.6735832 4.9-4h-9.8c.4784327 2.3264168 2.5248992 3.9970017 4.9 4z"/><path id="Shape" d="m29 0c-14.609 0-28 17.518-28 32 0 13.233 12.561 24 28 24s28-10.767 28-24c0-14.539-13.43-32-28-32zm5.553 14.105c.268-.131 6.606-3.236 11.047.095.2858125.2143594.4355547.5649147.3928203.9196152-.0427344.3547006-.2714531.6596589-.6.8-.3285469.1403412-.7070078.0947442-.9928203-.1196152-3.451-2.585-8.9.068-8.954.1-.494571.2465951-1.0954048.045571-1.342-.449-.2465951-.494571-.045571-1.0954048.449-1.342zm-.553 14.895c0 .5522847-.4477153 1-1 1s-1-.4477153-1-1c.0431461-.8081057-.2590442-1.5964941-.8312751-2.1687249-.5722308-.5722309-1.3606192-.8744212-2.1687249-.8312751-.8090314-.042655-1.5980686.2605376-2.1703622.8339758s-.8739092 1.3630796-.8296378 2.1720242c-.0032997.5499402-.4500499.9940099-1 .994h-.006c-.5499402-.0032997-.9940099-.4500499-.994-1-.0507877-1.3410078.4596689-2.6425 1.4085844-3.5914156.9489156-.9489155 2.2504078-1.4593721 3.5914156-1.4085844 1.3410078-.0507877 2.6425.4596689 3.5914156 1.4085844.9489155.9489156 1.4593721 2.2504078 1.4085844 3.5914156zm-21.6-14.8c4.445-3.333 10.78-.227 11.047-.095.494571.2465951.6955951.847429.449 1.342-.2465952.494571-.847429.6955951-1.342.449-.055-.029-5.5-2.681-8.954-.1-.4418278.3313708-1.0686292.2418278-1.4-.2s-.2418278-1.0686292.2-1.4zm-.4 4.8h12c1.1045695 0 2-.8954305 2-2v-2c0-.5522847.4477153-1 1-1s1 .4477153 1 1v2c-.0045101 1.4317733-.7767752 2.7510753-2.023 3.456-.2292927 3.5749044-3.1237012 6.3980494-6.7032099 6.5381698-3.5795088.1401204-6.685747-2.4481285-7.1937901-5.9941698h-.08c-.5522847 0-1-.4477153-1-1s.4477153-1 1-1zm19 20h-4c-.5522847 0-1-.4477153-1-1s.4477153-1 1-1h4c.5522847 0 1 .4477153 1 1s-.4477153 1-1 1zm16.79-4.161-.52 1.33c1.4356186.8266728 2.6661822 1.9666532 3.6 3.335.1322711.2301639.1675972.5034761.0981936.7597069-.0694037.2562308-.237841.4743508-.4681936.6062931-.1521868.0869125-.3247532.1317797-.5.13-.3568992-.0003661-.6865505-.190916-.865-.5-.063-.1-4.108-6.5-20.135-6.5-8.595 0-13.721 1.8-16.648 3.51-.007 0-.011.009-.018.011-1.371428.7097285-2.55824985 1.7297926-3.466 2.979-.17254611.3192653-.50451883.5199915-.8673996.5244702s-.69970638-.187993-.88007957-.5029026c-.18037318-.3149095-.17597986-.7028239.01147917-1.0135676.93381781-1.3683468 2.16438142-2.5083272 3.6-3.335l-.522-1.335c-.60428897-1.5421754.1509489-3.2827976 1.69-3.895l1.866-.732c.7406271-.2933273 1.5677212-.2787731 2.2975697.04043s1.302022.9166259 1.5894303 1.65957l.495 1.254c3.5583641-.8171311 7.2012752-1.2082103 10.852-1.165 3.6509393-.0442733 7.2941893.3457991 10.853 1.162l.5-1.26c.2891362-.7420496.8625381-1.3379716 1.5929046-1.6554651s1.5572578-.3302851 2.2970954-.0355349l1.856.728c1.5424247.612656 2.29862 2.3575845 1.691 3.902zm-.79-14.839c0 .5522847-.4477153 1-1 1h-.08c-.5013408 3.5526765-3.6106779 6.1490964-7.1958092 6.0087862-3.5851312-.1403102-6.4820381-2.9717945-6.7041908-6.5527862-1.2450686-.7056955-2.0161029-2.0248512-2.02-3.456v-2c0-.5522847.4477153-.9999999 1-.9999999s1 .4477152 1 .9999999v2c0 1.1045695.8954305 2 2 2h12c.5522847 0 1 .4477153 1 1z"/><path id="Shape" d="m57 10c-.0038453-2.17586183-1.4144008-4.09943871-3.4884588-4.75721728-2.0740581-.65777857-4.3353975.10127269-5.5925412 1.87721728 2.2150909 2.29230907 4.15889 4.8320322 5.793 7.569 1.9665743-.7244146 3.2770471-2.5932731 3.288-4.689zm-5.25-2c0-.55228475.4477153-1 1-1s1 .44771525 1 1c-.0956587.80393436.197354 1.60535546.789 2.158.4481865.3066979.575166.9120548.288 1.373-.1819391.2888349-.4986452.4649085-.84.467-.1763583-.0008662-.3491723-.0495997-.5-.141-1.2136425-.8934534-1.8723192-2.35604168-1.737-3.857z"/><path id="Shape" d="m39 25c2.3751008-.0029983 4.4215673-1.6735832 4.9-4h-9.8c.4791332 2.3259925 2.5251746 3.9962304 4.9 4z"/></g></g></svg>